<svg xmlns="http://www.w3.org/2000/svg" width="80" height="80" viewBox="0 0 80 80">
  <g id="Group_44697" data-name="Group 44697" transform="translate(-448 -1914)">
    <rect id="Rectangle_9405" data-name="Rectangle 9405" width="80" height="80" transform="translate(448 1914)" fill="#fff"/>
    <g id="Group_44708" data-name="Group 44708" transform="translate(895.665 1984.527)">
      <path id="Path_16002" data-name="Path 16002" d="M-399.832-24.754h-9.8c0-.151-.01-.282,0-.411a1.2,1.2,0,0,0-.637-1.233,13,13,0,0,1-4.055-3.709,1.854,1.854,0,0,0-1.551-.574,15.087,15.087,0,0,1-12.4-7.865,25.959,25.959,0,0,1-3.318-9.883c-.261-2.009-.358-4.039-.527-6.06-.01-.115,0-.231,0-.405h9.607l-.282-3.528h36.307c-.1,1.132-.2,2.252-.3,3.43h9.568c0,.727.034,1.4-.005,2.069a34.63,34.63,0,0,1-2.324,11.261,18.188,18.188,0,0,1-5.867,8.068,14.578,14.578,0,0,1-6.905,2.694,11.957,11.957,0,0,0-1.653.239,3.136,3.136,0,0,0-1.181.615c-1.394,1.206-2.739,2.469-4.129,3.68A1.509,1.509,0,0,0-399.832-24.754ZM-428.955-51.82c.031.662.066,1.3.089,1.931a25.633,25.633,0,0,0,1.042,6.535,16.481,16.481,0,0,0,4.833,7.9,17.087,17.087,0,0,0,6.932,3.327,1.305,1.305,0,0,0,.357-.049c-3.572-6.121-5.162-12.816-6.333-19.643Zm35.435,19.589a2.738,2.738,0,0,0,.405,0,14.183,14.183,0,0,0,5.874-2.487,16.19,16.19,0,0,0,5.862-8.9,36.326,36.326,0,0,0,1.068-8.2c-.13-.011-.262-.03-.393-.03-1.947,0-3.895.016-5.842-.008-.548-.006-.742.258-.839.732-.431,2.113-.833,4.235-1.324,6.334A44.593,44.593,0,0,1-393.3-32.706C-393.373-32.578-393.425-32.439-393.52-32.231Zm-8.073,3.829a1.492,1.492,0,0,0,2.051-.569,38.746,38.746,0,0,0,7.178-13.483,48.346,48.346,0,0,0,1.923-10.073c.06-.681.086-1.364.126-2.031h-4.272C-394.843-45.269-396.363-36.357-401.593-28.4Z" transform="translate(0 -4.99)" fill="#f7a325"/>
      <path id="Path_16003" data-name="Path 16003" d="M-374.446,47.676v1.093q0,7.6,0,15.2c0,.749,0,.757-.755.758q-6.505.01-13.011.012-6.683,0-13.366,0c-.854,0-.928-.066-.928-.923,0-5.168.011-10.337,0-15.505,0-.493.117-.654.65-.653q13.366.029,26.733.014Zm-4.922,10.442c.009-.187.023-.353.023-.518,0-2.185-.012-4.369.01-6.553,0-.475-.111-.631-.615-.629-5.519.019-11.038.012-16.557.012h-.855v7.689Z" transform="translate(-16.511 -64.132)" fill="#f7a325"/>
      <path id="Path_16004" data-name="Path 16004" d="M-375.424-67.372c0,.661.021,1.3-.015,1.941a.632.632,0,0,1-.316.439,1.641,1.641,0,0,1-.689.113q-18.7.008-37.392.007h-.48v-2.5Z" transform="translate(-9.927)" fill="#f7a325"/>
      <path id="Path_16005" data-name="Path 16005" d="M-374.945,89.133V91.57H-406.5V89.133Z" transform="translate(-14.283 -87.253)" fill="#f7a325"/>
      <path id="Path_16006" data-name="Path 16006" d="M-374.993,39.695v1.984h-.628q-15.187,0-30.374.011c-.47,0-.631-.122-.59-.592.039-.452.008-.909.008-1.4Z" transform="translate(-14.234 -59.691)" fill="#f7a325"/>
      <path id="Path_16007" data-name="Path 16007" d="M-371.738,28.586h-12.624a1.5,1.5,0,0,1,.605-2.032,12.2,12.2,0,0,1,2.079-.892c.28-.1.4-.208.4-.523-.021-.96-.008-1.921-.008-2.909h6.208c0,.63,0,1.265,0,1.9,0,.456-.141,1.013.069,1.337.185.284.773.3,1.181.442a2.63,2.63,0,0,1,1.886,1.47A6.818,6.818,0,0,1-371.738,28.586Z" transform="translate(-26.541 -49.954)" fill="#f7a325"/>
      <path id="Path_16008" data-name="Path 16008" d="M-372.885,61.589h-17.993V53.9h.855c5.519,0,11.038.007,16.557-.012.5,0,.619.154.615.629-.022,2.184-.009,4.369-.01,6.553C-372.862,61.236-372.877,61.4-372.885,61.589Z" transform="translate(-22.994 -67.603)" fill="#fff"/>
    </g>
  </g>
</svg>
