<svg version="1.2" xmlns="http://www.w3.org/2000/svg" viewBox="0 0 1921 102" width="1921" height="102">
	<title>banner-bg-pattern-svg</title>
	<style>
		.s0 { fill: #ffffff } 
	</style>
	<g id="Group_47135">
		<g id="Layer">
			<path id="Path_223-2" fill-rule="evenodd" class="s0" d="m1005.9 23.1c128.6-26.8 121.2 33.9 243-8.9 52-18.2 74.8-17.4 129.2-2.7q11.4 3.2 23 5.8 11.6 2.6 23.3 4.7 11.7 2.1 23.5 3.7 11.7 1.5 23.6 2.6c35 3 70-11.8 105.1-14.6 35-2.9 70 5.8 105.1 13.1 35 7.2 70 13.2 105.1 10.2 35-3 70-14.5 105.1-16q3.5-0.2 7.1-0.2 3.6 0 7.2 0.1 3.6 0.1 7.2 0.3 3.5 0.3 7.1 0.6v35.3h-1920v-11.3l17.5-1.5c17.5-1.5 52.6-4.3 87.6-10.2 35-5.8 70-14.6 105.1-13.1 35 1.5 70 13 105.1 16 35 3 70-3 105.1-10.2 35-7.3 70-16 105.1-13.1 35 2.8 70 17.6 105.1 14.6 53.4-4.6 72.8-12.8 115.3-22.8q9.6-2.3 19.3-3.5 9.7-1.2 19.5-1.2 9.8-0.1 19.5 0.9 9.8 1.1 19.3 3.2c73.3 16.5 84.7 36.3 181.9 18.2z"/>
		</g>
		<path id="Rectangle_28256" class="s0" d="m0.5 49.4h1920v52h-1920z"/>
	</g>
</svg>