<svg xmlns="http://www.w3.org/2000/svg" width="14.278" height="14.104" viewBox="0 0 14.278 14.104">
  <path id="Union_8" data-name="Union 8" d="M-607.244-501.569a.5.5,0,0,0-.1-.022,2.558,2.558,0,0,1-2.2-1.963c-.017-.071-.031-.143-.046-.218l-.016-.078v-8.4a.47.47,0,0,0,.023-.095,2.544,2.544,0,0,1,2.35-2.188c.076-.005.157-.007.257-.007l.233,0,.258,0h.311v-.486c0-.121,0-.233,0-.346a.276.276,0,0,1,.266-.31h0a.277.277,0,0,1,.27.308c0,.113,0,.226,0,.341v.47h6.326v-.467c0-.113,0-.223,0-.333a.284.284,0,0,1,.27-.319c.165,0,.27.123.271.313,0,.113,0,.225,0,.341v.475h.826a2.617,2.617,0,0,1,1.869.757,2.5,2.5,0,0,1,.734,1.739c.009,2.536.009,5.15,0,7.99a2.531,2.531,0,0,1-1.966,2.415c-.087.02-.175.037-.268.055l-.1.02Zm-1.82-6.8q0,2.1,0,4.2a2,2,0,0,0,2.078,2.061l4.517,0,4.515,0a2,2,0,0,0,2.08-2.06q0-2.125,0-4.251v-2.2h-13.191Zm.488-4.945a2.311,2.311,0,0,0-.461,1.892l.042.259h13.071l.034-.27a2.338,2.338,0,0,0-.495-1.906,2.189,2.189,0,0,0-1.668-.68,3.167,3.167,0,0,0-.445.032l-.266.038v.266c0,.1,0,.205,0,.308,0,.248,0,.5-.008.751a.493.493,0,0,1-.083.235.208.208,0,0,1-.17.075.3.3,0,0,1-.1-.017.26.26,0,0,1-.182-.249c0-.255,0-.506,0-.772q0-.169,0-.341V-514h-6.327v.307q0,.172,0,.342c0,.261,0,.507,0,.757a.265.265,0,0,1-.272.277h0a.261.261,0,0,1-.264-.28c0-.2,0-.4,0-.6q0-.182,0-.364c0-.043,0-.081-.006-.116,0-.012,0-.024,0-.036l-.016-.258-.26-.029a3.588,3.588,0,0,0-.4-.023A2.187,2.187,0,0,0-608.575-513.312Zm2.093,8.921a.269.269,0,0,1-.264-.266.271.271,0,0,1,.28-.266l.214,0h.712l.209,0a.269.269,0,0,1,.272.264.265.265,0,0,1-.259.268c-.186,0-.38.006-.576.006S-606.282-504.387-606.482-504.391Zm6.873,0a.267.267,0,0,1-.266-.266.268.268,0,0,1,.276-.267l.213,0h.713l.208,0a.27.27,0,0,1,.276.267.27.27,0,0,1-.27.265c-.195,0-.389,0-.578,0S-599.422-504.387-599.61-504.39Zm-3.432,0a.272.272,0,0,1-.273-.268.271.271,0,0,1,.284-.264h.913l.209,0a.268.268,0,0,1,.279.266.267.267,0,0,1-.274.268c-.193,0-.385,0-.571,0S-602.857-504.387-603.042-504.39Zm-3.435-3.392a.277.277,0,0,1-.2-.084.256.256,0,0,1-.075-.185.272.272,0,0,1,.275-.264l.215,0h.712l.208,0a.269.269,0,0,1,.277.267.267.267,0,0,1-.265.265c-.187,0-.38,0-.572,0S-606.282-507.779-606.477-507.782Zm3.428,0a.267.267,0,0,1-.267-.265.273.273,0,0,1,.278-.267l.215,0h.711l.209,0a.267.267,0,0,1,.273.268.265.265,0,0,1-.267.264c-.193,0-.387,0-.575,0S-602.86-507.779-603.049-507.782Zm3.451,0a.27.27,0,0,1-.278-.267.269.269,0,0,1,.278-.266l.557,0,.569,0a.272.272,0,0,1,.282.265.274.274,0,0,1-.289.269l-.208,0h-.7Z" transform="translate(609.605 515.674)" fill="#2d2d2d"/>
</svg>
