<svg xmlns="http://www.w3.org/2000/svg" width="84" height="80" viewBox="0 0 84 80">
  <g id="Group_44697" data-name="Group 44697" transform="translate(-444 -1914)">
    <rect id="Rectangle_9405" data-name="Rectangle 9405" width="80" height="80" transform="translate(448 1914)" fill="#fff"/>
    <g id="Group_44712" data-name="Group 44712" transform="translate(1538.459 1965.214)">
      <path id="Path_16022" data-name="Path 16022" d="M-1094.019,1.6V-3.226a4.441,4.441,0,0,0,.335-.813,17.455,17.455,0,0,1,10.47-13.241c1.565-.7,2.556-1.348,2.323-3.256a7.734,7.734,0,0,1,.43-2.727,18.036,18.036,0,0,1,20.34-13.784,2.841,2.841,0,0,0,2.822-1.039c5.724-6.214,12.794-8.408,21-6.327a20.656,20.656,0,0,1,15.259,21.958c-.046.478.482,1.118.9,1.517,1.693,1.612,3.579,3.039,5.149,4.756,2.658,2.907,3.712,6.6,4.535,10.355V-1a7.689,7.689,0,0,0-.327,1.047,20.8,20.8,0,0,1-20.6,17.494c-14.778.012-29.557.036-44.335-.014a17.987,17.987,0,0,1-13.736-6.2C-1091.992,8.541-1093.171,5.159-1094.019,1.6Zm41.625,5.009,15.276-15.288h-9.815V-24.211h-10.715V-8.556h-9.925Z" transform="translate(-0.44)" fill="#f7a325"/>
      <path id="Path_16023" data-name="Path 16023" d="M-1021.375,31.988l-15.814-15.8h10.34V-.125h11.164V16.06h10.226Z" transform="translate(-31.27 -25.658)" fill="#fff"/>
    </g>
  </g>
</svg>
