<svg xmlns="http://www.w3.org/2000/svg" xmlns:xlink="http://www.w3.org/1999/xlink" width="141.969" height="44.918" viewBox="0 0 141.969 44.918">
  <defs>
    <clipPath id="clip-path">
      <path id="Path_19691" data-name="Path 19691" d="M108.288,142.66a9.995,9.995,0,1,0,9.549,7.082,10.005,10.005,0,0,0-9.549-7.082h0" transform="translate(-98.283 -142.66)"/>
    </clipPath>
    <linearGradient id="linear-gradient" x1="-3.616" y1="8.484" x2="-3.589" y2="8.484" gradientUnits="objectBoundingBox">
      <stop offset="0" stop-color="#cbe4f5"/>
      <stop offset="0.674" stop-color="#4a9cd6"/>
      <stop offset="1" stop-color="#4a9cd6"/>
    </linearGradient>
    <clipPath id="clip-path-2">
      <path id="Path_19692" data-name="Path 19692" d="M99.978,166.768a9.51,9.51,0,0,0,19.018.28v-.224a9.526,9.526,0,0,1-19.01-.284c0,.076,0,.152-.008.228" transform="translate(-99.977 -166.54)"/>
    </clipPath>
    <linearGradient id="linear-gradient-2" x1="-4.323" y1="17.146" x2="-4.292" y2="17.146" gradientUnits="objectBoundingBox">
      <stop offset="0" stop-color="#cbe4f5"/>
      <stop offset="0.353" stop-color="#7ba7d8"/>
      <stop offset="0.659" stop-color="#3782c4"/>
      <stop offset="1" stop-color="#3782c4"/>
    </linearGradient>
    <clipPath id="clip-path-3">
      <path id="Path_19693" data-name="Path 19693" d="M107.073,143.811c-3.994,1.214-6.533,4.474-5.68,7.278s4.783,4.094,8.776,2.876,6.533-4.478,5.68-7.282c-.637-2.087-2.972-3.333-5.772-3.333a10.3,10.3,0,0,0-3,.461" transform="translate(-101.228 -143.35)"/>
    </clipPath>
    <linearGradient id="linear-gradient-3" x1="-5.112" y1="15.085" x2="-5.074" y2="15.085" gradientUnits="objectBoundingBox">
      <stop offset="0" stop-color="#3e9dd7"/>
      <stop offset="1" stop-color="#6ab9e7"/>
    </linearGradient>
    <clipPath id="clip-path-4">
      <path id="Path_19696" data-name="Path 19696" d="M111.75,159.342a.268.268,0,0,0,.036-.212,25.329,25.329,0,0,1,2.608.22c-.441.2-.909.4-1.43.593a.989.989,0,0,0-.373-.144.51.51,0,0,0-.156,0q-.354-.234-.685-.457m3.261-.048a9.489,9.489,0,0,0,1.3-.765,1.085,1.085,0,0,0,.425.288l.076.116c-.184.028-.236.216-.084.489a1.222,1.222,0,0,0,.148.216c-.617-.132-1.238-.248-1.867-.344m-8.752.092c.849-.669,1.566-1.274,2.191-1.863a.473.473,0,0,0,.2.044l.136-.02c.5.4,1.045.8,1.662,1.23a.308.308,0,0,0-.016.192l0,.02a23.546,23.546,0,0,0-4.138.477Zm10.086-1.462-.02,0a17.144,17.144,0,0,1-1.106-2.227l.06-.028c.549.413,1.13.865,1.754,1.366a.813.813,0,0,0,.052.24,1.346,1.346,0,0,0,.1.216c-.2.2-.409.377-.621.545a.676.676,0,0,0-.224-.108m-14.512.272a16.312,16.312,0,0,0,1.037-2.532h.036a.741.741,0,0,0,.569-.581c.629-.14,1.254-.264,1.879-.377a.915.915,0,0,0,.192.621c-1.041.817-2.2,1.75-3.625,2.956Zm10.338-3.861a.7.7,0,0,0,.637-.445c.585.4,1.2.833,1.855,1.318l0,.032a.585.585,0,0,0,.4.453,16.647,16.647,0,0,0,1.118,2.239c-.1.044-.124.168-.048.336l.032.064a10.289,10.289,0,0,1-1.534.9,26.459,26.459,0,0,0-2.9-.248.988.988,0,0,0-.753-.465.693.693,0,0,0-.34.056c-.6-.429-1.142-.833-1.63-1.234l.016-.112a.3.3,0,0,0-.08-.192,28.763,28.763,0,0,0,2.612-3,.818.818,0,0,0,.613.3h0m-5.46.849a.907.907,0,0,0,.164-.713l.024-.02c1.494-.232,2.984-.433,4.486-.7a.78.78,0,0,0,.08.164,30.829,30.829,0,0,1-2.64,3.036.342.342,0,0,0-.192-.044l-.128.024a21.191,21.191,0,0,1-1.794-1.742m6.189-1.618.008-.124c.336-.076.677-.152,1.017-.24a.491.491,0,0,0,.441.3q.162.685.4,1.382l-.008.008c-.657-.485-1.27-.921-1.855-1.326m-3.044-1.418a.315.315,0,0,0,.224.092.283.283,0,0,0,.184-.068c.393.264.785.529,1.186.793a.963.963,0,0,0-.112.477c-1.326.256-2.632.441-3.937.633.821-.633,1.61-1.246,2.455-1.927m-6.637,2.211a15.328,15.328,0,0,0,.34-2.688c.713.961,1.326,1.79,1.923,2.532a.871.871,0,0,0-.068.168c-.641.1-1.282.22-1.927.348a.53.53,0,0,0-.268-.361m9.4-1.7c.361-.477.741-.981,1.162-1.526a.226.226,0,0,0,.22.064l.024,0c.024.369.064.741.12,1.114a.77.77,0,0,0-.28.557q-.493.132-.985.252a.948.948,0,0,0-.26-.457m-2.191-.757.008-.052-.024-.152c1.057-.861,2.219-1.851,3.641-3.112a17.865,17.865,0,0,0-.06,1.8.684.684,0,0,0-.284.449.445.445,0,0,0,0,.164c-.437.565-.833,1.086-1.206,1.574a.619.619,0,0,0-.381-.088.8.8,0,0,0-.481.228c-.413-.268-.813-.537-1.218-.809m-6.87-4.735c2.624,2.143,4.458,3.481,6.2,4.662l-.008.052.028.148c-.921.741-1.778,1.4-2.672,2.091l-.328.048a.758.758,0,0,0-.629-.4.682.682,0,0,0-.485.2c-.645-.793-1.31-1.674-2.095-2.712a20.758,20.758,0,0,0-.385-4.046.57.57,0,0,0,.172.028.306.306,0,0,0,.2-.068M101.8,148.94a.729.729,0,0,0-.036-.32,1.675,1.675,0,0,0-.188-.393,12.48,12.48,0,0,1,1.061-1.39,1.7,1.7,0,0,0,.373.288,20.523,20.523,0,0,1,.421,3.933c-.489-.641-1.025-1.346-1.63-2.119m.433-2.015a11.907,11.907,0,0,0-.805,1.1c-.06-.072-.124-.136-.184-.2-.16.168-.316.34-.465.517a2.354,2.354,0,0,0,.208.385c-.653,1.1-1.338,2.451-2.4,4.354-.028.16-.052.32-.068.481,1.174-2.047,1.915-3.481,2.616-4.642a.816.816,0,0,0,.316.236.257.257,0,0,0,.224,0c.653.861,1.226,1.63,1.746,2.335a15.45,15.45,0,0,1-.332,2.832h-.016c-.248,0-.469.264-.541.609a25.262,25.262,0,0,0-3.978,1.278c.024.152.048.3.076.457a24.505,24.505,0,0,1,3.893-1.354.408.408,0,0,0,.22.32,16.444,16.444,0,0,1-1.045,2.556h-.008a1.016,1.016,0,0,0-.557.573.484.484,0,0,0-.044.228c-.365.316-.749.653-1.154,1.005l.056.088c.4-.344.785-.677,1.15-.989l.056.02c-.268.469-.573.941-.9,1.422l.068.1q.547-.781.985-1.542a1.087,1.087,0,0,0,.553-.557l.028-.1c1.466-1.23,2.656-2.179,3.721-3.008a.641.641,0,0,0,.417.12.816.816,0,0,0,.429-.152,18.854,18.854,0,0,0,1.79,1.73l-.028.116a.29.29,0,0,0,.072.188c-.629.593-1.342,1.2-2.191,1.879a.469.469,0,0,0-.216-.016.72.72,0,0,0-.533.377,26.1,26.1,0,0,0-4.522,1.6l.076.088a26.13,26.13,0,0,1,4.426-1.55l.032.076c-.957.733-2.083,1.546-3.425,2.487l.08.068c1.362-.941,2.5-1.75,3.465-2.483a.49.49,0,0,0,.232.008.69.69,0,0,0,.541-.365,22.869,22.869,0,0,1,4.206-.477,1.006,1.006,0,0,0,.733.377.959.959,0,0,0,.268-.012c.232.152.469.3.721.465l.012.108.084.128c-1.79.657-4.106,1.418-7.394,2.824a1.162,1.162,0,0,0-.344.016,1.755,1.755,0,0,0-.589.228c-.224.024-.445.056-.665.084.12.072.24.136.36.2l.024,0-.016.008.244.124a1.425,1.425,0,0,0,.348-.028,2.064,2.064,0,0,0,.617-.216,30.608,30.608,0,0,1,7.639.441c.116-.052.232-.108.344-.164a30.4,30.4,0,0,0-7.747-.549l-.056-.084c3.289-1.378,5.608-2.119,7.394-2.756a1.1,1.1,0,0,0,.393.144.62.62,0,0,0,.168.008c.713.445,1.5.925,2.367,1.45l.148-.144c-.845-.525-1.614-1.005-2.307-1.45l-.024-.108-.1-.132c.6-.224,1.15-.441,1.646-.677.769.116,1.522.26,2.271.433.128-.22.252-.445.365-.673a1.314,1.314,0,0,0-.393-.212l-.048-.012-.072-.108c.116-.024.14-.16.052-.352a1.186,1.186,0,0,0-.192-.284q.288-.234.577-.5a1.494,1.494,0,0,0,.525.421c.1-.276.184-.557.26-.841a1.915,1.915,0,0,0-.148-.232c.092-.1.188-.208.28-.32.032-.16.06-.32.084-.485-.176.22-.353.425-.525.617a.847.847,0,0,0-.4-.236.289.289,0,0,0-.288.1c-.609-.5-1.178-.945-1.718-1.354l-.012-.088a.537.537,0,0,0-.433-.465l-.056,0c-.152-.457-.28-.905-.385-1.354a.654.654,0,0,0,.356-.525A25.481,25.481,0,0,0,118,151.788c-.04-.136-.088-.272-.136-.409a25.137,25.137,0,0,1-3,1.166.433.433,0,0,0-.469-.377l-.1.028c-.052-.373-.088-.741-.108-1.11a.726.726,0,0,0,.24-.429.361.361,0,0,0-.06-.3c.5-.645,1.065-1.346,1.694-2.111l-.076-.088c-.645.773-1.218,1.482-1.734,2.135h-.1a17.425,17.425,0,0,1,.088-1.891c.34-.3.693-.621,1.065-.953l-.084-.08q-.5.445-.961.853c.052-.493.124-.989.208-1.478l-.16-.12c-.1.585-.176,1.166-.228,1.754-1.462,1.286-2.656,2.3-3.733,3.172a.331.331,0,0,0-.228-.088.4.4,0,0,0-.188.068c-1.738-1.17-3.589-2.5-6.249-4.622a.653.653,0,0,0-.048-.3,1.616,1.616,0,0,0-.28-.473,12.536,12.536,0,0,0-1.118.785" transform="translate(-98.52 -146.14)"/>
    </clipPath>
    <radialGradient id="radial-gradient" cx="0.134" cy="0.14" r="2.625" gradientUnits="objectBoundingBox">
      <stop offset="0" stop-color="#fff"/>
      <stop offset="0.056" stop-color="#fff"/>
      <stop offset="0.177" stop-color="#daf0fc"/>
      <stop offset="0.303" stop-color="#bae4fa"/>
      <stop offset="0.334" stop-color="#a8d2f0"/>
      <stop offset="0.469" stop-color="#6299d1"/>
      <stop offset="0.565" stop-color="#307cc0"/>
      <stop offset="0.612" stop-color="#0d73bb"/>
      <stop offset="0.712" stop-color="#5392ce"/>
      <stop offset="0.876" stop-color="#aae0f8"/>
      <stop offset="1" stop-color="#aae0f8"/>
    </radialGradient>
  </defs>
  <g id="e-office" transform="translate(-20.68 -130.88)">
    <path id="Path_19659" data-name="Path 19659" d="M339.077,156.357a12.032,12.032,0,1,0-.921,4.622h-4.827a7.8,7.8,0,0,1-14.015-3.489h19.7A9.637,9.637,0,0,0,339.077,156.357Zm-19.483-2.351a7.81,7.81,0,0,1,14.893,0Z" transform="translate(-176.428 -8.057)" fill="#3b81c4"/>
    <path id="Path_19660" data-name="Path 19660" d="M44.757,156.357a12.032,12.032,0,1,0-.921,4.622H39.009a7.8,7.8,0,0,1-14.015-3.489H44.7A10.579,10.579,0,0,0,44.757,156.357Zm-19.483-2.351a7.81,7.81,0,0,1,14.893,0Z" transform="translate(0 -8.057)" fill="#f0a81f"/>
    <path id="Path_19661" data-name="Path 19661" d="M259.562,163.256a8.52,8.52,0,1,1,6.605-13.9h5.371a13.122,13.122,0,1,0,0,10.751h-5.371A8.49,8.49,0,0,1,259.562,163.256Z" transform="translate(-135.33 -6.432)" fill="#3b81c4"/>
    <rect id="Rectangle_9441" data-name="Rectangle 9441" width="4.254" height="21.662" transform="translate(108.714 160.34) rotate(180)" fill="#3b81c4"/>
    <rect id="Rectangle_9442" data-name="Rectangle 9442" width="4.254" height="4.254" transform="translate(108.714 137.057) rotate(180)" fill="#3b81c4"/>
    <path id="Path_19662" data-name="Path 19662" d="M203.05,136.947v2.127h3.365v3.441H203.43v18.221h-4.254V142.514H196.2v-3.441h2.976v-2.127s.4-5.592,6.209-5.4v0h1.326v3.869h-1.326C205.393,135.4,203.4,135.2,203.05,136.947Z" transform="translate(-105.214 -0.395)" fill="#3b81c4"/>
    <path id="Path_19663" data-name="Path 19663" d="M172.76,136.947v2.127h3.365v3.441H173.14v18.221h-4.254V142.514H165.91v-3.441h2.976v-2.127s.4-5.592,6.209-5.4v0h1.326v3.869h-1.326S173.108,135.2,172.76,136.947Z" transform="translate(-87.057 -0.395)" fill="#3b81c4"/>
    <g id="Group_44759" data-name="Group 44759" transform="translate(23.864 169.786)">
      <g id="Group_44758" data-name="Group 44758" transform="translate(0 0)">
        <path id="Path_19664" data-name="Path 19664" d="M28.63,234.074l2.231-5.8h.829l2.375,5.8h-.877l-.677-1.758H30.084l-.637,1.758Zm1.674-2.383h1.967l-.6-1.606c-.184-.489-.32-.889-.413-1.206a7.067,7.067,0,0,1-.312,1.11Z" transform="translate(-28.63 -228.166)" fill="#58595b"/>
        <path id="Path_19665" data-name="Path 19665" d="M48.24,234.074v-5.8h2a4.779,4.779,0,0,1,1.033.084,1.982,1.982,0,0,1,.853.417,2.388,2.388,0,0,1,.689.993,3.874,3.874,0,0,1,.228,1.382,4.023,4.023,0,0,1-.156,1.174,2.909,2.909,0,0,1-.4.845,2.069,2.069,0,0,1-.529.529,2.19,2.19,0,0,1-.693.292,4.063,4.063,0,0,1-.933.1H48.24Zm.765-.685h1.238a2.964,2.964,0,0,0,.9-.108,1.313,1.313,0,0,0,.521-.3,1.836,1.836,0,0,0,.425-.733,3.64,3.64,0,0,0,.152-1.118,2.7,2.7,0,0,0-.3-1.4,1.527,1.527,0,0,0-.725-.657,2.962,2.962,0,0,0-.993-.12H49v4.438Z" transform="translate(-40.385 -228.166)" fill="#58595b"/>
        <path id="Path_19666" data-name="Path 19666" d="M63.19,234.074v-5.8h.769v5.8Z" transform="translate(-49.347 -228.166)" fill="#58595b"/>
        <path id="Path_19667" data-name="Path 19667" d="M70.918,231.661v-.681l2.459,0v2.155a4.317,4.317,0,0,1-1.17.681,3.451,3.451,0,0,1-1.234.228,3.342,3.342,0,0,1-1.554-.365,2.421,2.421,0,0,1-1.053-1.057,3.347,3.347,0,0,1-.356-1.55,3.645,3.645,0,0,1,.352-1.582,2.351,2.351,0,0,1,1.021-1.09,3.212,3.212,0,0,1,1.534-.356,3.014,3.014,0,0,1,1.138.2,1.865,1.865,0,0,1,.8.569,2.547,2.547,0,0,1,.441.949l-.693.188a2.176,2.176,0,0,0-.324-.7,1.309,1.309,0,0,0-.553-.4,2.069,2.069,0,0,0-.8-.152,2.321,2.321,0,0,0-.909.16,1.733,1.733,0,0,0-.621.421,1.983,1.983,0,0,0-.365.573,3.04,3.04,0,0,0-.22,1.17,2.805,2.805,0,0,0,.268,1.3,1.7,1.7,0,0,0,.777.777,2.414,2.414,0,0,0,1.086.252,2.853,2.853,0,0,0,1.694-.6v-1.082H70.918Z" transform="translate(-52.236 -228.028)" fill="#58595b"/>
        <path id="Path_19668" data-name="Path 19668" d="M84.56,234.074v-5.8h.769v5.8Z" transform="translate(-62.157 -228.166)" fill="#58595b"/>
        <path id="Path_19669" data-name="Path 19669" d="M90.685,234.074v-5.119H88.77v-.685h4.6v.685H91.45v5.119Z" transform="translate(-64.681 -228.166)" fill="#58595b"/>
        <path id="Path_19670" data-name="Path 19670" d="M99.13,234.074l2.231-5.8h.829l2.375,5.8h-.877l-.677-1.758h-2.427l-.637,1.758Zm1.678-2.383h1.967l-.6-1.606c-.184-.489-.32-.889-.413-1.206a7.065,7.065,0,0,1-.312,1.11Z" transform="translate(-70.891 -228.166)" fill="#58595b"/>
        <path id="Path_19671" data-name="Path 19671" d="M114.15,234.074v-5.8h.769v5.119h2.86v.685Z" transform="translate(-79.894 -228.166)" fill="#58595b"/>
        <path id="Path_19672" data-name="Path 19672" d="M130.592,234.074l-1.542-5.8h.789l.881,3.805c.1.4.176.793.244,1.19.148-.621.236-.977.26-1.073l1.106-3.921h.925l.833,2.94a15.61,15.61,0,0,1,.453,2.055c.072-.369.172-.789.288-1.262l.909-3.729h.773l-1.59,5.8h-.741l-1.226-4.422c-.1-.368-.164-.6-.18-.681-.06.268-.116.493-.172.681l-1.23,4.422h-.781Z" transform="translate(-88.826 -228.166)" fill="#58595b"/>
        <path id="Path_19673" data-name="Path 19673" d="M148.9,231.09a3.155,3.155,0,0,1,.777-2.263,2.638,2.638,0,0,1,2-.817,2.783,2.783,0,0,1,1.45.385,2.544,2.544,0,0,1,.985,1.069,3.494,3.494,0,0,1,.34,1.558,3.429,3.429,0,0,1-.357,1.578,2.4,2.4,0,0,1-1.009,1.053,2.87,2.87,0,0,1-1.41.356,2.755,2.755,0,0,1-1.466-.4,2.552,2.552,0,0,1-.977-1.082A3.129,3.129,0,0,1,148.9,231.09Zm.789.012a2.328,2.328,0,0,0,.565,1.654,1.965,1.965,0,0,0,2.84,0,2.471,2.471,0,0,0,.561-1.73,2.967,2.967,0,0,0-.24-1.238,1.854,1.854,0,0,0-.7-.821,1.921,1.921,0,0,0-1.037-.292,1.957,1.957,0,0,0-1.4.561A2.521,2.521,0,0,0,149.689,231.1Z" transform="translate(-100.725 -228.01)" fill="#58595b"/>
        <path id="Path_19674" data-name="Path 19674" d="M165.26,234.074v-5.8h2.576a3.454,3.454,0,0,1,1.182.156,1.288,1.288,0,0,1,.645.553,1.656,1.656,0,0,1,.24.873,1.455,1.455,0,0,1-.4,1.041,2.01,2.01,0,0,1-1.234.537,1.952,1.952,0,0,1,.465.288,3.952,3.952,0,0,1,.637.773l1.009,1.578h-.965l-.769-1.21c-.224-.348-.409-.617-.553-.8a1.846,1.846,0,0,0-.389-.389,1.3,1.3,0,0,0-.352-.156,2.173,2.173,0,0,0-.429-.028h-.889v2.58h-.773Zm.769-3.24h1.65a2.506,2.506,0,0,0,.825-.108.886.886,0,0,0,.453-.348.934.934,0,0,0,.156-.521.859.859,0,0,0-.3-.677,1.4,1.4,0,0,0-.945-.264h-1.839Z" transform="translate(-110.532 -228.166)" fill="#58595b"/>
        <path id="Path_19675" data-name="Path 19675" d="M179.77,234.074v-5.8h.769v2.88l2.884-2.88h1.041l-2.435,2.351,2.544,3.453h-1.013l-2.067-2.94-.949.925v2.011h-.773Z" transform="translate(-119.23 -228.166)" fill="#58595b"/>
        <path id="Path_19676" data-name="Path 19676" d="M193.36,234.074v-5.8h2.191a5.33,5.33,0,0,1,.881.056,1.72,1.72,0,0,1,.717.272,1.407,1.407,0,0,1,.465.561,1.8,1.8,0,0,1,.176.793,1.776,1.776,0,0,1-.473,1.254,2.262,2.262,0,0,1-1.7.513h-1.49v2.359h-.765Zm.769-3.044h1.5a1.594,1.594,0,0,0,1.057-.276.988.988,0,0,0,.312-.781,1.039,1.039,0,0,0-.184-.625.875.875,0,0,0-.485-.344,3.159,3.159,0,0,0-.717-.052h-1.486Z" transform="translate(-127.376 -228.166)" fill="#58595b"/>
        <path id="Path_19677" data-name="Path 19677" d="M206.79,234.074v-5.8h.769v5.119h2.86v.685Z" transform="translate(-135.427 -228.166)" fill="#58595b"/>
        <path id="Path_19678" data-name="Path 19678" d="M216.53,234.074l2.231-5.8h.829l2.375,5.8h-.877l-.677-1.758h-2.427l-.637,1.758Zm1.678-2.383h1.967l-.6-1.606c-.184-.489-.32-.889-.413-1.206a7.067,7.067,0,0,1-.312,1.11Z" transform="translate(-141.265 -228.166)" fill="#58595b"/>
        <path id="Path_19679" data-name="Path 19679" d="M235.442,231.883l.769.192a2.571,2.571,0,0,1-.869,1.442,2.391,2.391,0,0,1-1.534.5,2.779,2.779,0,0,1-1.526-.381,2.4,2.4,0,0,1-.893-1.106,3.962,3.962,0,0,1-.308-1.558,3.4,3.4,0,0,1,.348-1.582,2.39,2.39,0,0,1,.985-1.025,2.9,2.9,0,0,1,1.406-.353,2.379,2.379,0,0,1,1.466.445,2.315,2.315,0,0,1,.829,1.246l-.757.176a1.8,1.8,0,0,0-.585-.921,1.561,1.561,0,0,0-.965-.288,1.88,1.88,0,0,0-1.118.32,1.7,1.7,0,0,0-.633.861,3.5,3.5,0,0,0-.18,1.114,3.545,3.545,0,0,0,.216,1.294,1.6,1.6,0,0,0,.673.825,1.9,1.9,0,0,0,.985.272,1.66,1.66,0,0,0,1.094-.373A1.875,1.875,0,0,0,235.442,231.883Z" transform="translate(-149.987 -228.01)" fill="#58595b"/>
        <path id="Path_19680" data-name="Path 19680" d="M246.29,234.074v-5.8h4.2v.685h-3.429v1.778h3.212v.681h-3.212v1.975h3.565v.685Z" transform="translate(-159.105 -228.166)" fill="#58595b"/>
        <path id="Path_19681" data-name="Path 19681" d="M264.73,232.068l.725-.064a1.612,1.612,0,0,0,.24.713,1.325,1.325,0,0,0,.585.453,2.188,2.188,0,0,0,.889.172,2.12,2.12,0,0,0,.777-.132,1.1,1.1,0,0,0,.5-.357.839.839,0,0,0,.164-.5.745.745,0,0,0-.16-.477,1.2,1.2,0,0,0-.525-.344,10.406,10.406,0,0,0-1.033-.284,5.472,5.472,0,0,1-1.122-.36,1.566,1.566,0,0,1-.621-.541,1.326,1.326,0,0,1-.2-.721,1.485,1.485,0,0,1,.248-.821,1.543,1.543,0,0,1,.729-.581,2.773,2.773,0,0,1,1.065-.2,2.882,2.882,0,0,1,1.138.208,1.654,1.654,0,0,1,.757.613,1.744,1.744,0,0,1,.284.913l-.737.056a1.192,1.192,0,0,0-.4-.833,1.56,1.56,0,0,0-1.013-.28,1.616,1.616,0,0,0-1.017.256.773.773,0,0,0-.32.617.673.673,0,0,0,.224.517,3.013,3.013,0,0,0,1.158.413,7.749,7.749,0,0,1,1.286.368,1.76,1.76,0,0,1,.749.593,1.447,1.447,0,0,1,.24.825,1.582,1.582,0,0,1-.264.873,1.763,1.763,0,0,1-.761.637,2.654,2.654,0,0,1-1.118.228,3.371,3.371,0,0,1-1.322-.228,1.851,1.851,0,0,1-.837-.693A2.139,2.139,0,0,1,264.73,232.068Z" transform="translate(-170.159 -228.022)" fill="#58595b"/>
        <path id="Path_19682" data-name="Path 19682" d="M278.31,231.09a3.155,3.155,0,0,1,.777-2.263,2.638,2.638,0,0,1,2-.817,2.773,2.773,0,0,1,1.45.385,2.544,2.544,0,0,1,.985,1.069,3.493,3.493,0,0,1,.336,1.558,3.429,3.429,0,0,1-.357,1.578,2.4,2.4,0,0,1-1.009,1.053,2.87,2.87,0,0,1-1.41.356,2.755,2.755,0,0,1-1.466-.4,2.552,2.552,0,0,1-.977-1.082A3.177,3.177,0,0,1,278.31,231.09Zm.793.012a2.328,2.328,0,0,0,.565,1.654,1.969,1.969,0,0,0,2.844,0,2.471,2.471,0,0,0,.561-1.73,2.967,2.967,0,0,0-.24-1.238,1.854,1.854,0,0,0-.7-.821,1.921,1.921,0,0,0-1.037-.292,1.957,1.957,0,0,0-1.4.561A2.5,2.5,0,0,0,279.1,231.1Z" transform="translate(-178.299 -228.01)" fill="#58595b"/>
        <path id="Path_19683" data-name="Path 19683" d="M294.56,234.074v-5.8h.769v5.119h2.86v.685Z" transform="translate(-188.04 -228.166)" fill="#58595b"/>
        <path id="Path_19684" data-name="Path 19684" d="M309.733,228.27h.769v3.353a3.969,3.969,0,0,1-.2,1.39,1.692,1.692,0,0,1-.713.837,2.524,2.524,0,0,1-1.358.324,2.769,2.769,0,0,1-1.334-.28,1.626,1.626,0,0,1-.741-.813,3.879,3.879,0,0,1-.22-1.454v-3.353h.769v3.349a3.288,3.288,0,0,0,.14,1.114,1.055,1.055,0,0,0,.485.553,1.691,1.691,0,0,0,.837.192,1.6,1.6,0,0,0,1.21-.385,2.215,2.215,0,0,0,.361-1.478V228.27Z" transform="translate(-194.862 -228.166)" fill="#58595b"/>
        <path id="Path_19685" data-name="Path 19685" d="M321.345,234.074v-5.119H319.43v-.685h4.6v.685H322.11v5.119Z" transform="translate(-202.948 -228.166)" fill="#58595b"/>
        <path id="Path_19686" data-name="Path 19686" d="M333.22,234.074v-5.8h.769v5.8Z" transform="translate(-211.215 -228.166)" fill="#58595b"/>
        <path id="Path_19687" data-name="Path 19687" d="M337.94,231.09a3.155,3.155,0,0,1,.777-2.263,2.639,2.639,0,0,1,2-.817,2.773,2.773,0,0,1,1.45.385,2.544,2.544,0,0,1,.985,1.069,3.493,3.493,0,0,1,.336,1.558,3.428,3.428,0,0,1-.357,1.578,2.4,2.4,0,0,1-1.009,1.053,2.871,2.871,0,0,1-1.41.356,2.755,2.755,0,0,1-1.466-.4,2.552,2.552,0,0,1-.977-1.082A3.177,3.177,0,0,1,337.94,231.09Zm.789.012a2.328,2.328,0,0,0,.565,1.654,1.969,1.969,0,0,0,2.844,0,2.471,2.471,0,0,0,.561-1.73,2.967,2.967,0,0,0-.24-1.238,1.854,1.854,0,0,0-.7-.821,1.921,1.921,0,0,0-1.037-.292,1.957,1.957,0,0,0-1.4.561A2.5,2.5,0,0,0,338.729,231.1Z" transform="translate(-214.044 -228.01)" fill="#58595b"/>
        <path id="Path_19688" data-name="Path 19688" d="M354.25,234.074v-5.8h.789l3.048,4.558V228.27h.737v5.8h-.789l-3.048-4.562v4.562Z" transform="translate(-223.821 -228.166)" fill="#58595b"/>
      </g>
    </g>
    <g id="Group_44769" data-name="Group 44769" transform="translate(46.96 130.88)">
      <path id="Path_19689" data-name="Path 19689" d="M115.971,145.608a14.841,14.841,0,1,1-14.841-14.728,14.785,14.785,0,0,1,14.841,14.728Z" transform="translate(-86.29 -130.88)" fill="#3b81c4"/>
      <path id="Path_19690" data-name="Path 19690" d="M118.19,151.4a10.805,10.805,0,1,1-10.8-10.723,10.763,10.763,0,0,1,10.8,10.723Z" transform="translate(-92.458 -136.755)" fill="#fff"/>
      <g id="Group_44761" data-name="Group 44761" transform="translate(4.804 4.719)">
        <g id="Group_44760" data-name="Group 44760" clip-path="url(#clip-path)">
          <rect id="Rectangle_9443" data-name="Rectangle 9443" width="22.339" height="21.165" transform="translate(-1.171)" fill="url(#linear-gradient)"/>
        </g>
      </g>
      <g id="Group_44763" data-name="Group 44763" transform="translate(5.483 14.284)">
        <g id="Group_44762" data-name="Group 44762" clip-path="url(#clip-path-2)">
          <rect id="Rectangle_9444" data-name="Rectangle 9444" width="19.099" height="9.906" transform="translate(-0.075)" fill="url(#linear-gradient-2)"/>
        </g>
      </g>
      <g id="Group_44765" data-name="Group 44765" transform="translate(5.984 4.995)">
        <g id="Group_44764" data-name="Group 44764" clip-path="url(#clip-path-3)">
          <rect id="Rectangle_9445" data-name="Rectangle 9445" width="16.162" height="11.832" transform="translate(-0.688 0)" fill="url(#linear-gradient-3)"/>
        </g>
      </g>
      <g id="Group_44766" data-name="Group 44766" transform="translate(16.567 6.322)">
        <path id="Path_19694" data-name="Path 19694" d="M129.095,147.9c.232.156.373.377.308.485-.068.124-.332.072-.593-.1s-.393-.4-.3-.5c.084-.088.348-.04.581.12" transform="translate(-128.149 -147.309)" fill="#fff"/>
        <path id="Path_19695" data-name="Path 19695" d="M127.971,146.738c.124.064.2.148.156.184s-.18.012-.312-.064-.2-.152-.148-.184a.432.432,0,0,1,.3.064" transform="translate(-127.65 -146.663)" fill="#fff"/>
      </g>
      <g id="Group_44768" data-name="Group 44768" transform="translate(4.899 6.113)">
        <g id="Group_44767" data-name="Group 44767" clip-path="url(#clip-path-4)">
          <rect id="Rectangle_9446" data-name="Rectangle 9446" width="19.808" height="17.705" transform="translate(0 0.024)" fill="url(#radial-gradient)"/>
        </g>
      </g>
    </g>
  </g>
</svg>
