<svg xmlns="http://www.w3.org/2000/svg" width="154.162" height="48.599" viewBox="0 0 154.162 48.599">
  <g id="Layer_2" data-name="Layer 2" transform="translate(0.044 -0.021)">
    <g id="Layer_1" data-name="Layer 1" transform="translate(-0.044 0.021)">
      <path id="Path_19579" data-name="Path 19579" d="M49.8,25.452c-.512.559-1.024,1.127-1.565,1.667-.317.326-.643.643-.931.931s-.764.717-1.146,1.062c-.68.615-1.378,1.211-2.1,1.769l-.829.633a11.716,11.716,0,0,1-1.965,1.63A29.653,29.653,0,0,1,36.4,35.659l.4.233C44.083,39.3,51.152,33.5,51.152,25.946h0q0-1-.084-1.956A13.755,13.755,0,0,1,49.8,25.452Z" transform="translate(-2.459 -1.668)" fill="#1f80c3"/>
      <path id="Path_19580" data-name="Path 19580" d="M35.806,10.09c-.41-.251-1.863-1.127-2.636-1.63a10.356,10.356,0,0,1,3.166,3.856c2.133,4.228,1.76,9.918,1.76,14.463,0,2.1,1.118,2.4,2.244,2.4.773,0,3.185-.838,3.185-5.308" transform="translate(-2.238 -0.601)" fill="none"/>
      <path id="Path_19581" data-name="Path 19581" d="M26.577,20.528a5.206,5.206,0,1,0,4.657,4.657,5.206,5.206,0,0,0-4.657-4.657Z" transform="translate(-1.391 -1.428)" fill="none"/>
      <path id="Path_19582" data-name="Path 19582" d="M26.577,20.528a5.206,5.206,0,1,0,4.657,4.657,5.206,5.206,0,0,0-4.657-4.657Z" transform="translate(-1.391 -1.428)" fill="none"/>
      <path id="Path_19583" data-name="Path 19583" d="M35.806,10.09c-.41-.251-1.863-1.127-2.636-1.63a10.356,10.356,0,0,1,3.166,3.856c2.133,4.228,1.76,9.918,1.76,14.463,0,2.1,1.118,2.4,2.244,2.4.773,0,3.185-.838,3.185-5.308" transform="translate(-2.238 -0.601)" fill="none"/>
      <path id="Path_19584" data-name="Path 19584" d="M25.466,51.379a21.8,21.8,0,0,0,15.18-5.7.8.8,0,0,0-.065-1.276l-4.3-3.958a1.024,1.024,0,0,0-1.192,0,20.926,20.926,0,0,1-4.116,2.58,15.515,15.515,0,0,1-10.71.251l.5,7.581a24.568,24.568,0,0,0,4.7.522Z" transform="translate(-1.351 -2.785)" fill="#1f80c3"/>
      <path id="Path_19585" data-name="Path 19585" d="M91.106,11.22A10.9,10.9,0,1,0,102,22.107a10.9,10.9,0,0,0-10.9-10.887Zm0,15.944a5.02,5.02,0,1,1,5.02-4.973A5.02,5.02,0,0,1,91.106,27.164Z" transform="translate(-5.469 -0.791)" fill="#1f80c3"/>
      <path id="Path_19586" data-name="Path 19586" d="M125.676,33.243a4.182,4.182,0,1,1,3.967-4.182A4.079,4.079,0,0,1,125.676,33.243Z" transform="translate(-8.291 -1.729)" fill="#f4ae1c"/>
      <path id="Path_19587" data-name="Path 19587" d="M117.216,12.33l-4.182,13.1-4.172-13.1H102.38l7.413,19.436h6.491L123.7,12.33Z" transform="translate(-6.992 -0.867)" fill="#1f80c3"/>
      <rect id="Rectangle_9440" data-name="Rectangle 9440" width="6.165" height="19.436" transform="translate(123.914 11.156)" fill="#1f80c3"/>
      <path id="Path_19588" data-name="Path 19588" d="M76.856,11.986H71l.2,1.332A9.145,9.145,0,0,0,66.015,11.8a10.682,10.682,0,0,0,0,21.355,10.561,10.561,0,0,0,4.927-1.211v1.1c0,2.57-1.406,4.833-4.563,4.88h-.5a8.7,8.7,0,0,1-2.235-.373c.168,2.049.177,3.725.186,5.821a6.975,6.975,0,0,0,2.505.456c6.24,0,10.468-5.01,10.468-10.859v-3a.11.11,0,0,0,.056.093ZM66.015,27.334a4.824,4.824,0,1,1,3.432-1.4A4.824,4.824,0,0,1,66.015,27.334Z" transform="translate(-3.782 -0.83)" fill="#1f80c3"/>
      <path id="Path_19589" data-name="Path 19589" d="M154.513,11.24a7.106,7.106,0,0,0-5.448,2.4l-.14.075.14-1.769H142.9V31.384h6.165V22.192h0c0-2.645,1.863-5.094,4.507-5.094s4.172,2.449,4.191,5.094h0v9.155h6.175V22.192C163.938,15.412,161.619,11.24,154.513,11.24Z" transform="translate(-9.776 -0.792)" fill="#1f80c3"/>
      <path id="Path_19590" data-name="Path 19590" d="M26.57,31.667h0a2.3,2.3,0,0,0,.4-.047l-.391.047" transform="translate(-1.784 -2.192)" fill="#2f5690"/>
      <path id="Path_19591" data-name="Path 19591" d="M28.106,11.713a1.043,1.043,0,1,1-1.043-1.043,1.043,1.043,0,0,1,1.043,1.043" transform="translate(-1.746 -0.753)" fill="#f4ae1c"/>
      <path id="Path_19592" data-name="Path 19592" d="M30.783.43A6.92,6.92,0,0,0,28.92.16c.624.065,1.239.158,1.863.27" transform="translate(-1.946 -0.031)" fill="#f7ec33"/>
      <path id="Path_19593" data-name="Path 19593" d="M51.7,29.636V29.58h0A.1.1,0,0,0,51.7,29.636Z" transform="translate(-3.51 -2.052)" fill="#1f80c3"/>
      <path id="Path_19594" data-name="Path 19594" d="M43.973,25.677a27.818,27.818,0,0,0,3.874-7.367A.36.36,0,0,0,47.8,18.1c-.047-.075,0,0,0-.056-.149-.568-.326-1.136-.522-1.695a.13.13,0,0,1,0-.056q-.289-.829-.643-1.62h0v-.112c-.233-.522-.484-1.034-.745-1.537h0c-.158-.307-.335-.605-.5-.931-.056-.093-.112-.177-.158-.27l-.531-.643-.2-.289c-.13-.2-.279-.4-.419-.605l-.177-.251c-.2-.279-.41-.549-.624-.82h0A15.921,15.921,0,0,0,42.148,7.89h0l-.112-.121c-.242-.261-.494-.5-.745-.754l-.41-.4h0c0,.075.084.158.121.251,0-.093-.084-.177-.121-.251a24.288,24.288,0,1,0-22.193,41.34c-.3-1.723-1.183-5.765-6.761-11.734l.186.168A17.155,17.155,0,0,1,7.121,24.765c-.14-5.411,2.1-11.539,6.892-14.519C19.172,7.051,27.126,6.912,28.96,13.9a8.093,8.093,0,0,0-2.142-.838,11.958,11.958,0,0,0-8.382,1.22,11.679,11.679,0,0,0-4.75,5.523,8.382,8.382,0,0,0-.335,1,13.346,13.346,0,0,0-.484,3.12c-.168,5.206,3.567,9.835,8.382,11.464a19.194,19.194,0,0,0,5.69.447,23.283,23.283,0,0,0,6.519-1.863c0-.065.056-.1.177-.075a31.962,31.962,0,0,0,5.793-3.12,24.074,24.074,0,0,0,4.545-5.094Zm-19.93,3.809a5.206,5.206,0,1,1,4.243-1.478,5.206,5.206,0,0,1-4.243,1.478ZM35.815,26.2c0-4.545.792-9.732-1.76-14.463-.661-1.229-1.779-3.129-3.027-3.856a18.328,18.328,0,0,1,3.045,1.742c4.573,3.418,7.171,8.074,7.171,13.662,0,4.47-2.412,5.308-3.185,5.308-1.127.009-2.244-.3-2.244-2.393Z" transform="translate(0.044 -0.021)" fill="#1f80c3"/>
      <path id="Path_19595" data-name="Path 19595" d="M35.9,36.5l.177-.075C35.993,36.4,35.909,36.439,35.9,36.5Z" transform="translate(-2.425 -2.522)" fill="none"/>
      <path id="Path_19596" data-name="Path 19596" d="M34.558,34.415A31.962,31.962,0,0,0,40.35,31.3a24.074,24.074,0,0,0,4.573-5.131A27.818,27.818,0,0,0,48.8,18.8a.36.36,0,0,0-.047-.214c-.047-.075,0,0,0-.056-.149-.568-.326-1.136-.522-1.695a.13.13,0,0,1,0-.056q-.289-.829-.643-1.62h0v-.112c-.233-.522-.484-1.034-.745-1.537h0c-.158-.307-.335-.605-.5-.931-.056-.093-.112-.177-.158-.27l-.531-.643-.2-.289c-.13-.2-.279-.4-.419-.605l-.177-.251c-.2-.279-.41-.549-.624-.82h0A15.921,15.921,0,0,0,43.1,8.376h0l-.112-.121c-.242-.261-.494-.5-.745-.754l-.41-.4h0A15.833,15.833,0,0,1,42.6,9.065a1.863,1.863,0,0,0,.075.214,19.883,19.883,0,0,1,.931,2.887,23.515,23.515,0,0,1,.531,6.016c-.3,6.584-1.546,11.52-7.208,13.97-4.107,1.769-13.038.847-17.387-2.561-1.863-1.444-4.759-5.01-5.271-8.317a13.346,13.346,0,0,0-.484,3.12c-.168,5.206,3.567,9.835,8.382,11.464a19.194,19.194,0,0,0,5.69.447,23.282,23.282,0,0,0,6.519-1.863.13.13,0,0,1,.047-.075" transform="translate(-0.906 -0.507)" fill="#f4ae1c"/>
      <path id="Path_19597" data-name="Path 19597" d="M18.7,42.811a16.67,16.67,0,0,1-3.036-1.555,17.3,17.3,0,0,1-2.682-2.2L12.8,38.89c5.588,5.97,6.463,10.011,6.761,11.734l.68.149-.5-7.581C19.394,43.081,19.049,42.95,18.7,42.811Z" transform="translate(-0.838 -2.691)" fill="#f4ae1c"/>
      <path id="Path_19598" data-name="Path 19598" d="M14.25,21.887h0C14.269,21.841,14.269,21.831,14.25,21.887Z" transform="translate(-0.938 -1.521)" fill="#f4ae1c"/>
      <path id="Path_19599" data-name="Path 19599" d="M25.475,30.894a5.206,5.206,0,1,0-4.657-4.657,5.206,5.206,0,0,0,4.657,4.657Z" transform="translate(-1.387 -1.429)" fill="none"/>
      <path id="Path_19600" data-name="Path 19600" d="M49.92,24.15h0L49.8,24.3h0c-.177.224-.391.475-.643.764h0l-.13.149-.075.084-.13.149-.093.1-.13.14-.112.13a1.723,1.723,0,0,1-.13.13c0,.047-.084.1-.13.14l-.121.14a1.2,1.2,0,0,0-.149.158.8.8,0,0,0-.121.13c-.065.056-.121.121-.186.186l-.093.1-.3.307h0c-.1.093-.2.2-.3.3l-.1.093a1.629,1.629,0,0,1-.224.214l-.112.121-.214.2-.112.149-.224.2-.13.121a2.327,2.327,0,0,1-.224.2.8.8,0,0,1-.13.121l-.233.224-.13.112-.27.242-.093.084-.773.661-.112.093-.279.224-.149.121-.251.2-.158.121-.242.2a1.239,1.239,0,0,0-.177.13l-.242.177-.168.13-.261.186-.158.121-.289.2-.14.093-.419.3a31.962,31.962,0,0,1-5.793,3.12l-.177.075a23.283,23.283,0,0,1-6.519,1.863,19.194,19.194,0,0,1-5.737-.475,6.789,6.789,0,0,1-.987-.326C26.387,38.9,32.505,37.8,36.3,36.146L36.631,36c3.26-1.369,7.041-3.138,11.25-3.176a11.511,11.511,0,0,0,2.226-6.854h0a15.052,15.052,0,0,0-.084-1.946Z" transform="translate(-1.452 -1.67)" fill="#8fc641"/>
      <path id="Path_19601" data-name="Path 19601" d="M44.718,31.31l-.158.121Z" transform="translate(-3.02 -2.171)" fill="#8fc641"/>
      <path id="Path_19602" data-name="Path 19602" d="M44.287,31.65a1.239,1.239,0,0,0-.177.13,1.238,1.238,0,0,1,.177-.13Z" transform="translate(-2.989 -2.194)" fill="#8fc641"/>
      <path id="Path_19603" data-name="Path 19603" d="M49.523,26.92l-.093.1Z" transform="translate(-3.355 -1.869)" fill="#8fc641"/>
      <path id="Path_19604" data-name="Path 19604" d="M46.5,29.82l-.093.084Z" transform="translate(-3.147 -2.068)" fill="#8fc641"/>
      <path id="Path_19605" data-name="Path 19605" d="M49.851,26.58a.8.8,0,0,0-.121.13.8.8,0,0,1,.121-.13Z" transform="translate(-3.375 -1.846)" fill="#8fc641"/>
      <path id="Path_19606" data-name="Path 19606" d="M43.838,32l-.168.13Z" transform="translate(-2.959 -2.218)" fill="#8fc641"/>
      <path id="Path_19607" data-name="Path 19607" d="M45.572,30.62l-.112.093Z" transform="translate(-3.082 -2.123)" fill="#8fc641"/>
      <path id="Path_19608" data-name="Path 19608" d="M43.378,32.32l-.158.121Z" transform="translate(-2.928 -2.24)" fill="#8fc641"/>
      <path id="Path_19609" data-name="Path 19609" d="M48.422,28l-.112.121Z" transform="translate(-3.278 -1.943)" fill="#8fc641"/>
      <path id="Path_19610" data-name="Path 19610" d="M45.149,31,45,31.121Z" transform="translate(-3.05 -2.149)" fill="#8fc641"/>
      <path id="Path_19611" data-name="Path 19611" d="M48.772,27.69l-.1.093Z" transform="translate(-3.302 -1.922)" fill="#8fc641"/>
      <path id="Path_19612" data-name="Path 19612" d="M49.11,27.36Z" transform="translate(-3.333 -1.899)" fill="#8fc641"/>
      <path id="Path_19613" data-name="Path 19613" d="M50.141,26.26l-.121.14Z" transform="translate(-3.395 -1.824)" fill="#8fc641"/>
      <path id="Path_19614" data-name="Path 19614" d="M51.991,24.16l-.121.149Z" transform="translate(-3.522 -1.679)" fill="#8fc641"/>
      <path id="Path_19615" data-name="Path 19615" d="M48.075,28.37,48,28.491Z" transform="translate(-3.256 -1.969)" fill="#8fc641"/>
      <path id="Path_19616" data-name="Path 19616" d="M51.8,24.33c-.177.224-.391.475-.643.764C51.411,24.8,51.626,24.554,51.8,24.33Z" transform="translate(-3.473 -1.691)" fill="#8fc641"/>
      <path id="Path_19617" data-name="Path 19617" d="M51.14,25.16l-.13.149Z" transform="translate(-3.463 -1.748)" fill="#8fc641"/>
      <path id="Path_19618" data-name="Path 19618" d="M47.7,28.72l-.13.121Z" transform="translate(-3.227 -1.993)" fill="#8fc641"/>
      <path id="Path_19619" data-name="Path 19619" d="M46.93,29.44l-.13.112Z" transform="translate(-3.174 -2.042)" fill="#8fc641"/>
      <path id="Path_19620" data-name="Path 19620" d="M42.9,32.66l-.14.093Z" transform="translate(-2.896 -2.263)" fill="#8fc641"/>
      <path id="Path_19621" data-name="Path 19621" d="M47.32,29.07a.8.8,0,0,1-.13.121.8.8,0,0,0,.13-.121Z" transform="translate(-3.201 -2.017)" fill="#8fc641"/>
      <path id="Path_19622" data-name="Path 19622" d="M50.42,26a1.723,1.723,0,0,1-.13.13,1.724,1.724,0,0,0,.13-.13Z" transform="translate(-3.414 -1.806)" fill="#8fc641"/>
      <path id="Path_19623" data-name="Path 19623" d="M50.68,25.68l-.13.14Z" transform="translate(-3.432 -1.784)" fill="#8fc641"/>
      <path id="Path_19624" data-name="Path 19624" d="M50.92,25.41l-.13.149Z" transform="translate(-3.448 -1.765)" fill="#8fc641"/>
      <path id="Path_19625" data-name="Path 19625" d="M52,24.149,52.112,24h0Z" transform="translate(-3.531 -1.668)" fill="#8fc641"/>
      <path id="Path_19626" data-name="Path 19626" d="M50.28,26.11c0,.047-.084.1-.13.14S50.233,26.157,50.28,26.11Z" transform="translate(-3.403 -1.813)" fill="#eee6d8"/>
      <path id="Path_19627" data-name="Path 19627" d="M43.2,32.45l-.289.2Z" transform="translate(-2.907 -2.249)" fill="#eee6d8"/>
      <path id="Path_19628" data-name="Path 19628" d="M50.542,25.83l-.112.13Z" transform="translate(-3.423 -1.794)" fill="#eee6d8"/>
      <path id="Path_19629" data-name="Path 19629" d="M49.989,26.41a1.2,1.2,0,0,0-.149.158A1.2,1.2,0,0,1,49.989,26.41Z" transform="translate(-3.383 -1.834)" fill="#eee6d8"/>
      <path id="Path_19630" data-name="Path 19630" d="M44.092,31.79l-.242.177Z" transform="translate(-2.971 -2.204)" fill="#eee6d8"/>
      <path id="Path_19631" data-name="Path 19631" d="M50.783,25.57l-.093.1Z" transform="translate(-3.441 -1.776)" fill="#eee6d8"/>
      <path id="Path_19632" data-name="Path 19632" d="M43.651,32.12l-.261.186Z" transform="translate(-2.94 -2.226)" fill="#eee6d8"/>
      <path id="Path_19633" data-name="Path 19633" d="M42.31,33.058l.419-.3Z" transform="translate(-2.865 -2.27)" fill="#eee6d8"/>
      <path id="Path_19634" data-name="Path 19634" d="M52,24.16Z" transform="translate(-3.531 -1.679)" fill="#eee6d8"/>
      <path id="Path_19635" data-name="Path 19635" d="M50.995,25.32l-.075.084Z" transform="translate(-3.457 -1.759)" fill="#eee6d8"/>
      <path id="Path_19636" data-name="Path 19636" d="M51.16,25.15Z" transform="translate(-3.473 -1.747)" fill="#eee6d8"/>
      <path id="Path_19637" data-name="Path 19637" d="M51.86,24.32Z" transform="translate(-3.522 -1.69)" fill="#eee6d8"/>
      <path id="Path_19638" data-name="Path 19638" d="M48.294,28.15l-.214.2Z" transform="translate(-3.262 -1.954)" fill="#eee6d8"/>
      <path id="Path_19639" data-name="Path 19639" d="M47.554,28.85a2.329,2.329,0,0,1-.224.2,2.329,2.329,0,0,0,.224-.2Z" transform="translate(-3.21 -2.002)" fill="#eee6d8"/>
      <path id="Path_19640" data-name="Path 19640" d="M48.654,27.79A1.63,1.63,0,0,1,48.43,28a1.63,1.63,0,0,0,.224-.214Z" transform="translate(-3.286 -1.929)" fill="#eee6d8"/>
      <path id="Path_19641" data-name="Path 19641" d="M46.353,29.91l-.773.661Z" transform="translate(-3.09 -2.074)" fill="#eee6d8"/>
      <path id="Path_19642" data-name="Path 19642" d="M46.78,29.56l-.27.242Z" transform="translate(-3.154 -2.05)" fill="#eee6d8"/>
      <path id="Path_19643" data-name="Path 19643" d="M49.715,26.72c-.065.056-.121.121-.186.186A2.616,2.616,0,0,1,49.715,26.72Z" transform="translate(-3.36 -1.855)" fill="#eee6d8"/>
      <path id="Path_19644" data-name="Path 19644" d="M47.173,29.2l-.233.224Z" transform="translate(-3.184 -2.026)" fill="#eee6d8"/>
      <path id="Path_19645" data-name="Path 19645" d="M47.984,28.5l-.224.2Z" transform="translate(-3.24 -1.978)" fill="#eee6d8"/>
      <path id="Path_19646" data-name="Path 19646" d="M49.408,27l-.3.307Z" transform="translate(-3.333 -1.875)" fill="#eee6d8"/>
      <path id="Path_19647" data-name="Path 19647" d="M44.542,31.44l-.242.2Z" transform="translate(-3.002 -2.18)" fill="#eee6d8"/>
      <path id="Path_19648" data-name="Path 19648" d="M45.439,30.72l-.279.224Z" transform="translate(-3.061 -2.13)" fill="#eee6d8"/>
      <path id="Path_19649" data-name="Path 19649" d="M44.981,31.09l-.251.2Z" transform="translate(-3.032 -2.156)" fill="#eee6d8"/>
      <path id="Path_19650" data-name="Path 19650" d="M49.078,27.37c-.1.093-.2.2-.3.3Z" transform="translate(-3.31 -1.9)" fill="#eee6d8"/>
      <path id="Path_19651" data-name="Path 19651" d="M44.5,31Z" transform="translate(-3.016 -2.149)" fill="#eee6d8"/>
      <path id="Path_19652" data-name="Path 19652" d="M43.886,31.51,42.34,32.972Z" transform="translate(-2.868 -2.184)" fill="none"/>
      <path id="Path_19653" data-name="Path 19653" d="M44.5,31Z" transform="translate(-3.016 -2.149)" fill="none"/>
      <path id="Path_19654" data-name="Path 19654" d="M50.927,20.311l-.2-.8C49.4,23.943,46.149,28.5,42.349,32.148l1.537-1.462h0L42.34,32.148l1.285-.931.829-.633c.726-.559,1.425-1.155,2.1-1.769.382-.345.773-.7,1.146-1.062s.652-.633.931-.931c.54-.54,1.052-1.108,1.565-1.667a13.755,13.755,0,0,0,1.239-1.462,23.73,23.73,0,0,0-.512-3.381ZM44.361,30.211Z" transform="translate(-2.868 -1.36)" fill="#eee6d8"/>
      <path id="Path_19655" data-name="Path 19655" d="M26.577,20.528a5.206,5.206,0,1,0,4.657,4.657,5.206,5.206,0,0,0-4.657-4.657Z" transform="translate(-1.391 -1.428)" fill="none"/>
      <path id="Path_19656" data-name="Path 19656" d="M28.706,51.43l.652-.093c-.531-1.35-2.552-6.407-2.794-7.031a16.354,16.354,0,0,1-5.588-.6c-.14,0,.075,0,0,0C26.136,45.74,28.064,50.276,28.706,51.43Z" transform="translate(-1.397 -3.023)" fill="#f4ae1c"/>
      <path id="Path_19657" data-name="Path 19657" d="M26.577,20.528a5.206,5.206,0,1,0,4.657,4.657,5.206,5.206,0,0,0-4.657-4.657Z" transform="translate(-1.391 -1.428)" fill="none"/>
      <path id="Path_19658" data-name="Path 19658" d="M29.236,7.23,28.5,10.415a5.773,5.773,0,0,1,.428.391l3.511-2.561a14.649,14.649,0,0,0-3.2-1.015Z" transform="translate(-1.917 -0.516)" fill="#f4ae1c"/>
    </g>
  </g>
</svg>
