<svg xmlns="http://www.w3.org/2000/svg" width="80" height="80" viewBox="0 0 80 80">
  <g id="Group_44697" data-name="Group 44697" transform="translate(-448 -1914)">
    <rect id="Rectangle_9405" data-name="Rectangle 9405" width="80" height="80" transform="translate(448 1914)" fill="#fff"/>
    <g id="Group_44709" data-name="Group 44709" transform="translate(1122.789 1960.015)">
      <path id="Path_16009" data-name="Path 16009" d="M-607.043,8.822a3.912,3.912,0,0,1-2.013,3.9,3.963,3.963,0,0,1-4.934-1.154,3.727,3.727,0,0,1-2.268,3.72,3.691,3.691,0,0,1-4.261-.889,6.95,6.95,0,0,1-.188.71,2.943,2.943,0,0,1-4.759,1.285c-2.285-1.8-4.548-3.625-6.875-5.366a120.128,120.128,0,0,0-10.732-7.366,12.074,12.074,0,0,0-2.748-1.323c-.257-.074-.313-.209-.313-.458q.011-6.894.006-13.787v-9.662c.181.029.328.047.473.075a4.6,4.6,0,0,0,2.568-.378,19.663,19.663,0,0,0,3.276-1.784,10.054,10.054,0,0,1,3.638-1.643,1.719,1.719,0,0,1,.685.014c-.579.462-1.168.911-1.736,1.387a25.526,25.526,0,0,0-4.479,4.413,3.892,3.892,0,0,0-.931,2.228,4.1,4.1,0,0,0,1.114,2.739,7.066,7.066,0,0,0,3.336,2.089,11.159,11.159,0,0,0,9.694-1.438c1.821-1.133,3.555-2.407,5.336-3.6.353-.237.754-.4,1.117-.624.257-.158.415-.094.6.117.933,1.061,1.88,2.11,2.819,3.165q2.827,3.181,5.649,6.367,3.2,3.636,6.38,7.293c1.939,2.216,3.883,4.427,5.81,6.652a1,1,0,0,1,.225.631,3.617,3.617,0,0,1-2.174,3.367,3.687,3.687,0,0,1-4.02-.453C-606.831,8.979-606.915,8.917-607.043,8.822Z" transform="translate(-14.446 -5.785)" fill="#f7a325"/>
      <path id="Path_16010" data-name="Path 16010" d="M-588.667-27.255c0,1.068,0,2.112,0,3.157q0,5.6,0,11.19c0,3.5-.006,7.007,0,10.51,0,.283-.072.415-.354.5-.877.251-1.742.541-2.618.8a.451.451,0,0,1-.383-.1q-4.766-5.436-9.516-10.887c-2.2-2.519-4.408-5.04-6.639-7.536-1.954-2.185-3.956-4.327-5.914-6.509a1.079,1.079,0,0,0-1.33-.305,13.376,13.376,0,0,0-2.807,1.6c-1.526,1.024-3.034,2.079-4.588,3.058a13.93,13.93,0,0,1-3.679,1.674,7.407,7.407,0,0,1-5.478-.7,4.243,4.243,0,0,1-1.719-1.4,1.287,1.287,0,0,1,.153-1.887c.787-.788,1.593-1.565,2.451-2.272q4.343-3.577,8.735-7.094a11.475,11.475,0,0,1,3.375-2.018,10.61,10.61,0,0,1,4.534-.44,27.6,27.6,0,0,1,9.125,2.789c2.046.967,4.056,2.011,6.189,2.788a74.379,74.379,0,0,0,9,2.732C-589.646-27.518-589.178-27.386-588.667-27.255Z" transform="translate(-21.009 0)" fill="#f7a325"/>
      <path id="Path_16011" data-name="Path 16011" d="M-672.78-8.9q0-7.52,0-15.04c0-1.176-.008-2.352-.008-3.528a1.26,1.26,0,0,1,1.315-1.33q3.706-.009,7.412.005a1.262,1.262,0,0,1,1.21,1.14c.016.2.007.4.007.606q0,6.024,0,12.047,0,8.855-.01,17.709c0,2.281-.022,4.562.011,6.843a1.375,1.375,0,0,1-1.46,1.456c-2.364-.024-4.728-.014-7.092-.018a1.261,1.261,0,0,1-1.384-1.394Q-672.781.346-672.78-8.9Z" transform="translate(0 -3.902)" fill="#f7a325"/>
      <path id="Path_16012" data-name="Path 16012" d="M-530.063-7.837q0-3.118,0-6.236,0-6.13,0-12.261a1.263,1.263,0,0,1,1.37-1.418q3.652-.018,7.3.013a1.221,1.221,0,0,1,1.247,1.274c0,2.4-.01,4.8-.009,7.2,0,2.008.02,4.015.021,6.022q0,8.109,0,16.218,0,3.8,0,7.591a1.307,1.307,0,0,1-1.484,1.49c-2.317,0-4.634-.029-6.951.005a1.416,1.416,0,0,1-1.526-1.539c.031-5.227.02-10.455.023-15.683Q-530.062-6.5-530.063-7.837Z" transform="translate(-77.341 -4.468)" fill="#f7a325"/>
    </g>
  </g>
</svg>
