<svg xmlns="http://www.w3.org/2000/svg" xmlns:xlink="http://www.w3.org/1999/xlink" width="1920" height="973" viewBox="0 0 1920 973">
  <defs>
    <clipPath id="clip-path">
      <rect id="Rectangle_9426" data-name="Rectangle 9426" width="1920" height="973" transform="translate(0 3282)" fill="rgba(248,251,255,0.77)"/>
    </clipPath>
  </defs>
  <g id="Group_44787" data-name="Group 44787" transform="translate(0 -3282)">
    <rect id="Rectangle_9425" data-name="Rectangle 9425" width="1920" height="973" transform="translate(0 3282)" fill="rgba(248,251,255,0.61)"/>
    <g id="Mask_Group_12" data-name="Mask Group 12" opacity="0.1" clip-path="url(#clip-path)">
      <g id="Group_44717" data-name="Group 44717" transform="translate(242.557 3317.347)">
        <g id="Group_44716" data-name="Group 44716" transform="translate(-349.908 -313.437)" style="mix-blend-mode: multiply;isolation: isolate">
          <path id="Path_16125" data-name="Path 16125" d="M778.794-206.067a1353.778,1353.778,0,0,1-46.2,155.285c-8.218,22.574-17.336,45.433-33.2,63.469-40.56,46.1-111.54,47.541-172.123,37.525A714.433,714.433,0,0,1,364.715,2.989C313.128-18.92,263.237-47.187,207.965-56.47S88.407-50.83,58.626-3.351c-17.72,28.247-20.543,64-13.619,96.621S67.8,155.908,85.414,184.221c20.167,32.419,43.587,65.24,46.614,103.3,3.134,39.4-18.638,79.695-53.31,98.668-49.324,26.99-109.71,10.062-165.023-.028-70.273-12.819-145.649-12.7-209.85,18.614S-409.981,504.156-403.4,575.283" transform="translate(403.983 429.589)" fill="none" stroke="#fff" stroke-width="1"/>
          <path id="Path_16126" data-name="Path 16126" d="M765.224-214.138a1273.663,1273.663,0,0,1-45.4,151.676C711.708-40.437,702.7-18.156,687.24-.489c-39.52,45.148-108.2,47.634-167.1,39.039Q499.207,35.5,478.49,31.165A692.747,692.747,0,0,1,361.7-4.242c-50.4-20.288-99.256-46.768-153.264-55.292S93.511-52.492,62.058-8.355c-11.831,16.6-19.912,34.5-23.331,53.811a147.108,147.108,0,0,0-1.471,40.4A166.673,166.673,0,0,0,40.212,104.5c5.407,24.912,16.921,49.308,29.52,72.48q1.877,3.45,3.78,6.88c19.706,35.577,40.517,71.953,41.653,111.735,1.1,38.319-19.125,77.284-52.9,95.985C14.224,418.192-44.38,402.95-97.9,394.444q-6.329-1-12.706-1.86c-64.24-8.59-131.411-5.086-188.728,24.554-61.111,31.6-107.79,98.18-100.4,167.292" transform="translate(405.093 427.016)" fill="none" stroke="#f9f9f9" stroke-width="1"/>
          <path id="Path_16127" data-name="Path 16127" d="M751.66-222.209a1197.419,1197.419,0,0,1-44.6,148.068c-8.011,21.476-16.905,43.179-31.962,60.476-38.479,44.2-104.857,47.729-162.084,40.555q-20.335-2.544-40.49-6.34A671.408,671.408,0,0,1,358.69-11.473C309.47-30.14,261.656-54.833,208.911-62.6S98.263-54.222,65.5-13.359C52.288,3.12,41.485,19.373,35.728,38.128a139.128,139.128,0,0,0-6.213,40.306,145.677,145.677,0,0,0,1.192,19.441c3.411,26.336,14.85,52.98,27.212,78.149q1.842,3.747,3.7,7.478c19.245,38.737,37.5,78.506,36.693,120.172-.716,37.152-19.613,74.873-52.48,93.3C-.939,423.205-57.76,409.65-109.489,402.731q-6.117-.819-12.275-1.489c-62.032-6.726-126.324-1.642-180.744,28.264-58.02,31.874-101.752,96.977-93.549,164.074" transform="translate(406.195 424.443)" fill="none" stroke="#f4f4f4" stroke-width="1"/>
          <path id="Path_16128" data-name="Path 16128" d="M738.106-230.279A1124.557,1124.557,0,0,1,694.313-85.821c-7.906,20.929-16.687,42.052-31.341,58.981C625.534,16.4,561.456,20.983,505.907,15.23q-19.741-2.04-39.335-5.294A650.524,650.524,0,0,1,355.691-18.7C307.654-35.75,260.88-58.655,209.4-65.661c-51.46-7.01-106.718,9.6-140.445,47.3C54.269-1.955,40.832,12.6,32.74,30.8A132.481,132.481,0,0,0,21.783,71.014a129.912,129.912,0,0,0-.572,20.235c1.414,27.761,12.781,56.651,24.905,83.817q1.806,4.042,3.62,8.075c18.783,41.9,34.545,84.929,31.732,128.608-2.313,35.924-20.1,72.462-52.066,90.621-45.493,25.848-100.531,13.979-150.468,8.645q-5.905-.631-11.845-1.116c-59.825-4.864-121.237,1.8-172.76,31.972-54.929,32.152-95.713,95.774-86.7,160.856" transform="translate(407.286 421.869)" fill="none" stroke="#eee" stroke-width="1"/>
          <path id="Path_16129" data-name="Path 16129" d="M724.564-238.35A1055.473,1055.473,0,0,1,681.574-97.5c-7.8,20.38-16.473,40.925-30.721,57.484C614.458,2.275,552.68,7.9,498.809,3.569Q479.663,2.036,460.63-.679A629.83,629.83,0,0,1,352.7-25.935c-46.855-15.424-92.59-36.543-142.81-42.789-50.19-6.253-103.1,10.7-137.48,45.357C56.175-7,40.192,5.836,29.761,23.471A127.666,127.666,0,0,0,14.063,63.6a118.641,118.641,0,0,0-2.338,21.028c-.583,29.185,10.712,60.323,22.6,89.486q1.771,4.336,3.538,8.673c18.322,45.057,31.676,91.249,26.773,137.045-3.711,34.657-20.587,70.051-51.653,87.94C-31.233,433.233-84.489,423.05-132.634,419.3q-5.694-.441-11.413-.743c-57.617-3-116.152,5.244-164.775,35.68-51.84,32.431-89.676,94.57-79.855,157.636" transform="translate(408.367 419.296)" fill="none" stroke="#e9e9e9" stroke-width="1"/>
          <path id="Path_16130" data-name="Path 16130" d="M711.034-246.42a989.191,989.191,0,0,1-42.185,137.24c-7.7,19.832-16.258,39.8-30.1,55.988-35.355,41.34-94.834,48.01-147.025,45.1q-18.554-1.027-37.023-3.2A609.429,609.429,0,0,1,349.73-33.166C304.059-46.969,259.36-66.3,210.4-71.788c-48.919-5.5-99.758,11.646-134.514,43.417C58.01-12.029,39.564-.932,26.8,16.142A124.937,124.937,0,0,0,6.355,56.177,111.136,111.136,0,0,0,2.253,78c-2.581,30.609,8.641,64,20.292,95.154q1.735,4.631,3.459,9.269c17.86,48.217,28.9,97.493,21.811,145.483-4.93,33.366-21.074,67.64-51.239,85.258-42.938,25.085-94.412,16.59-140.764,14.427q-5.482-.255-10.982-.371c-55.41-1.14-111.066,8.687-156.791,39.388-48.75,32.709-83.638,93.368-73.011,154.42" transform="translate(409.435 416.723)" fill="none" stroke="#e3e3e3" stroke-width="1"/>
          <path id="Path_16131" data-name="Path 16131" d="M697.519-254.491a926.073,926.073,0,0,1-41.382,133.632c-7.6,19.283-16.04,38.67-29.479,54.491-34.314,40.387-91.492,48.105-142.005,46.615q-17.959-.518-35.868-2.156A589.678,589.678,0,0,1,346.77-40.4c-44.488-12.184-88.147-29.727-135.84-34.455C163.281-79.59,114.279-62.413,79.379-33.375,59.781-17.069,38.951-7.7,23.846,8.813,13.51,20.071,4.462,33.367-1.339,48.759A106.336,106.336,0,0,0-7.205,71.372C-11.781,103.406-.633,139.04,10.78,172.2q1.7,4.924,3.379,9.865c17.4,51.377,26.237,103.683,16.851,153.92-5.992,32.067-21.562,65.229-50.825,82.576-41.661,24.7-91.352,17.894-135.913,17.317q-5.268-.067-10.55,0c-53.2.724-105.981,12.131-148.807,43.1-45.66,32.986-77.6,92.164-66.164,151.2" transform="translate(410.488 414.149)" fill="none" stroke="#dedede" stroke-width="1"/>
          <path id="Path_16132" data-name="Path 16132" d="M684.023-262.561A866.322,866.322,0,0,1,643.444-132.54c-7.5,18.737-15.825,37.545-28.859,53-33.272,39.434-88.15,48.2-136.986,48.13q-17.365-.014-34.711-1.11a570.387,570.387,0,0,1-99.062-15.1C300.522-58.19,257.9-73.946,211.471-77.914,165.094-81.9,112.487-70.6,82.887-38.379,58.952-26.192,38.356-14.468,20.914,1.486,8.978,12.363-1.78,25.585-9.015,41.339a103.676,103.676,0,0,0-7.631,23.407c-6.573,33.458,4.5,71.34,15.679,106.492Q.7,176.459,2.331,181.7c16.938,54.537,23.692,109.845,11.891,162.357-6.915,30.768-22.049,62.818-50.411,79.894-40.383,24.322-88.292,19.2-131.061,20.209q-5.057.121-10.12.373c-50.995,2.586-100.893,15.573-140.821,46.8-42.57,33.264-71.564,90.962-59.318,147.982" transform="translate(411.524 411.576)" fill="none" stroke="#d8d8d8" stroke-width="1"/>
          <path id="Path_16133" data-name="Path 16133" d="M670.545-270.632A809.043,809.043,0,0,1,630.77-144.22c-7.391,18.188-15.609,36.418-28.238,51.5C570.3-54.238,517.724-44.426,470.567-43.074q-16.772.493-33.557-.065A551.452,551.452,0,0,1,340.9-54.858c-42.122-8.942-83.7-22.91-128.871-26.12C166.927-84.2,115.99-73.425,86.414-43.384,60.565-31.854,37.779-21.236,18-5.843,4.465,4.653-8,17.8-16.671,33.921a102.3,102.3,0,0,0-9.394,24.2c-8.571,34.882,2.432,75.01,13.372,112.16q1.626,5.515,3.218,11.06C7,239.037,11.8,297.342-2.546,352.135c-7.719,29.48-22.535,60.408-50,77.212-39.107,23.94-85.232,20.5-126.209,23.1q-4.845.309-9.688.746c-48.787,4.448-95.807,19.017-132.837,50.514-39.481,33.542-65.526,89.759-52.472,144.764" transform="translate(412.54 409.002)" fill="none" stroke="#d2d2d2" stroke-width="1"/>
          <path id="Path_16134" data-name="Path 16134" d="M657.091-278.7A754.617,754.617,0,0,1,618.12-155.9c-7.289,17.64-15.392,35.29-27.618,50-31.19,37.529-81.466,48.388-126.945,51.16q-16.176,1-32.4.981a532.988,532.988,0,0,1-93.151-8.335c-40.939-7.321-81.482-19.5-125.386-21.952-43.836-2.466-93.1,7.792-122.654,35.654C62.2-37.517,37.227-28.006,15.11-13.171-.024-3.055-14.2,10.022-24.3,26.5A102.293,102.293,0,0,0-35.463,51.5C-46.029,87.8-35.1,130.179-24.4,169.324q1.593,5.81,3.138,11.657c16.015,60.856,19.006,122.171,1.969,179.23-8.422,28.208-23.023,58-49.582,74.53-37.83,23.56-82.173,21.811-121.357,25.989q-4.633.5-9.257,1.118c-46.581,6.312-90.722,22.46-124.853,54.222-36.39,33.821-59.487,88.556-45.625,141.546" transform="translate(413.532 406.429)" fill="none" stroke="#cdcdcd" stroke-width="1"/>
          <path id="Path_16135" data-name="Path 16135" d="M643.666-286.773A702.67,702.67,0,0,1,605.5-167.579c-7.185,17.092-15.176,34.164-27,48.509C548.353-82.494,500.377-70.589,456.576-66.4q-15.583,1.507-31.245,2.027a515.276,515.276,0,0,1-90.2-4.951c-39.756-5.7-79.261-16.094-121.9-17.785-42.566-1.709-90.166,8.032-119.689,33.714C63.869-43.18,36.7-34.774,12.25-20.5-4.485-10.764-20.369,2.241-31.908,19.084A103.03,103.03,0,0,0-44.831,44.871c-12.563,37.731-1.705,82.355,8.759,123.5q1.557,6.1,3.057,12.253C-17.462,244.638-16.126,309-36.006,368.289c-9.039,26.957-23.511,55.586-49.17,71.849-36.552,23.178-79.113,23.116-116.505,28.88q-4.421.682-8.826,1.49c-44.373,8.174-85.636,25.9-116.869,57.931-33.3,34.1-53.449,87.352-38.778,138.327" transform="translate(414.495 403.856)" fill="none" stroke="#c7c7c7" stroke-width="1"/>
          <path id="Path_16136" data-name="Path 16136" d="M630.275-294.844a653.6,653.6,0,0,1-37.363,115.586c-7.082,16.544-14.961,33.036-26.376,47.012C537.428-96.622,491.753-83.67,449.63-78.056q-14.989,2.012-30.09,3.073a498.375,498.375,0,0,1-87.24-1.568c-38.573-4.079-77.04-12.685-118.417-13.617C172.588-91.12,126.656-81.9,97.159-58.4,65.569-48.844,36.214-41.542,9.423-27.828-8.91-18.472-26.5-5.54-39.478,11.666A104.452,104.452,0,0,0-54.164,38.245C-68.726,77.4-57.94,124.271-47.714,167.41q1.521,6.4,2.978,12.851c15.092,67.176,14.936,134.647-7.951,196.1-9.584,25.734-24,53.175-48.754,69.166-35.277,22.8-76.054,24.421-111.654,31.771q-4.21.872-8.395,1.864c-42.165,10.036-80.55,29.346-108.885,61.638-30.21,34.377-47.412,86.15-31.934,135.11" transform="translate(415.425 401.282)" fill="none" stroke="#c2c2c2" stroke-width="1"/>
          <path id="Path_16137" data-name="Path 16137" d="M616.925-302.914a606.826,606.826,0,0,1-36.559,111.976c-6.979,16-14.745,31.908-25.756,45.516-28.065,34.671-71.441,48.67-111.887,55.7q-14.4,2.518-28.933,4.119a482.011,482.011,0,0,1-84.285,1.816c-37.39-2.458-74.817-9.277-114.932-9.45-40.025-.2-84.288,8.509-113.759,29.833C67.31-54.507,35.766-48.31,6.639-35.156-13.3-26.181-32.6-13.321-47.006,4.246A106.452,106.452,0,0,0-63.457,31.619c-16.557,40.58-5.845,89.7,4.145,134.833q1.484,6.695,2.9,13.448c14.63,70.336,13.162,140.995-12.912,204.541-10.068,24.537-24.486,50.764-48.34,66.485-34,22.415-72.995,25.726-106.8,34.662q-4,1.058-7.965,2.235c-39.957,11.9-75.462,32.788-100.9,65.347-27.12,34.654-41.375,84.946-25.087,131.891" transform="translate(416.312 398.709)" fill="none" stroke="#bcbcbc" stroke-width="1"/>
          <path id="Path_16138" data-name="Path 16138" d="M603.628-310.985a562.428,562.428,0,0,1-35.757,108.368c-6.876,15.448-14.528,30.782-25.135,44.019-27.025,33.719-68.1,48.765-106.867,57.22q-13.8,3.027-27.778,5.165a466.475,466.475,0,0,1-81.33,5.2c-36.207-.837-72.6-5.868-111.447-5.282-38.753.563-78.477,14.137-110.793,27.891C71.064-54.163,35.369-55.078,3.9-42.484-17.629-33.889-38.641-21.1-54.483-3.172A108.916,108.916,0,0,0-72.7,24.994c-18.554,42-7.914,93.37,1.838,140.5q1.448,6.991,2.816,14.046c14.17,73.5,11.578,147.447-17.872,212.978-10.5,23.374-24.973,48.353-47.926,63.8-32.722,22.034-69.934,27.031-101.95,37.553q-3.786,1.246-7.533,2.607c-37.75,13.762-70.377,36.233-92.915,69.055-24.031,34.933-35.337,83.743-18.241,128.673" transform="translate(417.149 396.136)" fill="none" stroke="#b7b7b7" stroke-width="1"/>
          <path id="Path_16139" data-name="Path 16139" d="M590.392-319.055A520.23,520.23,0,0,1,555.44-214.3c-6.774,14.9-14.314,29.654-24.515,42.524-25.983,32.766-64.757,48.858-101.847,58.734q-13.205,3.533-26.621,6.212a452.159,452.159,0,0,1-78.376,8.583c-35.022.783-70.374-2.46-107.962-1.114-37.483,1.32-76.065,13.936-107.828,25.951C72.662-59.931,35.035-61.846,1.234-49.813-21.9-41.6-44.62-28.884-61.9-10.59A111.655,111.655,0,0,0-81.878,18.368c-20.55,43.429-9.984,97.043-.468,146.172q1.414,7.284,2.737,14.641C-65.9,255.837-69.419,333.209-102.443,400.6c-10.9,22.246-25.459,45.942-47.512,61.121-31.444,21.652-66.874,28.337-97.1,40.443q-3.575,1.434-7.1,2.981c-35.543,15.625-65.291,39.675-84.93,72.764-20.941,35.21-29.3,82.541-11.395,125.455" transform="translate(417.923 393.563)" fill="none" stroke="#b1b1b1" stroke-width="1"/>
          <path id="Path_16140" data-name="Path 16140" d="M577.236-327.126a480.254,480.254,0,0,1-34.149,101.15c-6.669,14.35-14.1,28.527-23.892,41.027C494.252-153.135,457.778-136,422.366-124.7q-12.614,4.038-25.467,7.256a438.716,438.716,0,0,1-75.419,11.967c-33.841,2.406-68.153.948-104.477,3.053-36.213,2.077-73.634,13.654-104.865,24.01-37.823,12.544-77.358,9.8-113.5,21.271C-26.091-49.306-50.52-36.665-69.231-18.008A114.7,114.7,0,0,0-90.976,11.742c-22.548,44.854-12.054,100.714-2.776,151.84q1.379,7.579,2.656,15.238c13.247,79.816,9.013,160.765-27.794,229.853-11.271,21.156-25.946,43.531-47.1,58.439-30.168,21.272-63.814,29.643-92.246,43.335q-3.363,1.622-6.671,3.353c-33.335,17.487-60.206,43.117-76.947,76.471-17.849,35.489-23.261,81.338-4.547,122.237" transform="translate(418.618 390.989)" fill="none" stroke="#ababab" stroke-width="1"/>
          <path id="Path_16141" data-name="Path 16141" d="M564.179-335.2a442.374,442.374,0,0,1-33.345,97.539c-6.567,13.8-13.881,27.4-23.273,39.533-23.9,30.861-58.076,49.046-91.808,61.765q-12.018,4.544-24.31,8.3A426.545,426.545,0,0,1,318.979-112.7c-32.656,4.025-65.931,4.356-100.993,7.219-34.942,2.834-71.168,13.3-101.9,22.07C76.056-71.987,34.625-75.383-3.85-64.469c-26.334,7.454-52.472,20.023-72.616,39.041A118.029,118.029,0,0,0-99.976,5.116C-124.52,51.4-114.1,109.5-105.059,162.625q1.343,7.874,2.576,15.836C-89.7,261.436-94.43,346.14-135.235,416.75c-11.62,20.106-26.435,41.121-46.685,55.757-28.89,20.889-60.754,30.947-87.394,46.225q-3.151,1.81-6.241,3.726c-31.128,19.349-55.119,46.561-68.962,80.179-14.759,35.767-17.223,80.136,2.3,119.019" transform="translate(419.212 388.416)" fill="none" stroke="#a6a6a6" stroke-width="1"/>
          <path id="Path_16142" data-name="Path 16142" d="M551.25-343.267a406.57,406.57,0,0,1-32.54,93.93c-6.465,13.256-13.666,26.274-22.653,38.036-22.86,29.909-54.734,49.141-86.789,63.28q-11.425,5.053-23.155,9.348A415.284,415.284,0,0,1,316.6-119.936c-31.473,5.646-63.709,7.764-97.507,11.386-33.672,3.593-68.653,12.872-98.934,20.131C77.926-78.294,34.6-82.152-6.215-71.8c-27.932,7.074-55.78,19.57-77.359,38.951A121.561,121.561,0,0,0-108.848-1.509c-26.541,47.7-16.193,108.058-7.388,163.177q1.306,8.168,2.5,16.433c12.322,86.136,7.31,174.8-37.714,246.726-11.957,19.1-26.922,38.71-46.271,53.075-27.613,20.509-57.695,32.253-82.542,49.117q-2.94,2-5.81,4.1c-28.92,21.211-50.032,50-60.977,83.888-11.671,36.044-11.185,78.932,9.145,115.8" transform="translate(419.679 385.842)" fill="none" stroke="#a0a0a0" stroke-width="1"/>
          <path id="Path_16143" data-name="Path 16143" d="M538.482-351.338a372.608,372.608,0,0,1-31.737,90.322c-6.361,12.707-13.448,25.147-22.031,36.54-21.818,28.957-51.392,49.234-81.768,64.794q-10.831,5.559-22,10.4a405.676,405.676,0,0,1-66.555,22.12c-30.29,7.267-61.486,11.173-94.023,15.553-32.4,4.351-66.072,12.387-95.968,18.19C79.974-84.8,34.732-88.92-8.417-79.126c-29.533,6.693-59.089,19.118-82.1,38.861a125.208,125.208,0,0,0-27.038,32.13c-28.539,49.127-18.264,111.731-9.7,168.845q1.27,8.465,2.415,17.03c11.862,89.295,6.791,182.162-42.674,255.163-12.29,18.138-27.408,36.3-45.857,50.393-26.335,20.127-54.635,33.558-77.69,52.006q-2.728,2.186-5.378,4.47a165.042,165.042,0,0,0-52.993,87.6c-8.58,36.323-5.149,77.729,15.99,112.583" transform="translate(419.985 383.269)" fill="none" stroke="#9b9b9b" stroke-width="1"/>
          <path id="Path_16144" data-name="Path 16144" d="M525.917-359.408A340.756,340.756,0,0,1,494.983-272.7a252.569,252.569,0,0,1-21.41,35.045c-20.777,28-48.051,49.328-76.75,66.309q-10.236,6.063-20.843,11.44a397.412,397.412,0,0,1-63.6,25.5c-29.107,8.888-59.267,14.581-90.538,19.721-31.13,5.108-63.417,11.851-93,16.25C82.256-91.5,35.067-95.688-10.42-86.455c-31.132,6.313-62.4,18.664-86.845,38.772a129.058,129.058,0,0,0-28.8,32.923c-30.534,50.552-20.333,115.4-12,174.514q1.236,8.76,2.334,17.627c11.4,92.456,6.486,189.782-47.634,263.6a246.064,246.064,0,0,1-45.443,47.711c-25.058,19.746-51.575,34.864-72.838,54.9q-2.516,2.372-4.947,4.842c-24.506,24.936-39.861,56.89-45.009,91.3-5.49,36.6.889,76.527,22.836,109.364" transform="translate(420.09 380.696)" fill="none" stroke="#959595" stroke-width="1"/>
          <path id="Path_16145" data-name="Path 16145" d="M513.594-367.479a310.586,310.586,0,0,1-30.131,83.1,276.656,276.656,0,0,1-20.789,33.548C442.939-223.776,417.965-201.4,390.944-183q-9.642,6.572-19.688,12.486a390.57,390.57,0,0,1-60.644,28.888c-27.924,10.509-57.044,17.989-87.054,23.888-29.859,5.865-60.673,11.274-90.038,14.308-48.687,5.033-97.875.976-145.7,9.649C-44.91-87.85-77.884-75.571-103.767-55.1a133.045,133.045,0,0,0-30.567,33.717c-32.531,51.976-22.4,119.074-14.31,180.182q1.2,9.055,2.255,18.224c10.939,95.616,6.385,197.686-52.6,272.038a296.112,296.112,0,0,1-45.028,45.03c-23.78,19.365-48.515,36.168-67.986,57.788q-2.3,2.56-4.517,5.213c-22.3,26.8-34.774,60.334-37.023,95.013-2.4,36.879,6.927,75.324,29.682,106.147" transform="translate(419.951 378.122)" fill="none" stroke="#909090" stroke-width="1"/>
          <path id="Path_16146" data-name="Path 16146" d="M501.552-375.549c-16,79.254-67.893,148.929-134.737,194.417s-147.614,67.987-228.331,72.7c-50.727,2.96-101.978-.789-152.139,7.325s-101.073,30.429-128.662,73.1c-34.529,53.4-24.473,122.746-16.616,185.851,12.918,103.774,12.736,219.95-55.383,299.3-33.929,39.521-81.935,65.96-111.834,108.613-41.453,59.138-38.236,145.75,7.49,201.649" transform="translate(419.531 375.549)" fill="none" stroke="#8a8a8a" stroke-width="1"/>
        </g>
        <g id="Group_44717-2" data-name="Group 44717" transform="translate(147.363 615.717)" style="mix-blend-mode: multiply;isolation: isolate">
          <path id="Path_16147" data-name="Path 16147" d="M-26.936,722.14a1353.976,1353.976,0,0,1,102.582-125.4c16.3-17.649,33.536-35.215,55.136-45.725,55.217-26.864,121.246-.783,173.263,31.849A714.448,714.448,0,0,1,435.753,689.19c39.125,40.129,74.232,85.469,121.631,115.374s112.464,40.964,158.269,8.668c27.253-19.216,43.662-51.107,49.871-83.869s3.161-66.581-2.154-99.5c-6.085-37.69-15.015-77.009-3.111-113.284,12.322-37.553,47.965-66.317,87.274-70.431,55.921-5.852,105.086,33.082,152.213,63.748,59.872,38.959,129.448,67.959,200.762,63.86s143.374-47.722,164.765-115.876" transform="translate(26.936 -291.79)" fill="none" stroke="#fff" stroke-width="1"/>
          <path id="Path_16148" data-name="Path 16148" d="M-21.336,735.982A1251.844,1251.844,0,0,1,79.833,613.059c16.119-17.229,33.169-34.336,54.4-44.679,42.637-20.771,91.733-10.213,135.741,10.233a373.22,373.22,0,0,1,34.617,18.459,696.281,696.281,0,0,1,130.6,101.274c38.959,38.435,73.918,82.277,120.827,111.078,26.3,16.149,57.472,27.208,88.168,29.193,26.727,1.716,53.237-3.608,75.406-18.766a103.81,103.81,0,0,0,11.271-8.912c21.743-19.756,34.948-48.155,40.732-77.239a218.535,218.535,0,0,0,3.641-28.3c1.617-24.665-.287-49.63-3.119-74.017-4.451-38.728-10.386-78.393,3.012-114.591,13.306-35.951,47.484-63.9,85.856-68.115,54.6-5.994,102.768,30.7,148.854,59.207q5.45,3.371,11,6.622c55.941,32.729,119.255,55.433,183.573,50.223,68.571-5.548,137.34-48.943,157.206-115.55" transform="translate(28.722 -291.002)" fill="none" stroke="#f9f9f9" stroke-width="1"/>
          <path id="Path_16149" data-name="Path 16149" d="M-15.737,752.247A1158.658,1158.658,0,0,1,84.021,631.8c15.942-16.81,32.8-33.459,53.658-43.633,41.876-20.428,89.987-10.906,133.3,8.213A369.7,369.7,0,0,1,305.132,613.7a678.318,678.318,0,0,1,129.5,96.222c38.792,36.741,73.632,79.047,120.02,106.78,27.306,16.325,59.287,27.853,90.919,30.334,27.477,2.133,54.97-2.88,77.96-18.145a104.736,104.736,0,0,0,11.727-9.037c22.651-20.134,36.18-49.4,42.408-79.4a239.173,239.173,0,0,0,4.1-29.115c2.072-25.347.921-51.024-.9-76.016-2.817-39.763-5.808-79.722,9.136-115.9,14.187-34.344,47-61.493,84.438-65.8,53.27-6.135,100.449,28.309,145.495,54.667q5.328,3.118,10.749,6.113c54.623,30.158,115.892,50.293,177.639,43.72,65.828-7,131.305-50.165,149.648-115.226" transform="translate(30.507 -292.636)" fill="none" stroke="#f4f4f4" stroke-width="1"/>
          <path id="Path_16150" data-name="Path 16150" d="M-10.137,768.789A1074.021,1074.021,0,0,1,88.208,650.821c15.766-16.391,32.437-32.581,52.919-42.587,41.114-20.085,88.239-11.6,130.849,6.192a366.149,366.149,0,0,1,33.7,16.185,660.56,660.56,0,0,1,128.4,91.171c38.627,35.047,73.373,75.784,119.215,102.483,28.316,16.491,61.1,28.5,93.668,31.472,28.229,2.549,56.7-2.152,80.516-17.522a105.873,105.873,0,0,0,12.184-9.161c23.559-20.513,37.412-50.649,44.084-81.555a262.607,262.607,0,0,0,4.561-29.93c2.526-26.029,2.127-52.419,1.311-78.017-1.183-40.8-1.288-81.009,15.258-117.2,14.969-32.739,46.521-59.081,83.022-63.488,51.944-6.276,98.131,25.925,142.136,50.127q5.2,2.863,10.494,5.6c53.307,27.588,112.53,45.152,171.706,37.217,63.086-8.449,125.273-51.387,142.091-114.9" transform="translate(32.292 -294.548)" fill="none" stroke="#eee" stroke-width="1"/>
          <path id="Path_16151" data-name="Path 16151" d="M-4.537,785.331A996.069,996.069,0,0,1,92.4,669.841c15.589-15.971,32.071-31.7,52.181-41.541,40.352-19.741,86.492-12.29,128.4,4.17a363.829,363.829,0,0,1,33.24,15.049,643.139,643.139,0,0,1,127.295,86.119c38.461,33.354,73.136,72.492,118.41,98.186,29.335,16.651,62.916,29.143,96.419,32.613,28.979,2.966,58.437-1.426,83.071-16.9a106.877,106.877,0,0,0,12.64-9.285c24.466-20.891,38.644-51.9,45.759-83.713a287.367,287.367,0,0,0,5.021-30.747c2.981-26.711,3.335-53.815,3.527-80.016.451-41.835,3.169-82.261,21.381-118.506,15.65-31.144,46.04-56.669,81.6-61.174,50.619-6.418,95.812,23.539,138.777,45.588q5.08,2.605,10.241,5.092c51.989,25.017,109.168,40.013,165.772,30.714,60.342-9.9,119.238-52.609,134.533-114.576" transform="translate(34.078 -296.46)" fill="none" stroke="#e9e9e9" stroke-width="1"/>
          <path id="Path_16152" data-name="Path 16152" d="M1.062,801.873A924.9,924.9,0,0,1,96.582,688.86c15.412-15.552,31.705-30.824,51.442-40.494,39.589-19.4,84.744-12.983,125.957,2.15,11.283,4.107,22.273,8.861,32.78,13.914A625.91,625.91,0,0,1,432.955,745.5c38.293,31.659,72.917,69.169,117.6,93.889,30.364,16.8,64.731,29.788,99.169,33.752,29.731,3.382,60.171-.7,85.627-16.281a107.864,107.864,0,0,0,13.1-9.41c25.375-21.269,39.874-53.143,47.435-85.871a315.433,315.433,0,0,0,5.481-31.563C804.8,702.62,805.907,674.8,807.106,648c2.084-42.872,7.561-83.49,27.5-119.81,16.234-29.565,45.559-54.256,80.186-58.861,49.294-6.559,93.5,21.154,135.418,41.048q4.957,2.35,9.986,4.582c50.673,22.447,105.807,34.873,159.84,24.209,57.6-11.347,113.2-53.83,126.974-114.25" transform="translate(35.863 -298.372)" fill="none" stroke="#e3e3e3" stroke-width="1"/>
          <path id="Path_16153" data-name="Path 16153" d="M6.662,818.416a858.91,858.91,0,0,1,94.107-110.535c15.235-15.133,31.339-29.946,50.7-39.448,38.827-19.055,83-13.675,123.512.129,11.1,3.743,21.938,8.111,32.321,12.777a609.124,609.124,0,0,1,125.09,76.014c38.127,29.966,72.718,65.82,116.8,89.594,31.4,16.935,66.544,30.431,101.919,34.892,30.481,3.8,61.9.029,88.181-15.661a109.105,109.105,0,0,0,13.554-9.533c26.281-21.648,41.1-54.392,49.109-88.03,2.552-10.753,4.451-21.605,5.943-32.379,3.889-28.075,5.691-56.608,7.955-84.014,3.627-43.917,11.884-84.71,33.628-121.116,16.727-28.007,45.077-51.846,78.769-56.547,47.968-6.7,91.176,18.769,132.058,36.507q4.835,2.1,9.732,4.073c49.356,19.877,102.445,29.734,153.907,17.706,54.857-12.8,107.17-55.052,119.417-113.925" transform="translate(37.649 -300.284)" fill="none" stroke="#dedede" stroke-width="1"/>
          <path id="Path_16154" data-name="Path 16154" d="M12.262,834.958A798.131,798.131,0,0,1,104.955,726.9c15.06-14.713,30.975-29.068,49.965-38.4,38.065-18.709,81.249-14.366,121.064-1.891,10.928,3.379,21.6,7.362,31.864,11.641A592.674,592.674,0,0,1,431.835,769.21c37.961,28.271,72.535,62.444,115.991,85.3,32.445,17.062,68.36,31.078,104.668,36.033,31.233,4.215,63.639.756,90.737-15.04a110.467,110.467,0,0,0,14.01-9.658c27.19-22.026,42.337-55.639,50.785-90.187,2.689-11.028,4.737-22.162,6.4-33.2,4.344-28.755,6.895-58,10.17-86.013,5.257-44.957,16.136-85.929,39.753-122.422,17.133-26.475,44.594-49.432,77.351-54.231,46.644-6.842,88.858,16.382,128.7,31.966q4.712,1.842,9.479,3.562c48.038,17.306,99.082,24.594,147.973,11.2,52.113-14.246,101.137-56.274,111.859-113.6" transform="translate(39.435 -302.196)" fill="none" stroke="#d8d8d8" stroke-width="1"/>
          <path id="Path_16155" data-name="Path 16155" d="M17.861,851.5a741.978,741.978,0,0,1,91.282-105.58c14.882-14.294,30.608-28.191,49.225-37.358,37.3-18.366,79.48-14.977,118.619-3.912,10.743,3.037,21.269,6.612,31.4,10.5a576.534,576.534,0,0,1,122.884,65.911c37.794,26.576,72.366,59.045,115.185,81,33.5,17.174,70.175,31.722,107.42,37.172,31.984,4.63,65.372,1.484,93.292-14.42a111.539,111.539,0,0,0,14.467-9.782c28.1-22.4,43.568-56.885,52.461-92.345,2.826-11.305,5.022-22.719,6.862-34.012,4.8-29.437,8.1-59.4,12.384-88.013,6.888-46,20.31-87.162,45.876-123.726,17.462-24.975,44.113-47.021,75.933-51.918,45.319-6.983,86.54,14,125.339,27.427q4.59,1.587,9.225,3.052c46.722,14.736,95.72,19.453,142.04,4.7,49.371-15.7,95.1-57.5,104.3-113.276" transform="translate(41.22 -304.109)" fill="none" stroke="#d2d2d2" stroke-width="1"/>
          <path id="Path_16156" data-name="Path 16156" d="M23.461,868.043a689.9,689.9,0,0,1,89.87-103.1c14.705-13.874,30.241-27.312,48.485-36.312,36.542-18.023,77.733-15.664,116.174-5.932,10.565,2.675,20.934,5.861,30.944,9.368a560.782,560.782,0,0,1,121.781,60.859c37.628,24.884,72.209,55.624,114.38,76.7,34.559,17.274,71.989,32.367,110.168,38.313,32.735,5.047,67.106,2.21,95.848-13.8a112.86,112.86,0,0,0,14.923-9.907c29.006-22.782,44.8-58.133,54.136-94.5,2.965-11.581,5.31-23.274,7.322-34.827,5.253-30.12,9.307-60.8,14.6-90.013,8.521-47.036,24.408-88.423,52-125.03,17.72-23.51,43.633-44.609,74.517-49.6,43.993-7.124,84.221,11.611,121.98,22.886q4.467,1.333,8.972,2.544c45.4,12.164,92.357,14.312,136.106-1.807,46.627-17.145,89.069-58.717,96.743-112.95" transform="translate(43.005 -306.02)" fill="none" stroke="#cdcdcd" stroke-width="1"/>
          <path id="Path_16157" data-name="Path 16157" d="M29.06,884.586a641.8,641.8,0,0,1,88.457-100.624c14.53-13.455,29.876-26.434,47.748-35.266,35.778-17.679,75.987-16.352,113.726-7.954,10.389,2.312,20.6,5.112,30.487,8.232a545.526,545.526,0,0,1,120.678,55.807c37.461,23.189,72.062,52.182,113.573,72.405,35.63,17.357,73.8,33.012,112.919,39.452,33.486,5.463,68.839,2.937,98.4-13.178A114.3,114.3,0,0,0,770.43,893.43c29.913-23.16,46.032-59.38,55.813-96.66,3.1-11.859,5.6-23.832,7.783-35.645,5.708-30.8,10.515-62.195,16.814-92.011,10.157-48.076,28.424-89.729,58.122-126.337,17.913-22.08,43.152-42.2,73.1-47.29,42.668-7.266,81.9,9.225,118.621,18.347q4.344,1.078,8.718,2.034c44.088,9.593,89,9.173,130.174-8.31,43.884-18.6,83.034-59.939,89.185-112.625" transform="translate(44.791 -307.933)" fill="none" stroke="#c7c7c7" stroke-width="1"/>
          <path id="Path_16158" data-name="Path 16158" d="M34.66,901.128A597.063,597.063,0,0,1,121.7,802.981c14.352-13.034,29.509-25.554,47.008-34.219,35.016-17.336,74.242-17.042,111.281-9.975,10.211,1.948,20.266,4.362,30.026,7.1A530.779,530.779,0,0,1,429.6,816.638c37.3,21.5,71.926,48.721,112.769,68.11,36.706,17.425,75.618,33.656,115.668,40.591,34.237,5.881,70.573,3.666,100.958-12.557a115.528,115.528,0,0,0,15.836-10.155c30.82-23.538,47.263-60.628,57.488-98.818,3.242-12.136,5.882-24.388,8.244-36.461,6.162-31.483,11.783-63.576,19.028-94.011,11.89-49.091,32.358-91.091,64.245-127.642C941.884,525,966.5,505.91,995.513,500.718c41.342-7.407,79.585,6.841,115.261,13.807q4.222.823,8.465,1.523c42.769,7.024,85.633,4.033,124.239-14.813,41.142-20.045,77-61.161,81.628-112.3" transform="translate(46.576 -309.845)" fill="none" stroke="#c2c2c2" stroke-width="1"/>
          <path id="Path_16159" data-name="Path 16159" d="M40.26,917.67A555.405,555.405,0,0,1,125.891,822c14.176-12.616,29.144-24.677,46.269-33.173,34.255-16.993,72.5-17.733,108.836-11.995,10.034,1.584,19.931,3.611,29.567,5.959a516.53,516.53,0,0,1,118.473,45.7c37.128,19.8,71.8,45.241,111.962,63.812,37.793,17.476,77.433,34.3,118.417,41.731,34.989,6.3,72.308,4.393,103.514-11.936a116.879,116.879,0,0,0,16.292-10.28c31.729-23.916,48.494-61.874,59.164-100.976,3.379-12.412,6.168-24.945,8.7-37.278,6.617-32.164,12.991-64.97,21.244-96.01,13.523-50.127,36.209-92.528,70.369-128.946,18.145-19.345,42.188-37.374,70.263-42.662,40.017-7.549,77.267,4.454,111.9,9.266q4.1.566,8.21,1.013c41.453,4.454,82.272-1.107,118.307-21.318,38.4-21.493,70.966-62.382,74.07-111.975" transform="translate(48.362 -311.757)" fill="none" stroke="#bcbcbc" stroke-width="1"/>
          <path id="Path_16160" data-name="Path 16160" d="M45.859,934.212a516.646,516.646,0,0,1,84.22-93.19c14-12.2,28.777-23.8,45.531-32.127C209.1,792.245,246.363,790.467,282,794.879c9.858,1.22,19.6,2.861,29.11,4.822a502.934,502.934,0,0,1,117.369,40.651c36.962,18.108,71.679,41.743,111.156,59.516,38.887,17.505,79.247,34.946,121.169,42.871,35.74,6.713,74.041,5.12,106.069-11.316a118.306,118.306,0,0,0,16.748-10.4c32.636-24.295,49.726-63.123,60.84-103.135,3.516-12.689,6.454-25.5,9.163-38.094,7.07-32.845,14.2-66.365,23.458-98.01,15.158-51.164,39.976-94.057,76.492-130.252,18.2-18.039,41.706-34.96,68.846-40.348,38.691-7.69,74.948,2.069,108.543,4.725q3.974.313,7.957.5c40.135,1.883,78.909-6.246,112.373-27.821,35.655-22.944,64.932-63.6,66.511-111.65" transform="translate(50.147 -313.669)" fill="none" stroke="#b7b7b7" stroke-width="1"/>
          <path id="Path_16161" data-name="Path 16161" d="M51.459,950.756a480.58,480.58,0,0,1,82.806-90.714c13.823-11.777,28.412-22.92,44.792-31.083,32.73-16.305,69.01-19.121,103.943-16.036,9.68.855,19.263,2.112,28.65,3.688a489.766,489.766,0,0,1,116.266,35.6c36.8,16.415,71.565,38.228,110.351,55.218,39.988,17.517,81.061,35.592,123.917,44.011,36.491,7.128,75.775,5.848,108.625-10.695a119.763,119.763,0,0,0,17.2-10.528c33.545-24.673,50.958-64.37,62.515-105.292,3.656-12.964,6.741-26.057,9.624-38.909,7.525-33.528,15.405-67.76,25.674-100.01,16.792-52.2,43.659-95.695,82.616-131.556,18.227-16.78,41.225-32.549,67.428-38.035,37.366-7.831,72.629-.317,105.184.186q3.852.057,7.7-.007c38.819-.687,75.547-11.387,106.44-34.325,32.913-24.394,58.9-64.826,58.954-111.326" transform="translate(51.933 -315.581)" fill="none" stroke="#b1b1b1" stroke-width="1"/>
          <path id="Path_16162" data-name="Path 16162" d="M57.059,967.3a446.82,446.82,0,0,1,81.393-88.235C152.1,867.7,166.5,857.019,182.5,849.025c31.968-15.962,67.267-19.818,101.5-18.057,9.5.489,18.928,1.361,28.191,2.551a477.393,477.393,0,0,1,115.164,30.547c36.63,14.72,71.454,34.7,109.544,50.921,41.1,17.5,82.877,36.236,126.668,45.151,37.242,7.545,77.507,6.575,111.181-10.075a121.084,121.084,0,0,0,17.659-10.652c34.453-25.05,52.19-65.616,64.191-107.45,3.793-13.241,7.027-26.613,10.084-39.725,7.98-34.21,16.611-69.154,27.889-102.008,18.424-53.237,47.263-97.461,88.738-132.862,18.233-15.563,40.745-30.137,66.011-35.721,36.04-7.972,70.311-2.7,101.825-4.354q3.729-.2,7.448-.517c37.5-3.258,72.186-16.527,100.507-40.828,30.169-25.844,52.865-66.048,51.4-111" transform="translate(53.718 -317.493)" fill="none" stroke="#ababab" stroke-width="1"/>
          <path id="Path_16163" data-name="Path 16163" d="M62.658,983.84a415.44,415.44,0,0,1,79.982-85.757c13.469-10.939,27.68-21.165,43.314-28.991,31.2-15.618,65.522-20.519,99.051-20.077,9.327.123,18.593.611,27.732,1.414A465.776,465.776,0,0,1,426.8,875.923c36.464,13.026,71.35,31.155,108.738,46.624,42.218,17.468,84.692,36.882,129.418,46.292,37.994,7.962,79.241,7.3,113.737-9.454a122.57,122.57,0,0,0,18.116-10.778c35.361-25.429,53.42-66.863,65.868-109.608,3.93-13.517,7.313-27.17,10.544-40.542,8.434-34.892,17.818-70.548,30.1-104.008,20.06-54.272,50.789-99.371,94.863-134.167,18.227-14.39,40.263-27.725,64.594-33.407,34.716-8.114,67.992-5.087,98.466-8.894q3.606-.451,7.194-1.026c36.186-5.828,68.823-21.666,94.574-47.332,27.426-27.292,46.83-67.268,43.838-110.674" transform="translate(55.504 -319.405)" fill="none" stroke="#a6a6a6" stroke-width="1"/>
          <path id="Path_16164" data-name="Path 16164" d="M68.258,1000.382A386.131,386.131,0,0,1,146.826,917.1c13.293-10.518,27.315-20.285,42.575-27.944,30.443-15.275,63.779-21.222,96.6-22.1,9.15-.244,18.26-.139,27.273.278a454.921,454.921,0,0,1,112.959,20.444c36.3,11.332,71.247,27.6,107.933,42.327,43.344,17.406,86.505,37.526,132.168,47.431,38.744,8.377,80.974,8.029,116.292-8.834a124.145,124.145,0,0,0,18.572-10.9c36.269-25.807,54.652-68.111,67.543-111.766,4.069-13.794,7.6-27.725,11-41.358,8.889-35.572,19.026-71.944,32.317-106.007C933.76,643.365,966.31,597.232,1013.053,563.2c18.217-13.262,39.781-25.313,63.176-31.093,33.391-8.255,65.674-7.473,95.105-13.434q3.484-.706,6.941-1.537c34.868-8.4,65.461-26.806,88.64-53.836,24.684-28.743,40.8-68.491,36.28-110.35" transform="translate(57.289 -321.318)" fill="none" stroke="#a0a0a0" stroke-width="1"/>
          <path id="Path_16165" data-name="Path 16165" d="M73.858,1016.925a358.705,358.705,0,0,1,77.156-80.8,262.178,262.178,0,0,1,41.835-26.9c29.681-14.932,62.03-21.983,94.16-24.119,8.972-.628,17.925-.889,26.814-.859a444.933,444.933,0,0,1,111.855,15.391c36.13,9.638,71.148,24.024,107.127,38.032,44.48,17.315,88.321,38.17,134.918,48.571,39.5,8.794,82.708,8.756,118.847-8.212A125.7,125.7,0,0,0,805.6,967c37.176-26.186,55.884-69.359,69.219-113.924,4.207-14.071,7.885-28.282,11.465-42.174,9.343-36.254,20.233-73.338,34.532-108.006,23.328-56.346,57.634-103.693,107.11-136.777,18.214-12.178,39.3-22.9,61.758-28.777,32.065-8.4,63.357-9.86,91.746-17.975q3.361-.961,6.688-2.046a165.049,165.049,0,0,0,82.707-60.34c21.94-30.193,34.764-69.714,28.722-110.026" transform="translate(59.075 -323.23)" fill="none" stroke="#9b9b9b" stroke-width="1"/>
          <path id="Path_16166" data-name="Path 16166" d="M79.457,1033.467A333.1,333.1,0,0,1,155.2,955.143a277.753,277.753,0,0,1,41.1-25.852c28.919-14.588,60.281-22.675,91.713-26.14,8.793-.992,17.59-1.639,26.355-2A435.791,435.791,0,0,1,425.117,911.5c35.965,7.945,71.049,20.44,106.322,33.734,45.622,17.2,90.135,38.816,137.668,49.71,40.246,9.211,84.441,9.484,121.4-7.59A127.153,127.153,0,0,0,809.994,976.2c38.085-26.563,57.116-70.6,70.894-116.081,4.346-14.348,8.172-28.839,11.925-42.992,9.8-36.936,21.441-74.732,36.747-110.006,24.962-57.381,60.972-106.134,113.233-138.082a240.147,240.147,0,0,1,60.34-26.464c30.74-8.538,61.038-12.244,88.387-22.514q3.239-1.217,6.433-2.556c32.234-13.541,58.737-37.088,76.775-66.844,19.2-31.642,28.729-70.935,21.164-109.7" transform="translate(60.86 -325.142)" fill="none" stroke="#959595" stroke-width="1"/>
          <path id="Path_16167" data-name="Path 16167" d="M85.057,1050.01a309.1,309.1,0,0,1,74.331-75.848,297.714,297.714,0,0,1,40.358-24.806c28.156-14.245,58.535-23.367,89.267-28.161q12.924-2.034,25.9-3.131a427.564,427.564,0,0,1,109.65,5.289c35.8,6.25,70.951,16.842,105.515,29.437,46.775,17.044,91.949,39.46,140.417,50.85,41,9.628,86.175,10.212,123.958-6.97A128.653,128.653,0,0,0,814.39,985.4c38.992-26.943,58.348-71.854,72.57-118.24,4.483-14.625,8.458-29.4,12.385-43.807,10.253-37.618,22.646-76.127,38.962-112.005,26.6-58.419,64.273-108.781,119.357-139.387,18.253-10.143,38.337-18.078,58.922-24.151,29.415-8.679,58.719-14.63,85.028-27.055q3.116-1.47,6.18-3.065c30.917-16.111,55.374-42.227,70.84-73.348,16.454-33.091,22.7-72.156,13.607-109.374" transform="translate(62.646 -327.054)" fill="none" stroke="#909090" stroke-width="1"/>
          <path id="Path_16168" data-name="Path 16168" d="M90.657,1066.552C136.023,999.624,210.79,955.389,290.015,939.24s162.417-5.715,238.692,21.108c47.935,16.858,93.764,40.106,143.169,51.991s104.984,10.96,146.91-17.748c52.471-35.927,69.971-103.777,87.092-165.021,28.155-100.714,73.181-207.808,166.654-254.7,46.56-23.354,101.052-29.206,145.1-57.006,61.074-38.545,91.55-119.681,70.956-188.9" transform="translate(64.431 -328.966)" fill="none" stroke="#8a8a8a" stroke-width="1"/>
        </g>
        <g id="Group_44718" data-name="Group 44718" transform="translate(-573.573 -287.233)" style="mix-blend-mode: multiply;isolation: isolate">
          <path id="Path_16169" data-name="Path 16169" d="M-573.573-184.969A1353.476,1353.476,0,0,1-450.057-289.812c19.212-14.42,39.336-28.59,62.478-35.031,59.156-16.465,119.4,21.1,164.678,62.574A714.33,714.33,0,0,1-112.528-133.934C-81.282-87.408-54.927-36.479-13.7,1.485S89.534,62.058,140.412,38.552c30.272-13.985,52.163-42.395,64.18-73.5s15.117-64.918,15.826-98.256c.812-38.17-.88-78.455,17.371-111.989,18.893-34.715,59.139-56.579,98.544-53.536,56.059,4.33,97.4,51.492,138.221,90.154,51.865,49.118,115.069,90.191,185.954,99.02s149.63-21.082,182.96-84.26" transform="translate(573.573 364.249)" fill="none" stroke="#8a8a8a" stroke-width="1"/>
          <path id="Path_16170" data-name="Path 16170" d="M-570.066-173.78a1251.823,1251.823,0,0,1,121.68-102.661c18.961-14.041,38.818-27.792,61.563-34.136,45.685-12.741,92.072,6.5,131.669,34.546a373.077,373.077,0,0,1,30.72,24.4,696.151,696.151,0,0,1,110.2,123.168C-82.846-83.633-56.366-34.206-15.422,2.582,7.538,23.211,36.2,39.709,66.037,47.2c25.978,6.509,53.014,6.054,77.553-4.859a103.72,103.72,0,0,0,12.694-6.733C181.233,20.1,199.343-5.457,210.276-33.021A218.208,218.208,0,0,0,218.961-60.2c6.039-23.969,8.669-48.868,10.282-73.367,2.606-38.894,3.922-78.98,23.629-112.167,19.572-32.962,58.23-54.293,96.733-51.516,54.781,3.951,95.547,48.726,135.735,85.082q4.754,4.3,9.628,8.5c49.121,42.281,107.3,76.032,171.505,82.509,68.447,6.908,143.915-23.373,175.467-85.3" transform="translate(574.691 368.782)" fill="none" stroke="#909090" stroke-width="1"/>
          <path id="Path_16171" data-name="Path 16171" d="M-566.559-162.588a1158.711,1158.711,0,0,1,119.845-100.48c18.712-13.659,38.3-26.994,60.648-33.24,44.873-12.541,90.478,5.5,129.628,32.117a369.533,369.533,0,0,1,30.473,23.2,678.191,678.191,0,0,1,110.024,118C-84.41-79.858-57.771-31.961-17.146,3.682,6.768,24.664,36.145,41.771,66.811,49.915,93.454,56.968,121.4,57,146.767,46.128a104.9,104.9,0,0,0,13.165-6.774c25.91-15.719,44.5-42.068,56.03-70.447a239.461,239.461,0,0,0,9.285-27.9c6.609-24.558,10.108-50.022,12.821-74.933,4.4-39.62,8.665-79.462,29.887-112.347,20.15-31.223,57.321-52.008,94.921-49.5,53.5,3.573,93.7,45.962,133.252,80.011q4.677,4.026,9.468,7.95c48.29,39.514,104.923,70.369,166.843,75.04,66.01,4.988,138.2-25.662,167.975-86.348" transform="translate(575.81 373.313)" fill="none" stroke="#959595" stroke-width="1"/>
          <path id="Path_16172" data-name="Path 16172" d="M-563.052-149.393a1073.986,1073.986,0,0,1,118.009-98.3c18.463-13.28,37.781-26.2,59.731-32.345,44.063-12.341,88.884,4.505,127.587,29.687a366.6,366.6,0,0,1,30.227,22A660.59,660.59,0,0,1-117.646-115.517c31.672,41.438,58.5,87.775,98.777,122.3C6.008,28.113,36.09,45.836,67.587,54.635c27.306,7.6,56.163,8.108,82.356-2.716a105.712,105.712,0,0,0,13.637-6.813c26.872-15.928,45.932-43.071,58.068-72.267a262.31,262.31,0,0,0,9.885-28.618c7.179-25.147,11.547-51.176,15.359-76.5,6.195-40.345,13.342-79.913,36.145-112.527,20.628-29.5,56.414-49.722,93.11-47.475,52.225,3.2,91.848,43.2,130.766,74.94q4.6,3.753,9.311,7.4c47.458,36.749,102.542,64.707,162.178,67.573,63.575,3.068,132.486-27.952,160.484-87.39" transform="translate(576.928 375.841)" fill="none" stroke="#9b9b9b" stroke-width="1"/>
          <path id="Path_16173" data-name="Path 16173" d="M-559.544-135.133a996.312,996.312,0,0,1,116.17-96.116c18.215-12.9,37.263-25.4,58.817-31.448,43.251-12.14,87.291,3.51,125.546,27.259a363.511,363.511,0,0,1,29.98,20.8A643.142,643.142,0,0,1-119.353-106.977C-87.54-67.234-60.491-22.484-20.593,10.955,5.259,32.622,36.035,50.967,68.362,60.422c27.969,8.143,57.737,9.137,84.758-1.643a106.919,106.919,0,0,0,14.108-6.854C195.061,35.788,214.6,7.848,227.333-22.164A287.078,287.078,0,0,0,237.817-51.5c7.75-25.735,12.985-52.33,17.9-78.067,7.988-41.069,17.954-80.342,42.4-112.707,21.009-27.811,55.5-47.437,91.3-45.454,50.946,2.817,90,40.433,128.28,69.868q4.526,3.48,9.153,6.855c46.626,33.983,100.163,59.045,157.516,60.107,61.138,1.146,126.771-30.241,152.99-88.435" transform="translate(578.046 377.303)" fill="none" stroke="#a0a0a0" stroke-width="1"/>
          <path id="Path_16174" data-name="Path 16174" d="M-556.037-120.872A924.821,924.821,0,0,1-441.7-214.805c17.965-12.517,36.745-24.6,57.9-30.553,42.438-11.941,85.7,2.512,123.5,24.83,10.357,6.075,20.309,12.734,29.734,19.6a625.986,625.986,0,0,1,109.5,102.5C-89.1-60.388-61.811-17.25-22.317,15.126c26.836,22,58.3,40.973,91.455,51.083,28.632,8.689,59.31,10.164,87.159-.572a107.848,107.848,0,0,0,14.579-6.894c28.793-16.343,48.806-45.081,62.143-75.908A315.194,315.194,0,0,0,244.1-47.222c8.319-26.323,14.424-53.484,20.438-79.635,9.782-41.793,22.494-80.758,48.662-112.885,21.3-26.153,54.6-45.151,89.486-43.434,49.669,2.439,88.147,37.668,125.8,64.8q4.453,3.209,9,6.308c45.793,31.217,97.783,53.385,152.853,52.64,58.7-.773,121.057-32.531,145.5-89.478" transform="translate(579.165 378.764)" fill="none" stroke="#a6a6a6" stroke-width="1"/>
          <path id="Path_16175" data-name="Path 16175" d="M-552.53-106.61a859,859,0,0,1,112.5-91.75c17.715-12.136,36.226-23.8,56.987-29.658,41.627-11.739,84.1,1.518,121.463,22.4,10.248,5.686,20.115,11.936,29.487,18.4A609.141,609.141,0,0,1-122.766-89.893C-90.668-53.542-63.11-12.038-24.042,19.3,3.79,41.617,35.924,61.231,69.914,72c29.3,9.233,60.885,11.193,89.561.5a109.145,109.145,0,0,0,15.049-6.933c29.755-16.552,50.242-46.086,64.181-77.728,4.448-10.116,8.274-20.449,11.684-30.777,8.889-26.913,15.808-54.653,22.977-81.2,11.487-42.542,26.967-81.177,54.92-113.066,21.5-24.531,53.688-42.865,87.675-41.413,48.39,2.061,86.3,34.9,123.309,59.726q4.378,2.934,8.839,5.761c44.961,28.452,95.4,47.722,148.189,45.172,56.265-2.694,115.342-34.822,138.005-90.521" transform="translate(580.283 380.224)" fill="none" stroke="#ababab" stroke-width="1"/>
          <path id="Path_16176" data-name="Path 16176" d="M-549.023-92.348A798.25,798.25,0,0,1-438.36-181.916c17.466-11.756,35.708-23.006,56.071-28.763,40.815-11.539,82.509.521,119.421,19.974,10.138,5.294,19.921,11.136,29.24,17.2a592.744,592.744,0,0,1,109.157,92.16c32.239,34.654,60.083,74.5,98.706,104.816C3.071,46.1,35.869,66.363,70.689,77.786c29.96,9.778,62.458,12.221,91.963,1.571a110.27,110.27,0,0,0,15.52-6.974c30.716-16.76,51.678-47.09,66.218-79.548,4.634-10.364,8.656-20.945,12.284-31.5,9.459-27.5,17.243-55.81,25.516-82.769,13.277-43.272,31.368-81.61,61.178-113.245,21.628-22.951,52.779-40.58,85.864-39.393,47.112,1.683,84.446,32.139,120.823,54.653q4.3,2.661,8.681,5.213c44.13,25.686,93.023,42.06,143.527,37.7,53.828-4.615,109.627-37.111,130.511-91.564" transform="translate(581.401 381.684)" fill="none" stroke="#b1b1b1" stroke-width="1"/>
          <path id="Path_16177" data-name="Path 16177" d="M-545.516-76.13a742.09,742.09,0,0,1,108.827-87.385c17.216-11.375,35.19-22.208,55.155-27.867,40-11.338,80.878-.4,117.381,17.545,10.018,4.925,19.727,10.339,28.994,16A576.461,576.461,0,0,1-126.178-70.849C-93.8-37.892-65.647.278-27.489,29.6,2.363,52.53,35.814,73.452,71.464,85.53c30.625,10.323,64.033,13.249,94.364,2.642a111.372,111.372,0,0,0,15.992-7.014C213.5,64.19,234.935,33.064,250.076-.21c4.819-10.612,9.038-21.441,12.884-32.217,10.029-28.089,18.68-56.967,28.055-84.337,15.069-44,35.7-82.068,67.437-113.423,21.679-21.417,51.871-38.294,84.051-37.372,45.834,1.3,82.6,29.374,118.338,49.581q4.228,2.39,8.524,4.666c43.3,22.92,90.641,36.4,138.864,30.237,51.391-6.535,103.911-39.4,123.019-92.607" transform="translate(582.519 381.188)" fill="none" stroke="#b7b7b7" stroke-width="1"/>
          <path id="Path_16178" data-name="Path 16178" d="M-542.008-58.444a689.885,689.885,0,0,1,106.99-85.2c16.967-11,34.671-21.41,54.239-26.972,39.192-11.138,79.284-1.389,115.338,15.115,9.91,4.537,19.535,9.542,28.748,14.8A560.795,560.795,0,0,1-127.884-58.885C-95.361-27.623-66.891,8.85-29.213,37.188,1.666,60.411,35.758,82.007,72.239,94.741c31.289,10.867,65.608,14.277,96.766,3.713A112.73,112.73,0,0,0,185.468,91.4c32.639-17.177,54.551-49.1,70.294-83.19,5.005-10.857,9.419-21.935,13.483-32.936,10.6-28.679,20.12-58.122,30.595-85.9,16.863-44.728,39.953-82.571,73.7-113.6,21.668-19.929,50.962-36.009,82.24-35.353,44.556.927,80.746,26.611,115.852,44.51q4.154,2.117,8.366,4.12c42.466,20.153,88.262,30.735,134.2,22.77,48.956-8.456,98.2-41.692,115.528-93.651" transform="translate(583.638 379.226)" fill="none" stroke="#bcbcbc" stroke-width="1"/>
          <path id="Path_16179" data-name="Path 16179" d="M-538.5-40.76a641.69,641.69,0,0,1,105.154-83.021c16.718-10.614,34.153-20.612,53.324-26.076,38.38-10.939,77.691-2.381,113.3,12.687,9.8,4.146,19.341,8.743,28.5,13.595A545.477,545.477,0,0,1-129.591-46.919C-96.925-17.354-68.12,17.4-30.936,44.781.979,68.28,35.7,90.562,73.015,103.951c31.952,11.412,67.181,15.3,99.167,4.785a114.049,114.049,0,0,0,16.934-7.094c33.6-17.385,55.987-50.1,72.331-85.01,5.19-11.1,9.8-22.431,14.083-33.656C286.7-46.29,297.09-76.3,308.663-104.494c18.661-45.456,44.141-83.13,79.954-113.783,21.6-18.488,50.053-33.723,80.428-33.331,43.28.549,78.9,23.845,113.368,39.439q4.079,1.842,8.209,3.571c41.634,17.388,85.881,25.073,129.537,15.3,46.519-10.375,92.483-43.981,108.035-94.694" transform="translate(584.756 377.264)" fill="none" stroke="#c2c2c2" stroke-width="1"/>
          <path id="Path_16180" data-name="Path 16180" d="M-534.994-23.076a597.065,597.065,0,0,1,103.318-80.839c16.467-10.233,33.635-19.814,52.409-25.18,37.569-10.738,76.1-3.374,111.255,10.258,9.692,3.757,19.147,7.945,28.255,12.395A530.789,530.789,0,0,1-131.3-34.955c32.807,27.87,61.96,60.894,98.635,87.329C.3,76.135,35.648,99.118,73.79,113.162c32.615,11.958,68.755,16.333,101.569,5.856a115.466,115.466,0,0,0,17.406-7.134c34.561-17.594,57.422-51.11,74.368-86.83C272.509,13.7,277.316,2.128,281.816-9.321c11.739-29.855,23.056-60.409,35.671-89.037,20.549-46.143,48.257-83.762,86.212-113.962,21.488-17.1,49.146-31.438,78.617-31.311,42,.17,77.046,21.081,110.882,34.367q4,1.571,8.05,3.024c40.8,14.622,83.5,19.411,124.875,7.837,44.081-12.3,86.769-46.271,100.542-95.738" transform="translate(585.874 375.301)" fill="none" stroke="#c7c7c7" stroke-width="1"/>
          <path id="Path_16181" data-name="Path 16181" d="M-531.487-5.391A555.43,555.43,0,0,1-430-84.048c16.218-9.852,33.115-19.017,51.493-24.285C-341.755-118.87-304-112.7-269.3-100.5c9.584,3.368,18.953,7.147,28.009,11.194A516.483,516.483,0,0,1-133-22.989C-100.053,3.184-70.54,34.458-34.385,59.968c34.021,24,69.977,47.7,108.951,62.4,33.279,12.5,70.329,17.361,103.969,6.928a116.8,116.8,0,0,0,17.878-7.173c35.522-17.8,58.858-52.113,76.4-88.65,5.563-11.6,10.567-23.423,15.284-35.1,12.309-30.444,24.5-61.563,38.21-90.605,22.343-46.866,52.3-84.481,92.47-114.14,21.336-15.756,48.237-29.152,76.806-29.292,40.722-.207,75.2,18.316,108.4,29.3q3.929,1.3,7.893,2.478c39.969,11.855,81.122,13.748,120.211.368,41.646-14.217,81.053-48.56,93.049-96.782" transform="translate(586.992 373.339)" fill="none" stroke="#cdcdcd" stroke-width="1"/>
          <path id="Path_16182" data-name="Path 16182" d="M-527.979,12.293a516.623,516.623,0,0,1,99.644-76.474c15.97-9.472,32.6-18.219,50.578-23.39,35.945-10.336,72.918-5.364,107.173,5.4,9.476,2.977,18.759,6.349,27.762,9.993A502.858,502.858,0,0,1-134.709-11.025c33.091,24.478,62.975,53.986,98.6,78.587,35.092,24.231,71.646,48.666,111.45,64.02,33.942,13.049,71.9,18.39,106.371,8a118.21,118.21,0,0,0,18.349-7.214c36.484-18.01,60.294-53.118,78.442-90.47,5.748-11.846,10.948-23.919,15.884-35.816,12.879-31.033,25.933-62.717,40.749-92.172,24.136-47.591,56.284-85.3,98.73-114.321,21.156-14.461,47.327-26.865,74.993-27.27,39.444-.587,73.346,15.552,105.911,24.223q3.854,1.025,7.735,1.931c39.138,9.09,78.742,8.087,115.549-7.1,39.208-16.138,75.338-50.85,85.557-97.824" transform="translate(588.111 371.377)" fill="none" stroke="#d2d2d2" stroke-width="1"/>
          <path id="Path_16183" data-name="Path 16183" d="M-524.472,29.977a480.523,480.523,0,0,1,97.808-74.291c15.721-9.091,32.08-17.421,49.663-22.494,35.134-10.135,71.328-6.362,105.131,2.973,9.368,2.586,18.566,5.551,27.515,8.793A489.756,489.756,0,0,1-136.416.941c33.233,22.781,63.5,50.508,98.583,74.215C-1.659,99.6,35.482,124.782,76.117,140.793c34.607,13.593,73.476,19.418,108.773,9.071a119.64,119.64,0,0,0,18.82-7.254c37.445-18.217,61.732-54.123,80.479-92.291,5.934-12.093,11.33-24.413,16.483-36.535,13.45-31.621,27.373-63.871,43.289-93.739,25.931-48.316,60.2-86.252,104.988-114.5,20.954-13.216,46.42-24.581,73.182-25.249,38.166-.965,71.5,12.786,103.426,19.152q3.779.752,7.577,1.382c38.306,6.325,76.362,2.425,110.885-14.565,36.771-18.059,69.624-53.141,78.063-98.868" transform="translate(589.229 369.415)" fill="none" stroke="#d8d8d8" stroke-width="1"/>
          <path id="Path_16184" data-name="Path 16184" d="M-520.965,47.663a446.871,446.871,0,0,1,95.972-72.11c15.472-8.711,31.562-16.624,48.748-21.6,34.322-9.935,69.739-7.363,103.09.543,9.26,2.2,18.372,4.753,27.269,7.593A477.475,477.475,0,0,1-138.121,12.905C-104.747,33.991-74.1,59.923-39.556,82.748-2.288,107.378,35.426,133.337,76.891,150c35.271,14.138,75.052,20.446,111.176,10.142a121.214,121.214,0,0,0,19.291-7.292c38.405-18.427,63.168-55.13,82.517-94.112,6.12-12.341,11.711-24.909,17.083-37.255,14.019-32.209,28.812-65.025,45.828-95.307,27.725-49.04,64.065-87.337,111.246-114.679,20.74-12.019,45.511-22.3,71.37-23.23,36.888-1.343,69.646,10.023,100.941,14.081q3.7.479,7.419.835c37.475,3.56,73.983-3.236,106.223-22.033,34.335-19.978,63.909-55.43,70.571-99.911" transform="translate(590.347 367.453)" fill="none" stroke="#dedede" stroke-width="1"/>
          <path id="Path_16185" data-name="Path 16185" d="M-517.458,65.347A415.427,415.427,0,0,1-423.322-4.581c15.221-8.33,31.043-15.826,47.832-20.7,33.509-9.736,68.149-8.367,101.048-1.886,9.152,1.8,18.178,3.955,27.022,6.392A465.721,465.721,0,0,1-139.827,24.871c33.516,19.389,64.561,43.512,98.546,65.471,38.376,24.8,76.652,51.55,118.948,68.872,35.935,14.683,76.626,21.474,113.576,11.214a122.741,122.741,0,0,0,19.763-7.333c39.367-18.635,64.6-56.133,84.555-95.932,6.3-12.587,12.093-25.405,17.683-37.975,14.589-32.8,30.249-66.179,48.366-96.874,29.519-49.764,67.876-88.581,117.5-114.858,20.523-10.867,44.6-20.01,69.559-21.21,35.61-1.721,67.8,7.258,98.455,9.009q3.628.206,7.262.289c36.643.793,71.6-8.9,101.558-29.5,31.9-21.9,58.2-57.721,63.08-100.955" transform="translate(591.466 365.491)" fill="none" stroke="#e3e3e3" stroke-width="1"/>
          <path id="Path_16186" data-name="Path 16186" d="M-513.951,83.031a386.136,386.136,0,0,1,92.3-67.746C-406.679,7.336-391.126.258-374.734-4.523c32.7-9.534,66.56-9.372,99.007-4.313q13.565,2.115,26.775,5.191A454.889,454.889,0,0,1-141.534,36.837c33.659,17.692,65.1,39.992,98.529,61.1,39.494,24.937,78.32,52.512,121.447,70.489,36.6,15.229,78.2,22.5,115.978,12.285a124.16,124.16,0,0,0,20.234-7.372c40.328-18.844,66.04-57.138,86.592-97.752,6.49-12.835,12.475-25.9,18.283-38.7C334.688,3.5,351.218-30.444,370.435-61.551c31.314-50.49,71.648-90,123.762-115.039,20.31-9.76,43.695-17.723,67.748-19.188,34.331-2.1,65.945,4.493,95.969,3.937q3.553-.065,7.1-.259c35.811-1.973,69.223-14.562,96.9-36.968,29.462-23.82,52.48-60.011,55.587-102" transform="translate(592.584 363.529)" fill="none" stroke="#e9e9e9" stroke-width="1"/>
          <path id="Path_16187" data-name="Path 16187" d="M-510.443,100.715A358.729,358.729,0,0,1-419.98,35.152a262.24,262.24,0,0,1,46-18.912C-342.092,6.906-309,5.805-277.013,9.5c8.937,1,17.79,2.359,26.529,3.991A444.872,444.872,0,0,1-143.24,48.8c33.8,16,65.649,36.461,98.512,56.728C-4.1,130.582,35.26,159,79.218,177.635c37.262,15.774,79.772,23.53,118.379,13.356a125.635,125.635,0,0,0,20.7-7.412c41.289-19.052,67.477-58.143,88.63-99.572,6.675-13.082,12.856-26.4,18.883-39.415C341.542,10.616,358.942-23.9,379.259-55.418c33.107-51.214,75.388-91.6,130.021-115.217,20.11-8.7,42.785-15.439,65.935-17.169,33.055-2.477,64.1,1.729,93.485-1.133q3.478-.34,6.946-.807a165.039,165.039,0,0,0,92.233-44.435c27.026-25.74,46.765-62.3,48.093-103.041" transform="translate(593.702 361.566)" fill="none" stroke="#eee" stroke-width="1"/>
          <path id="Path_16188" data-name="Path 16188" d="M-506.936,118.4a333.106,333.106,0,0,1,88.627-63.38A277.74,277.74,0,0,1-373.224,37c31.075-9.133,63.383-11.432,94.925-9.171,8.828.611,17.6,1.562,26.282,2.791A435.783,435.783,0,0,1-144.945,60.767c33.941,14.3,66.2,32.917,98.494,52.355,41.773,25.143,81.657,54.436,126.445,73.724,37.925,16.318,81.347,24.557,120.781,14.428a127.3,127.3,0,0,0,21.176-7.453c42.251-19.261,68.913-59.148,90.667-101.394C319.478,79.1,325.856,65.536,332.1,52.293c16.3-34.565,34.566-69.641,55.984-101.576,34.9-51.939,79.113-93.4,136.279-115.4a240.085,240.085,0,0,1,64.124-15.148c31.775-2.855,62.245-1.035,91-6.205q3.4-.613,6.788-1.353c34.148-7.506,64.463-25.886,87.571-51.9,24.589-27.662,41.051-64.59,40.6-104.084" transform="translate(594.821 359.604)" fill="none" stroke="#f4f4f4" stroke-width="1"/>
          <path id="Path_16189" data-name="Path 16189" d="M-503.429,136.084a309.137,309.137,0,0,1,86.791-61.2,297.812,297.812,0,0,1,44.17-17.121c30.264-8.933,61.79-12.428,92.883-11.6q13.078.33,26.036,1.591a427.552,427.552,0,0,1,106.9,24.975c34.083,12.6,66.75,29.362,98.476,47.984,42.934,25.2,83.325,55.4,128.945,75.341,38.588,16.863,82.92,25.586,123.181,15.5a128.706,128.706,0,0,0,21.648-7.492c43.212-19.469,70.349-60.153,92.705-103.214,7.047-13.575,13.62-27.387,20.082-40.856,16.868-35.151,36-70.794,58.523-103.141,36.7-52.663,82.837-95.4,142.537-115.577,19.784-6.684,40.969-10.866,62.313-13.128,30.5-3.232,60.394-3.8,88.512-11.276q3.329-.884,6.631-1.9c33.316-10.271,62.083-31.548,82.907-59.37,22.151-29.581,35.336-66.879,33.109-105.127" transform="translate(595.939 357.642)" fill="none" stroke="#f9f9f9" stroke-width="1"/>
          <path id="Path_16190" data-name="Path 16190" d="M-499.922,153.768C-443.23,96.121-361.71,66.094-280.872,64.5S-120.086,88.169-49.9,128.309c44.109,25.226,85,56.359,131.444,76.958s101.287,29.713,147.7,9.038c58.09-25.876,87.539-89.457,115.425-146.609,45.857-93.984,109.458-191.2,209.856-220.464,50.007-14.575,104.662-10.5,153-29.9,67.024-26.9,111.633-101.208,103.86-173.008" transform="translate(597.057 355.68)" fill="none" stroke="#fff" stroke-width="1"/>
        </g>
        <g id="Group_44719" data-name="Group 44719" transform="translate(-122.665 -137.546)" style="mix-blend-mode: multiply;isolation: isolate">
          <path id="Path_16191" data-name="Path 16191" d="M-230.951,952.131c-8.565-69.215,59.76-127.7,128.669-138.453s138.032,11.436,206.309,25.66,145.1,18.923,202.132-21.216c72.914-51.318,89.784-159.272,164.8-207.469,58.466-37.568,134.572-26.327,194.475,1.621,33.87,15.8,62.666,42.385,95.039,60.9,146.813,83.977,156.712,255.591,281.44,281.183,135.051,27.709,208.33-38.136,233.819-83.8,32.65-58.5,87.087-210.281-46.305-315.761-54.191-42.851-107.691-88.52-147.556-144.942-59.686-84.474-59.283-213.62,17.044-283.424C1151.222,78.588,1231.564,61.1,1267.1-.24c23.884-41.226,20.619-94.376.088-137.371s-56.294-77-95.149-104.572" transform="translate(231.68 242.183)" fill="none" stroke="#8a8a8a" stroke-width="1"/>
          <path id="Path_16192" data-name="Path 16192" d="M-228.694,953.962c-5.912-71.2,62.04-132.721,133.005-144.96,69.266-11.948,139.532,10.069,207.816,25.772,67.479,15.516,142.4,22.554,199.249-13.932C384,774.152,404.419,671.68,479.339,624.115c59.681-37.689,134.579-30.685,195.91-6.253C710.481,631.9,741.7,656.954,775.6,675.737,919.334,755.362,931.153,921.4,1053.169,946.642c131.241,27.093,204.118-35.221,230.6-80.159,33.562-56.946,85.5-203.188-40.542-307.465-51.964-42.989-103.5-89.537-142.72-145.612-57.927-82.471-58.453-207.02,13.586-276.216,49.841-47.874,127.3-67.379,162.682-127.925,24.288-41.391,22.792-93.781,4.853-137.1-18.105-43.717-51.129-79.652-88.465-109.254" transform="translate(232.517 243.808)" fill="none" stroke="#909090" stroke-width="1"/>
          <path id="Path_16193" data-name="Path 16193" d="M-226.407,955.791c-3.262-73.187,64.315-137.718,137.34-151.465,69.625-13.108,141.028,8.687,209.324,25.885C186.938,847,259.952,856.4,316.625,823.563,388.952,781.5,412.818,684.34,487.753,637.577c60.81-37.949,134.659-35.088,197.343-14.125C721.734,635.7,755.32,659.258,790.769,678.3c140.51,75.468,154.387,235.739,273.689,260.627,127.43,26.479,199.89-32.307,227.385-76.513,34.455-55.4,83.929-196.193-34.776-299.169-49.756-43.162-99.3-90.553-137.885-146.284-56.166-80.466-57.626-200.46,10.126-269.007,47.38-47.935,121.941-69.429,157.176-129.181,24.692-41.556,24.98-93.223,9.619-136.825-15.673-44.481-45.964-82.309-81.781-113.937" transform="translate(233.325 245.433)" fill="none" stroke="#959595" stroke-width="1"/>
          <path id="Path_16194" data-name="Path 16194" d="M-224.087,957.621c-.609-75.175,66.592-142.7,141.677-157.973,69.985-14.24,142.522,7.288,210.831,26,65.88,18.046,136.994,29.815,193.486.634C393.94,788.849,421.317,697.1,496.2,651.04c61.989-38.13,134.8-39.547,198.778-22,38.079,10.445,73.979,32.528,110.99,51.818,137.173,71.487,153.224,225.813,269.814,250.349,123.619,25.863,195.647-29.392,224.167-72.869,35.327-53.852,82.373-189.306-29.01-290.871-47.565-43.373-94.954-91.679-133.049-146.955-54.182-78.618-56.806-193.946,6.667-261.8C1189.481,110.688,1261,87.152,1296.226,28.276c24.995-41.781,27.19-92.7,14.382-136.552-13.224-45.279-40.8-84.963-75.1-118.618" transform="translate(234.1 247.058)" fill="none" stroke="#9b9b9b" stroke-width="1"/>
          <path id="Path_16195" data-name="Path 16195" d="M-221.742,959.45C-219.7,882.289-152.873,811.8-75.727,794.972c70.346-15.346,144.014,5.873,212.337,26.112,65.079,19.28,134.293,33.446,190.6,7.918,71.741-32.807,102.636-119.131,177.46-164.5,63.173-38.3,135-44.066,200.213-29.872,39.552,8.609,77.719,29.264,116.307,48.79,133.729,67.668,152.059,215.888,265.937,240.072,119.81,25.248,191.391-26.479,220.952-69.224,36.176-52.312,80.842-182.536-23.246-282.576-45.387-43.621-90.712-92.726-128.213-147.626-52.361-76.656-55.995-187.481,3.207-254.591,42.473-48.146,111.054-73.632,146.161-131.693,25.374-41.963,29.427-92.212,19.148-136.28-10.755-46.111-35.631-87.62-68.412-123.3" transform="translate(234.849 248.683)" fill="none" stroke="#a0a0a0" stroke-width="1"/>
          <path id="Path_16196" data-name="Path 16196" d="M-219.4,961.28C-214.7,882.134-148.248,808.7-69.045,790.3,1.665,773.865,76.46,794.733,144.8,816.522c64.28,20.494,131.636,37.189,187.721,15.2,71.5-28.032,105.867-109.069,180.625-153.758,64.362-38.474,135.236-48.65,201.648-37.744,41.049,6.741,81.445,26.01,121.624,45.76,130.2,64,150.9,205.962,262.062,229.795,116,24.631,187.119-23.571,217.734-65.58,37.007-50.78,79.349-175.9-17.48-274.28-43.222-43.915-86.475-93.771-123.376-148.3-50.548-74.688-55.2-181.07-.252-247.383,40.022-48.3,105.669-75.7,140.653-132.95,25.753-42.144,31.693-91.749,23.912-136.006-8.259-46.975-30.466-90.276-61.726-127.983" transform="translate(235.597 250.308)" fill="none" stroke="#a6a6a6" stroke-width="1"/>
          <path id="Path_16197" data-name="Path 16197" d="M-217.049,963.11c7.346-81.133,73.429-157.491,154.686-177.49,71.078-17.493,147,2.986,215.352,26.339,63.483,21.69,128.934,40.841,184.839,22.485,71.208-23.379,109.1-99,183.791-143.016,65.555-38.635,135.5-53.3,203.083-45.618,42.565,4.838,85.156,22.775,126.94,42.732C978.227,749,1001.374,884.578,1109.829,908.059c112.188,24.016,182.832-20.667,214.516-61.935,37.817-49.255,77.9-169.391-11.715-265.984-41.063-44.258-82.24-94.811-118.54-148.966-48.741-72.715-54.424-174.717-3.711-240.176,37.569-48.494,100.291-77.764,135.147-134.206,26.136-42.323,34-91.311,28.677-135.734-5.73-47.861-25.3-92.931-55.044-132.664" transform="translate(236.345 251.933)" fill="none" stroke="#ababab" stroke-width="1"/>
          <path id="Path_16198" data-name="Path 16198" d="M-214.7,964.939c10-83.12,75.713-162.383,159.022-184,71.45-18.536,148.5,1.515,216.86,26.452,62.689,22.868,126.229,44.489,181.956,29.769,70.91-18.729,112.349-88.92,186.957-132.273,66.753-38.79,135.787-58.007,204.518-53.49,44.092,2.9,88.853,19.557,132.256,39.7,122.9,57.045,148.569,186.11,254.311,209.239,108.378,23.4,178.531-17.768,211.3-58.291,38.606-47.739,76.52-163.033-5.951-257.687a1457.111,1457.111,0,0,1-113.7-149.637c-46.942-70.736-53.677-168.422-7.171-232.967,35.108-48.726,94.917-79.824,129.64-135.462,26.523-42.5,36.336-90.888,33.442-135.461-3.167-48.766-20.135-95.585-48.36-137.346" transform="translate(237.093 253.558)" fill="none" stroke="#b1b1b1" stroke-width="1"/>
          <path id="Path_16199" data-name="Path 16199" d="M-212.357,966.769c12.65-85.106,78-167.256,163.359-190.5,71.826-19.561,150,.028,218.367,26.566,61.9,24.028,123.521,48.134,179.074,37.053,70.608-14.084,115.6-78.831,190.122-121.531,67.955-38.937,136.081-62.775,205.953-61.364,45.626.921,92.536,16.363,137.573,36.675,119.161,53.742,147.406,176.185,250.436,198.961C1237.1,915.41,1306.74,877.749,1340.61,837.98c39.376-46.234,75.217-156.831-.186-249.392-36.746-45.109-73.783-96.885-108.868-150.307-45.15-68.751-52.967-162.19-10.63-225.759,32.635-49,89.549-81.883,124.133-136.718a249.045,249.045,0,0,0,38.206-135.188c-.562-49.684-14.968-98.242-41.674-142.028" transform="translate(237.841 255.183)" fill="none" stroke="#b7b7b7" stroke-width="1"/>
          <path id="Path_16200" data-name="Path 16200" d="M-210.01,968.6c15.3-87.092,80.295-172.108,167.7-197.008,72.2-20.571,151.5-1.48,219.873,26.679,61.115,25.169,120.81,51.774,176.193,44.336,70.3-9.443,118.853-68.734,193.288-110.789,69.163-39.076,136.376-67.6,207.388-69.237,47.16-1.089,96.205,13.194,142.889,33.647,115.366,50.544,146.244,166.258,246.562,188.684,100.757,22.17,169.88-11.995,204.865-51,40.129-44.741,74.01-150.789,5.58-241.1-34.574-45.626-69.563-97.916-104.033-150.977-43.367-66.761-52.3-156.023-14.089-218.552,30.14-49.321,84.187-83.937,118.627-137.975,27.307-42.847,41.127-90.07,42.971-134.915,2.081-50.607-9.8-100.9-34.99-146.71" transform="translate(238.59 256.808)" fill="none" stroke="#bcbcbc" stroke-width="1"/>
          <path id="Path_16201" data-name="Path 16201" d="M-207.664,970.429c17.954-89.08,82.595-176.944,172.032-203.515,72.587-21.566,153.012-3,221.379,26.793,60.338,26.3,118.1,55.412,173.311,51.62,69.993-4.807,122.113-58.628,196.454-100.047,70.374-39.21,136.667-72.466,208.821-77.11,48.691-3.134,99.862,10.051,148.206,30.617,111.524,47.443,145.081,156.332,242.687,178.407,96.947,21.553,165.534-9.125,201.648-47.356,40.862-43.26,72.918-144.908,11.345-232.8-32.374-46.211-65.348-98.945-99.2-151.65-41.592-64.762-51.687-149.918-17.549-211.344,27.613-49.685,78.828-85.988,113.118-139.23C1392.3,51.8,1408.17,5.151,1412.33-39.828a281.569,281.569,0,0,0-28.307-151.392" transform="translate(239.338 258.433)" fill="none" stroke="#c2c2c2" stroke-width="1"/>
          <path id="Path_16202" data-name="Path 16202" d="M-205.318,972.258c20.606-91.066,84.9-181.761,176.368-210.021,72.976-22.547,154.532-4.545,222.887,26.906,59.565,27.406,115.385,59.044,170.429,58.9,69.684-.178,125.377-48.514,199.62-89.305,71.59-39.334,136.945-77.379,210.256-84.983,50.214-5.208,103.5,6.942,153.523,27.589,107.641,44.43,143.918,146.406,238.811,168.129,93.136,20.938,161.175-6.267,198.431-43.712,41.582-41.792,71.965-139.189,17.109-224.5-30.133-46.867-61.138-99.967-94.36-152.32-39.826-62.76-51.137-143.874-21.008-204.137,25.048-50.094,73.476-88.038,107.612-140.486,28.107-43.185,46.06-89.248,52.5-134.369a284.089,284.089,0,0,0-21.621-156.073" transform="translate(240.086 260.058)" fill="none" stroke="#c7c7c7" stroke-width="1"/>
          <path id="Path_16203" data-name="Path 16203" d="M-202.972,974.087c23.258-93.051,87.211-186.561,180.7-216.527,73.368-23.515,156.059-6.1,224.394,27.019,58.8,28.5,112.673,62.672,167.548,66.188,69.374,4.445,128.645-38.392,202.785-78.563,72.811-39.451,137.21-82.328,211.691-92.855,51.727-7.312,107.125,3.87,158.841,24.56,103.724,41.5,142.709,136.67,234.934,157.851,89.284,20.506,156.8-3.421,195.213-40.067,42.286-40.341,71.169-133.629,22.876-216.207-27.835-47.595-56.937-100.985-89.524-152.991-38.069-60.75-50.664-137.885-24.467-196.928,22.427-50.547,68.127-90.083,102.1-141.743,28.512-43.349,48.572-88.824,57.266-134.1a287.173,287.173,0,0,0-14.937-160.755" transform="translate(240.834 261.683)" fill="none" stroke="#cdcdcd" stroke-width="1"/>
          <path id="Path_16204" data-name="Path 16204" d="M-200.625,975.917c25.909-95.038,89.527-191.346,185.04-223.033,73.766-24.473,157.6-7.68,225.9,27.133,58.044,29.582,109.96,66.292,164.666,73.471,69.066,9.062,131.917-28.262,205.95-67.821s137.459-87.31,213.126-100.729c53.229-9.44,110.734.841,164.157,21.532,99.78,38.644,141.546,126.745,231.06,147.573,85.472,19.888,152.415-.591,192-36.422,42.976-38.906,70.554-128.214,28.639-207.911-25.451-48.4-52.741-102-84.688-153.661C1288.9,397.314,1274.95,324.1,1297.3,266.329c19.741-51.038,62.784-92.126,96.6-143,28.923-43.513,51.11-88.387,62.03-133.824a290.718,290.718,0,0,0-8.252-165.437" transform="translate(241.582 263.308)" fill="none" stroke="#d2d2d2" stroke-width="1"/>
          <path id="Path_16205" data-name="Path 16205" d="M-198.279,977.746C-169.718,880.722-106.427,781.631-8.9,748.207c74.169-25.42,159.145-9.273,227.409,27.246,57.3,30.65,107.249,69.911,161.783,80.755,68.761,13.673,135.195-18.125,209.117-57.079,75.263-39.661,137.687-92.319,214.561-108.6,54.718-11.59,114.324-2.138,169.473,18.5,95.81,35.86,140.383,116.816,227.183,137.3,81.664,19.269,148.018,2.224,188.78-32.776,43.657-37.487,70.142-122.925,34.405-199.616-22.959-49.268-48.555-103.007-79.852-154.331-34.584-56.715-49.975-126.042-31.386-182.513,16.972-51.562,57.444-94.165,91.091-144.255C1433,89.163,1457.329,44.9,1470.456-.715c15.855-55.1,16.025-114.175-1.568-170.119" transform="translate(242.33 264.933)" fill="none" stroke="#d8d8d8" stroke-width="1"/>
          <path id="Path_16206" data-name="Path 16206" d="M-195.933,979.577c31.215-99.012,94.184-200.87,193.714-236.046,74.573-26.357,160.7-10.881,228.915,27.36,56.557,31.707,104.542,73.525,158.9,88.039,68.459,18.278,138.473-7.98,212.283-46.337,76.5-39.752,137.9-97.35,215.994-116.475,56.193-13.761,117.9-5.06,174.789,15.474,91.823,33.143,139.221,106.883,223.309,127.019,77.855,18.642,143.61,5.02,185.562-29.133,44.325-36.084,69.952-117.734,40.171-191.319-20.321-50.2-44.38-104.009-75.016-155-32.857-54.686-49.776-120.158-34.846-175.3,14.109-52.108,52.109-96.2,85.585-145.511,29.753-43.83,56.244-87.461,71.56-133.278,18.7-55.942,21.191-116.83,5.116-174.8" transform="translate(243.078 266.558)" fill="none" stroke="#dedede" stroke-width="1"/>
          <path id="Path_16207" data-name="Path 16207" d="M-193.587,981.406c33.867-101,96.522-205.608,198.05-242.552,74.985-27.286,162.276-12.505,230.423,27.473,55.829,32.752,101.837,77.135,156.019,95.323,68.16,22.88,141.756,2.171,215.448-35.595,77.731-39.835,138.086-102.4,217.429-124.348,57.653-15.949,121.45-7.917,180.106,12.446,87.823,30.488,138.061,96.945,219.434,116.741,74.046,18.013,139.192,7.8,182.344-25.488,44.988-34.7,70-112.605,45.936-183.023-17.5-51.2-40.213-105-70.18-155.673-31.14-52.654-49.681-114.283-38.3-168.1,11.134-52.663,46.777-98.235,80.076-146.768,30.177-43.983,58.836-86.971,76.325-133.005,21.566-56.764,26.357-119.486,11.8-179.482" transform="translate(243.826 268.183)" fill="none" stroke="#e3e3e3" stroke-width="1"/>
          <path id="Path_16208" data-name="Path 16208" d="M-191.24,983.235C-154.722,880.252-92.375,772.9,11.145,734.177c75.4-28.206,163.863-14.143,231.93,27.586,55.11,33.788,99.178,80.64,153.136,102.607,67.92,27.35,145.041,12.329,218.615-24.853C693.8,799.608,753.081,732.053,833.691,707.3c59.1-18.15,124.981-10.7,185.422,9.418,83.813,27.892,136.938,86.852,215.558,106.463,70.274,17.244,134.766,10.557,179.129-21.843,45.64-33.334,70.3-107.49,51.7-174.726-14.443-52.217-36.063-105.994-65.344-156.344-29.436-50.615-49.692-108.39-41.764-160.889,8.036-53.211,41.452-100.265,74.569-148.023,30.6-44.133,61.436-86.463,81.09-132.732,24.449-57.563,31.523-122.142,18.484-184.165" transform="translate(244.575 269.808)" fill="none" stroke="#e9e9e9" stroke-width="1"/>
          <path id="Path_16209" data-name="Path 16209" d="M-188.894,985.065C-149.724,880.095-87.676,770.021,17.828,729.5c75.822-29.12,165.464-15.8,233.438,27.7,54.4,34.813,96.477,84.27,150.255,109.89,67.626,31.978,148.329,22.493,221.78-14.111,80.215-39.975,138.4-112.542,220.3-140.094,60.532-20.366,128.492-13.388,190.74,6.389,79.8,25.354,135.775,76.925,211.683,96.186,66.463,16.63,130.333,13.3,175.91-18.2,46.289-31.988,70.846-102.325,57.465-166.431-11.111-53.238-31.924-106.974-60.508-157.015-27.742-48.568-49.8-102.457-45.222-153.68,4.8-53.729,36.127-102.292,69.062-149.28,31.035-44.279,64.045-85.934,85.855-132.459,27.345-58.338,36.688-124.8,25.168-188.847" transform="translate(245.323 271.433)" fill="none" stroke="#eee" stroke-width="1"/>
          <path id="Path_16210" data-name="Path 16210" d="M-186.548,986.894C-144.726,879.938-82.969,767.15,24.51,724.824c76.248-30.026,167.079-17.464,234.945,27.814,53.7,35.829,93.776,87.9,147.373,117.174,67.332,36.606,151.688,32.807,224.945-3.368,81.541-39.873,138.535-117.629,221.733-147.968,61.949-22.589,131.979-15.971,196.056,3.36,75.793,22.868,134.612,67,207.808,85.908,62.652,16.014,125.894,16.015,172.692-14.554,46.937-30.657,71.642-97.036,63.231-158.134-7.462-54.214-27.805-107.946-55.672-157.685-26.062-46.519-50.012-96.464-48.683-146.472,1.44-54.2,30.893-104.257,63.556-150.536,31.552-44.365,66.659-85.388,90.619-132.188,30.253-59.091,41.855-127.452,31.853-193.528" transform="translate(246.071 273.058)" fill="none" stroke="#f4f4f4" stroke-width="1"/>
          <path id="Path_16211" data-name="Path 16211" d="M-184.2,988.725c44.474-108.943,106.008-224.277,215.4-268.577C107.914,689.329,199.9,701,267.645,748.074c53.018,36.84,91.075,91.531,144.49,124.456,67.039,41.234,154.949,42.917,228.112,7.375C723,839.912,778.894,757.184,863.415,724.066c63.354-24.825,135.44-18.432,201.373.331,71.795,20.433,133.447,57.074,203.931,75.63,58.842,15.4,121.451,18.712,169.477-10.908,47.58-29.346,72.658-91.543,68.995-149.838-3.461-55.086-23.705-108.909-50.835-158.356-24.394-44.461-50.3-90.383-52.142-139.263-2.055-54.59,25.538-106.305,58.05-151.793,31.956-44.53,69.276-84.825,95.384-131.913a328.009,328.009,0,0,0,38.537-198.211" transform="translate(246.819 274.683)" fill="none" stroke="#f9f9f9" stroke-width="1"/>
          <path id="Path_16212" data-name="Path 16212" d="M-181.855,990.554C-134.73,879.625-73.535,761.449,37.876,715.471c77.111-31.821,170.355-20.834,237.959,28.04,52.343,37.843,88.374,95.162,141.608,131.741,66.745,45.862,158.206,53.026,231.277,18.117,83.97-40.116,138.741-127.822,224.6-163.714,64.745-27.064,138.876-20.744,206.69-2.7s132.284,47.148,200.056,65.353c55.032,14.782,117.005,21.388,166.259-7.264,48.225-28.053,73.863-85.759,74.76-141.542s-19.63-109.861-46-159.026c-22.741-42.4-50.657-84.2-55.6-132.056-5.671-54.887,20.181-108.355,52.541-153.048s71.894-84.246,100.149-131.642A334.813,334.813,0,0,0,1617.4-135.16" transform="translate(247.567 276.308)" fill="none" stroke="#fff" stroke-width="1"/>
        </g>
        <g id="Group_44720" data-name="Group 44720" transform="translate(698.173 -570.345)" style="mix-blend-mode: multiply;isolation: isolate">
          <path id="Path_16213" data-name="Path 16213" d="M442.618,1480.379c-59.314-36.688-62.092-126.581-27.3-187.028s95.39-100.422,149.251-144.728,105.652-101.237,110.1-170.838c5.683-88.982-67.891-169.762-58.462-258.426,7.347-69.105,63.789-121.382,123.1-150.562,33.536-16.5,72.3-22.289,107.011-35.92,157.432-61.819,297.394,37.982,395.482-43.2,106.208-87.9,100.795-186.27,81.169-234.747C1297.823,192.833,1213.624,55.311,1047.84,93.2c-67.347,15.391-136.462,28.479-205.415,24.2C739.192,111,638.784,29.774,632.2-73.448c-4.516-70.745,32.185-144.322,6.64-210.449-17.169-44.444-60.641-75.2-107.013-86.131s-95.283-4.361-141.118,8.646" transform="translate(-390.706 632.457)" fill="none" stroke="#fff" stroke-width="1"/>
          <path id="Path_16214" data-name="Path 16214" d="M445.995,1482.061c-59.2-40-64.578-131.5-29.657-194.484,34.083-61.473,95.264-102.446,150.282-145.831,54.37-42.873,106.791-96.857,113.969-164.028,9.107-85.854-57.969-165.969-48.105-254.163,8.015-70.129,60.4-124.118,117.864-156.613,33.012-18.668,72.1-27.3,107.981-41.962,152.108-62.142,288.928,32.669,385.043-46.62C1346.712,393.042,1343.8,297.2,1325.366,248.4c-23.358-61.835-104.8-193.939-265.045-161.027-66.063,13.568-134.627,24.574-202.907,20.014C756.842,100.873,659.437,23.254,650.635-76.246c-6.09-68.84,27.233-141.432,2.212-206.943-17.045-44.862-58.816-76.519-103.816-89.674-45.419-13.277-94.116-10.051-140.578.505" transform="translate(-389.453 630.527)" fill="none" stroke="#fbfbfb" stroke-width="1"/>
          <path id="Path_16215" data-name="Path 16215" d="M449.88,1483.987c-59.087-43.31-67.048-136.408-32.013-201.939,33.4-62.479,95.124-104.478,151.316-146.935,54.862-41.452,107.926-92.477,117.84-157.218,12.529-82.725-48.248-162.2-37.75-249.9C657.793,656.823,706.29,601.055,761.9,565.33c32.5-20.88,71.9-32.3,108.952-48,146.851-62.236,280.464,27.358,374.605-50.037,100.472-82.733,100.05-176.038,82.819-225.166-21.592-61.56-100.336-188.33-254.967-160.322-64.814,11.739-132.793,20.669-200.4,15.824C775,90.991,680.563,16.953,669.581-78.8c-7.68-66.96,22.282-138.541-2.217-203.438-16.921-45.28-57.01-77.875-100.618-93.217C522.257-391.1,473.8-391.195,426.7-383.093" transform="translate(-388.707 628.353)" fill="none" stroke="#f6f6f6" stroke-width="1"/>
          <path id="Path_16216" data-name="Path 16216" d="M453.774,1486.178c-58.974-46.622-69.5-141.3-34.367-209.4,32.747-63.47,94.97-106.519,152.349-148.038,55.338-40.044,109.064-88.1,121.712-150.41,15.952-79.6-38.406-158.414-27.394-245.638,9.116-72.2,53.63-129.843,107.388-168.713,32-23.137,71.7-37.281,109.923-54.045,141.657-62.127,272,22.046,364.165-53.456,97.606-80.15,99.665-170.907,83.644-220.374-19.842-61.273-95.943-182.8-244.888-159.619-63.6,9.9-130.944,16.573-197.894,11.635C793.189,81.1,701.658,10.892,688.536-81.089c-9.287-65.1,17.177-135.593-6.646-199.933-16.905-45.657-55.219-79.27-97.421-96.759-43.576-18.06-91.783-21.431-139.5-15.783" transform="translate(-387.97 625.915)" fill="none" stroke="#f2f2f2" stroke-width="1"/>
          <path id="Path_16217" data-name="Path 16217" d="M457.677,1488.631c-58.861-49.933-71.934-146.178-36.721-216.852,32.11-64.445,94.8-108.57,153.38-149.141,55.8-38.646,110.2-83.718,125.584-143.6,19.374-76.47-28.553-154.632-17.038-241.376,9.721-73.236,50.23-132.829,102.151-174.766,31.489-25.434,71.5-42.242,110.892-60.086,136.524-61.839,263.534,16.734,353.728-56.874,94.739-77.565,99.266-165.764,84.47-215.583-18.109-60.972-91.626-177.369-234.81-158.916-62.435,8.048-129.1,12.611-195.387,7.446C811.373,71.671,722.717,5.07,707.5-83.116c-10.917-63.267,12.185-132.689-11.076-196.428-16.811-46.065-53.436-80.7-94.223-100.3-42.68-20.507-90.617-27.121-138.964-23.925" transform="translate(-387.241 623.214)" fill="none" stroke="#eee" stroke-width="1"/>
          <path id="Path_16218" data-name="Path 16218" d="M461.588,1491.329c-58.749-53.244-74.352-151.043-39.076-224.307,31.494-65.407,94.617-110.631,154.414-150.245,56.245-37.263,111.457-79.3,129.455-136.791,22.947-73.294-18.687-150.847-6.683-237.113C710.034,668.6,746.5,606.988,796.612,562.057c30.971-27.773,71.3-47.185,111.863-66.128,131.449-61.386,255.067,11.421,343.289-60.293,91.871-74.981,98.857-160.612,85.294-210.793-16.395-60.658-87.386-172.044-224.732-158.21-61.307,6.175-127.263,8.653-192.88,3.255C829.564,62.5,743.734-.528,726.471-84.9c-12.574-61.455,7.2-129.787-15.5-192.922C694.253-324.3,659.311-360,619.941-381.667c-41.787-22.992-89.449-32.81-138.425-32.068" transform="translate(-386.52 620.269)" fill="none" stroke="#e9e9e9" stroke-width="1"/>
          <path id="Path_16219" data-name="Path 16219" d="M465.506,1494.193c-58.634-56.557-76.75-155.9-41.429-231.764,30.9-66.359,94.421-112.7,155.446-151.349,56.678-35.891,112.609-74.908,133.327-129.98,26.388-70.15-8.81-147.063,3.673-232.851,10.957-75.3,43.351-139,91.675-186.867,30.438-30.146,71.1-52.1,112.834-72.168,126.429-60.787,246.6,6.11,332.85-63.711,89-72.4,98.437-155.451,86.12-206-14.7-60.334-83.221-166.843-214.655-157.507-60.22,4.278-125.421,4.7-190.373-.934C847.763,53.5,764.7-5.978,745.45-86.516c-14.26-59.664,2.222-126.887-19.933-189.417-16.614-46.885-49.871-83.7-87.828-107.388-40.9-25.519-88.283-38.5-137.886-40.211" transform="translate(-385.807 617.158)" fill="none" stroke="#e5e5e5" stroke-width="1"/>
          <path id="Path_16220" data-name="Path 16220" d="M469.432,1497.066c-58.522-59.867-79.131-160.745-43.785-239.22,30.315-67.3,94.212-114.792,156.478-152.453,57.1-34.536,113.758-70.514,137.2-123.17,29.826-67,1.08-143.275,14.03-228.588,11.587-76.33,39.858-142.177,86.438-192.917,29.883-32.552,70.911-57,113.8-78.211,121.46-60.057,238.137.8,322.412-67.128,86.137-69.812,98-150.282,86.945-201.211-13.024-60-80.926-178.513-204.577-156.8-58.334,10.241-123.581.753-187.866-5.124-84.541-7.729-164.9-63.678-186.074-140.365-15.983-57.891-2.751-123.99-24.363-185.911-16.508-47.3-48.076-85.261-84.63-110.93-39.993-28.085-87.116-44.191-137.347-48.355" transform="translate(-385.101 614.037)" fill="none" stroke="#e1e1e1" stroke-width="1"/>
          <path id="Path_16221" data-name="Path 16221" d="M473.363,1499.939c-58.408-63.178-81.495-165.581-46.139-246.675,29.751-68.238,93.994-116.893,157.512-153.556,57.507-33.194,114.9-66.121,141.069-116.363,33.258-63.856,10.979-139.488,24.387-224.326,12.224-77.36,36.325-145.392,81.2-198.968,29.3-34.984,70.728-61.874,114.773-84.251,116.542-59.207,229.672-4.513,311.974-70.547,83.27-67.229,97.548-145.107,87.77-196.42-11.367-59.656-76.619-175.007-194.5-156.1-57.448,9.215-121.74-3.189-185.359-9.312C884.18,35.542,806.453-16.905,783.43-89.729c-17.748-56.136-7.719-121.1-28.793-182.406a249.048,249.048,0,0,0-81.432-114.474c-39.078-30.688-85.95-49.882-136.81-56.5" transform="translate(-384.402 610.916)" fill="none" stroke="#dcdcdc" stroke-width="1"/>
          <path id="Path_16222" data-name="Path 16222" d="M477.3,1502.813c-58.295-66.49-83.841-170.41-48.493-254.132,29.2-69.165,93.761-119.01,158.544-154.66,57.907-31.866,116.042-61.726,144.941-109.552,36.684-60.711,20.888-135.7,34.743-220.063C779.908,686.018,799.788,615.764,843,559.388c28.7-37.44,70.555-66.721,115.744-90.293,111.672-58.253,221.207-9.825,301.534-73.965,80.4-64.644,97.08-139.925,88.6-191.63-9.731-59.306-72.24-171.333-184.42-155.394-56.677,8.053-119.9-7.124-182.852-13.5C902.4,26.58,827.227-22.381,802.429-91.336c-19.56-54.391-12.681-118.2-33.222-178.9-16.288-48.128-44.438-88.485-78.235-118.018-38.14-33.326-84.783-55.57-136.271-64.64" transform="translate(-383.709 607.795)" fill="none" stroke="#d8d8d8" stroke-width="1"/>
          <path id="Path_16223" data-name="Path 16223" d="M481.245,1505.686c-58.181-69.8-86.169-175.23-50.847-261.587,28.667-70.087,93.521-121.142,159.576-155.764,58.3-30.554,117.178-57.333,148.813-102.743,40.1-57.565,30.807-131.908,45.1-215.8,13.529-79.416,29.139-151.919,70.724-211.07,28.063-39.913,70.4-71.536,116.715-96.333,106.847-57.2,212.742-15.138,291.1-77.385,77.536-62.059,96.594-134.738,89.421-186.837-8.118-58.952-67.793-167.478-174.342-154.69-56.021,6.722-118.059-11.055-180.345-17.692C920.619,17.628,847.922-27.852,821.433-92.943c-21.426-52.65-17.636-115.313-37.651-175.395-16.17-48.544-42.585-90.139-75.036-121.56a281.555,281.555,0,0,0-135.733-72.784" transform="translate(-383.022 604.674)" fill="none" stroke="#d4d4d4" stroke-width="1"/>
          <path id="Path_16224" data-name="Path 16224" d="M485.195,1508.559c-58.069-73.112-88.479-180.045-53.2-269.043,28.146-71,93.272-123.292,160.61-156.868,58.677-29.256,118.308-52.943,152.684-95.932C788.8,932.291,786.022,858.6,800.74,775.177c14.194-80.441,25.484-155.215,65.487-217.119,27.4-42.4,70.254-76.322,117.686-102.375,102.066-56.063,204.276-20.45,280.657-80.8,74.67-59.474,96.092-129.549,90.247-182.046-6.523-58.594-63.4-143.294-164.264-153.987-55.408-5.874-116.219-14.976-177.839-21.881C938.847,8.688,868.537-33.312,840.445-94.551c-23.354-50.907-22.588-112.423-42.081-171.889-16.05-48.963-40.706-91.815-71.839-125.1a284.093,284.093,0,0,0-135.193-80.926" transform="translate(-382.34 601.553)" fill="none" stroke="#cfcfcf" stroke-width="1"/>
          <path id="Path_16225" data-name="Path 16225" d="M489.15,1511.433c-57.956-76.425-90.774-184.855-55.557-276.5,27.637-71.917,93.012-125.46,161.642-157.971,59.052-27.974,119.436-48.555,156.556-89.123,46.926-51.288,50.672-124.322,65.81-207.275,14.866-81.466,21.793-158.523,60.249-223.17,26.708-44.9,70.13-81.071,118.655-108.418,97.328-54.846,195.932-25.608,270.219-84.221,71.919-56.742,95.568-124.358,91.072-177.256-4.951-58.233-59.568-139.189-154.188-153.281-54.533-8.123-114.379-18.89-175.33-26.071-71.2-8.389-139.212-46.9-168.819-104.3C834.112-145.3,831.927-205.694,812.95-264.542c-15.925-49.382-38.8-93.507-68.641-128.645a287.158,287.158,0,0,0-134.655-89.07" transform="translate(-381.663 598.432)" fill="none" stroke="#cbcbcb" stroke-width="1"/>
          <path id="Path_16226" data-name="Path 16226" d="M493.108,1514.306c-57.842-79.735-93.051-189.658-57.911-283.955,27.139-72.826,92.747-127.646,162.674-159.074,59.421-26.708,120.561-44.172,160.427-82.315,50.333-48.154,60.618-120.526,76.167-203.013s18.066-161.837,55.012-229.221c25.989-47.4,70.03-85.781,119.625-114.458,92.63-53.56,187.466-30.919,259.781-87.639,69.05-54.159,95.026-119.167,91.9-172.464-3.4-57.871-55.731-135.317-144.109-152.579-53.666-10.481-112.542-22.794-172.823-30.26C975.312-9.16,909.511-44.151,878.479-97.764c-27.414-47.363-32.472-106.652-50.938-164.88-15.8-49.8-36.873-95.21-65.444-132.189a290.731,290.731,0,0,0-134.116-97.213" transform="translate(-380.991 595.311)" fill="none" stroke="#c7c7c7" stroke-width="1"/>
          <path id="Path_16227" data-name="Path 16227" d="M497.072,1517.179c-57.73-83.047-95.312-194.456-60.265-291.411,26.653-73.733,92.476-129.849,163.707-160.178,59.785-25.455,121.682-39.794,164.3-75.5,53.735-45.028,70.572-116.729,86.522-198.752,16.24-83.507,14.306-165.154,49.774-235.271,25.247-49.911,69.957-90.447,120.6-120.5,87.976-52.211,179-36.233,249.342-91.058,66.18-51.579,94.466-113.976,92.722-167.674C1361.9,119.32,1311.9,45.149,1229.738,24.958c-52.785-12.971-110.7-26.688-170.317-34.449C993.551-18.067,929.874-49.5,897.5-99.371,867.948-144.9,860.1-203.139,842.135-260.745c-15.66-50.226-34.914-96.92-62.245-135.731C746.88-443.351,700.94-480.5,646.312-501.832" transform="translate(-380.323 592.191)" fill="none" stroke="#c2c2c2" stroke-width="1"/>
          <path id="Path_16228" data-name="Path 16228" d="M501.04,1520.053c-57.616-86.359-97.557-199.251-62.619-298.867,26.177-74.637,92.2-132.073,164.74-161.282,60.146-24.218,122.8-35.419,168.17-68.7,57.137-41.907,80.533-112.93,96.878-194.488,16.941-84.527,10.515-168.469,44.537-241.323,24.479-52.419,69.918-95.062,121.567-126.54,83.358-50.806,170.528-41.551,238.9-94.476,63.306-49,93.884-108.789,93.548-162.883-.356-57.155-47.941-128.283-123.953-151.17-51.861-15.617-108.87-30.571-167.81-38.64-63.209-8.652-124.839-36.482-158.466-82.667-31.776-43.642-42.337-100.885-59.8-157.868C841.215-309.5,823.8-357.48,797.687-398.121c-31.887-49.622-77.784-89.711-133.04-113.5" transform="translate(-379.66 589.07)" fill="none" stroke="#bebebe" stroke-width="1"/>
          <path id="Path_16229" data-name="Path 16229" d="M505.012,1522.926c-57.5-89.67-99.786-204.043-64.975-306.323,25.711-75.54,91.919-134.316,165.772-162.385,60.5-22.994,123.921-31.05,172.042-61.886,60.536-38.792,90.5-109.128,107.235-190.225,17.649-85.542,6.7-171.781,39.3-247.373,23.689-54.929,69.917-99.621,122.536-132.582,78.783-49.35,162.056-46.872,228.466-97.895,60.43-46.429,93.281-103.6,94.372-158.093,1.138-56.8-43.913-125.107-113.874-150.466-50.864-18.436-107.037-34.441-165.3-42.829-60.549-8.716-120.2-32.874-155.016-75.456-34.073-41.671-47.261-98-64.227-154.363-15.375-51.075-30.927-100.345-55.85-142.816-30.733-52.372-76.618-95.4-132.5-121.642" transform="translate(-379 585.949)" fill="none" stroke="#bababa" stroke-width="1"/>
          <path id="Path_16230" data-name="Path 16230" d="M508.987,1525.8c-57.39-92.98-102-208.832-67.328-313.778,25.253-76.441,91.634-136.579,166.8-163.489,60.86-21.786,124.987-26.781,175.913-55.076,63.87-35.8,100.477-105.325,117.591-185.963,18.369-86.557,2.855-175.086,34.061-253.425,22.878-57.435,69.963-104.116,123.507-138.624,74.249-47.851,153.485-52.32,218.026-101.312,57.467-43.969,92.659-98.426,95.2-153.3,2.613-56.458-39.739-122.133-103.8-149.761-49.747-21.458-105.207-38.3-162.8-47.019-57.891-8.768-115.614-29.174-151.566-68.244-36.439-39.6-52.181-95.124-68.656-150.857-15.225-51.5-28.9-102.053-52.653-146.359C803.745-456.529,757.843-502.5,701.331-531.2" transform="translate(-378.345 582.828)" fill="none" stroke="#b5b5b5" stroke-width="1"/>
          <path id="Path_16231" data-name="Path 16231" d="M512.966,1528.674c-57.277-96.294-104.2-213.618-69.683-321.235,24.805-77.34,91.349-138.863,167.838-164.592,61.216-20.593,126.125-22.4,179.784-48.268C858.2,961.9,901.366,893.06,918.852,812.879c19.1-87.567-1.008-178.383,28.822-259.474,22.05-59.939,70.066-108.538,124.478-144.665,69.757-46.316,145.02-57.633,207.588-104.73,54.6-41.384,92.017-93.255,96.023-148.51,4.069-56.12-35.369-119.325-93.719-149.058-48.456-24.692-103.378-42.135-160.288-51.207-55.235-8.806-111.06-25.371-148.114-61.031-38.867-37.408-57.095-92.246-73.084-147.353-15.069-51.93-26.856-103.756-49.456-149.9-28.337-57.862-74.283-106.78-131.423-137.929" transform="translate(-377.693 579.707)" fill="none" stroke="#b1b1b1" stroke-width="1"/>
          <path id="Path_16232" data-name="Path 16232" d="M516.949,1531.546c-57.165-99.6-106.383-218.4-72.037-328.689,24.365-78.241,91.062-141.168,168.869-165.7,61.572-19.411,127.263-18.022,183.656-41.457,70.716-29.548,120.6-97.677,138.3-177.439,20.007-88.535-4.892-181.671,23.585-265.525,21.2-62.437,70.236-112.874,125.448-150.706,65.307-44.749,136.554-62.945,197.149-108.149,51.732-38.8,91.353-88.092,96.848-143.72,5.51-55.789-30.75-116.63-83.641-148.354-46.93-28.148-101.556-45.954-157.781-55.4-52.584-8.831-106.519-21.454-144.663-53.82-41.341-35.078-61.906-89.4-77.515-143.848C900.359-303.64,890.379-356.7,868.914-404.7,841.81-465.3,795.8-517.17,738.029-550.77" transform="translate(-377.043 576.587)" fill="none" stroke="#adadad" stroke-width="1"/>
          <path id="Path_16233" data-name="Path 16233" d="M520.918,1534.419c-57.051-102.916-108.393-223.133-74.391-336.145,24.044-79.108,90.774-143.49,169.9-166.8,61.93-18.244,128.4-13.642,187.527-34.648,74.138-26.418,130.525-93.883,148.659-173.175,20.673-89.558-8.792-184.951,18.348-271.576,20.342-64.931,70.486-117.114,126.418-156.747,60.9-43.158,128.09-68.256,186.711-111.567,48.866-36.216,90.673-82.939,97.673-138.928,6.936-55.471-25.83-113.984-73.562-147.65-45.1-31.813-99.737-49.754-155.274-59.587-49.937-8.842-101.961-17.418-141.213-46.607-43.838-32.6-66.858-86.5-81.943-140.342-14.688-52.8-22.715-107.137-43.061-156.988A328,328,0,0,0,756.366-560.558" transform="translate(-376.382 573.466)" fill="none" stroke="#a8a8a8" stroke-width="1"/>
          <path id="Path_16234" data-name="Path 16234" d="M524.923,1537.293c-56.938-106.227-110.709-227.962-76.747-343.6,23.507-80.04,90.488-145.834,170.936-167.905,62.29-17.088,129.537-9.262,191.4-27.838,77.561-23.29,140.445-90.088,159.015-168.913,21.339-90.58-12.707-188.219,13.111-277.627,19.468-67.42,70.836-121.239,127.388-162.788s119.623-73.568,176.272-114.986c46-33.632,89.972-77.8,98.5-134.138,8.347-55.162-20.568-111.3-63.484-146.946s-97.926-53.526-152.767-63.776c-47.294-8.839-97.363-13.266-137.762-39.4-46.333-29.966-71.809-83.613-86.373-136.837s-20.622-108.814-39.861-160.53A334.81,334.81,0,0,0,774.738-570.345" transform="translate(-375.755 570.345)" fill="none" stroke="#a4a4a4" stroke-width="1"/>
        </g>
      </g>
    </g>
  </g>
</svg>
