<svg xmlns="http://www.w3.org/2000/svg" xmlns:xlink="http://www.w3.org/1999/xlink" width="145.777" height="82.166" viewBox="0 0 145.777 82.166">
  <defs>
    <clipPath id="clip-path">
      <path id="Path_19700" data-name="Path 19700" d="M115.95,62.116h0c10.133-22.888,33.557-36.905,54.764-15.566C151.83,21.114,125.446,35.743,115.95,62.116Z" transform="translate(-115.95 -33.334)"/>
    </clipPath>
    <linearGradient id="linear-gradient" x1="-0.69" y1="2.492" x2="-0.689" y2="2.492" gradientUnits="objectBoundingBox">
      <stop offset="0" stop-color="#5e9eb9"/>
      <stop offset="1" stop-color="#25b2e7"/>
    </linearGradient>
  </defs>
  <g id="npcc_LOGO" data-name="npcc LOGO" transform="translate(-2.47 -4.15)">
    <path id="Path_19697" data-name="Path 19697" d="M37.705,4.15l7.1,81.077-42.331-10L37.705,4.15" fill="#4ca6dc" fill-rule="evenodd"/>
    <path id="Path_19698" data-name="Path 19698" d="M97.61,4.15l33.757,64.726L104.706,85.227Z" transform="translate(-59.905)" fill="#2e55a2" fill-rule="evenodd"/>
    <g id="Group_44771" data-name="Group 44771" transform="translate(44.497 14.958)">
      <g id="Group_44770" data-name="Group 44770" clip-path="url(#clip-path)">
        <path id="Path_19699" data-name="Path 19699" d="M96.577-57.64,63.29-6.935,116.854,28.23l33.287-50.7L96.577-57.64" transform="translate(-82.793 23.948)" fill="url(#linear-gradient)"/>
      </g>
    </g>
    <path id="Path_19701" data-name="Path 19701" d="M354.5,109.77H338.581c-3.289,0-5.981,3.589-5.981,7.974v15.27c0,4.385,2.692,7.974,5.981,7.974H354.5v-7.3H341.348c-.907,0-1.648-.989-1.648-2.2V119.81c0-1.211.741-2.2,1.648-2.2H354.5Z" transform="translate(-207.866 -66.504)" fill="#28b1e6" fill-rule="evenodd"/>
    <path id="Path_19702" data-name="Path 19702" d="M289.629,109.77H273.711c-3.289,0-5.981,3.589-5.981,7.974v15.27c0,4.385,2.692,7.974,5.981,7.974h15.918v-7.3H276.478c-.907,0-1.648-.989-1.648-2.2V119.81c0-1.211.741-2.2,1.648-2.2h13.151Z" transform="translate(-167.021 -66.504)" fill="#28b1e6" fill-rule="evenodd"/>
    <path id="Path_19703" data-name="Path 19703" d="M208.93,116.507h7.1c.67,0,1.215.73,1.215,1.622v3.107c0,.893-.548,1.622-1.215,1.622h-7.1Zm-7.3-7.837h16.525c3.344,0,6.081,3.648,6.081,8.107v5.137c0,4.459-2.737,8.107-6.081,8.107H208.83v10.137h-7.2V108.67Z" transform="translate(-125.401 -65.811)" fill="#28b1e6" fill-rule="evenodd"/>
    <path id="Path_19704" data-name="Path 19704" d="M129.64,107.163h8.3l.067-.133.085.133h.219v.363l9.074,14.84V107.1h7.2L154.528,140H147.18l-8.874-18.581v19.592H129.64Z" transform="translate(-80.072 -64.778)" fill="#28b1e6" fill-rule="evenodd"/>
    <path id="Path_19705" data-name="Path 19705" d="M274.2,69.688v7.7h-.781v-7.7h-2.485V69.04h2.307l.015-.067a5.3,5.3,0,0,0-1.207-1.892c-.481-.607-.907-.915-1.267-.915a.86.86,0,0,0-.756.4,2.885,2.885,0,0,0-.256.681v.307a1.431,1.431,0,0,0,.052.389q.05.178.089.3a1.822,1.822,0,0,0,.081.218l.2.4.1.163-.893-.015-.185-.259-.152-.326-.107-.356V67.71a2.75,2.75,0,0,1,.015-.356,3.812,3.812,0,0,1,.118-.437,1.68,1.68,0,0,1,1.667-1.378,1.871,1.871,0,0,1,1.111.437,4.454,4.454,0,0,1,1.185,1.315l.437.73.541,1.022h1.426v.648H274.2Zm-3.963,0v7.7h-.8V73.177h-2.118l-.526-.667h2.641V69.688h-2.822v2.848l-.093.356a.831.831,0,0,1-.5.53l-.322.1a.225.225,0,0,0-.181.056l-.152.026-.17-.015a.446.446,0,0,1-.211-.067l.933,1.522.4.567.718.9.315.341-.615.552c-.181-.067-.418-.341-.722-.826l-1.833-2.87-.418-.744-.27-.5-.27-.518.652-.456.441.907a.927.927,0,0,0,.9.567l.337-.044a.365.365,0,0,0,.2-.156l.1-.233V69.692H262.3v-.663h9.155v.663h-1.222Zm-15.4,0v7.7h-.781v-7.7h-2.181V69.04h2l.015-.067a5.3,5.3,0,0,0-1.207-1.892c-.481-.607-.907-.915-1.267-.915a.86.86,0,0,0-.756.4,2.881,2.881,0,0,0-.256.681v.307a1.431,1.431,0,0,0,.052.389c.033.119.067.219.089.3a1.825,1.825,0,0,0,.081.218l.2.4.1.163-.893-.015-.185-.259-.152-.326-.107-.356V67.71a2.756,2.756,0,0,1,.015-.356,3.82,3.82,0,0,1,.119-.437,1.68,1.68,0,0,1,1.667-1.378,1.871,1.871,0,0,1,1.111.437,4.454,4.454,0,0,1,1.185,1.315l.437.73.541,1.022h1.426v.648h-1.255Zm-3.966,0v7.7h-.8V73.177h-2.118l-.526-.667h2.641V69.688H247.25v2.848l-.093.356a.831.831,0,0,1-.5.53l-.322.1a.225.225,0,0,0-.181.056L246,73.6l-.17-.015a.446.446,0,0,1-.211-.067l.933,1.522.4.567.718.9.315.341-.615.552c-.181-.067-.419-.341-.722-.826l-1.833-2.87-.419-.744-.27-.5-.27-.518.652-.456.441.907a.927.927,0,0,0,.9.567l.337-.044a.365.365,0,0,0,.2-.156l.1-.233V69.692h-3.544v-.663h9.155v.663h-1.222Zm-15.4,0v7.7h-.781v-7.7h-2.463V69.04h2.281l.015-.067a5.3,5.3,0,0,0-1.207-1.892c-.481-.607-.907-.915-1.267-.915a.86.86,0,0,0-.756.4,2.882,2.882,0,0,0-.256.681v.307a1.431,1.431,0,0,0,.052.389c.033.119.067.219.089.3a1.825,1.825,0,0,0,.081.218l.2.4.1.163-.889-.015-.185-.259-.152-.326-.107-.356V67.71a2.76,2.76,0,0,1,.015-.356,3.827,3.827,0,0,1,.119-.437,1.68,1.68,0,0,1,1.667-1.378,1.871,1.871,0,0,1,1.111.437,4.454,4.454,0,0,1,1.185,1.315l.433.73.541,1.022h1.426v.648h-1.252Zm-4.729,0h-2.926V72.8a1.579,1.579,0,0,0,.841,1.426l.452.081a1.668,1.668,0,0,0,.915-.307l.285-.244.2-.226.241-.341v-3.5Zm.8,0v7.7h-.8V74.165l-.27.244-.2.144a1.879,1.879,0,0,1-1.141.389,2.053,2.053,0,0,1-1.937-1.378,3.016,3.016,0,0,1-.152-.878v-3h-1.17v-.663h6.892v.663Zm-13.181,0v7.7h-.8V72.577h-2.807V74.2a.234.234,0,0,1-.015.1,1.479,1.479,0,0,1-.144.156h-.174c-.059,0-.17-.07-.33-.211l-.556-.633a5.513,5.513,0,0,1-.481-.715,1.775,1.775,0,0,1-.181-.437.615.615,0,0,1,.241-.485l.133-.052h4.311V69.688H210.6v-.663h8.988v.663Zm-8.166,0v3.048a1.161,1.161,0,0,1-.315.826,1.206,1.206,0,0,1-.344.307l-.389.178-.57-.485a.773.773,0,0,0,.57-.307l.181-.341.074-.356v-2.87h-2.837v3.989l3.633,3.715.111.293.037.341a1.047,1.047,0,0,1-.57.907l-.241.067-.33.1-.674-.715h.107l.241.048.093-.048h.256l.137-.067.137-.115v-.1l.059-.137a.629.629,0,0,0-.215-.456l-.044-.048-.074-.052-3.5-3.533V69.688H204.5v-.663h6.711v.663Z" transform="translate(-127.208 -38.654)" fill="#5d9eba"/>
    <path id="Path_19706" data-name="Path 19706" d="M154.749,216.936h.955a.954.954,0,0,0,.67-.189.707.707,0,0,0,.2-.537.741.741,0,0,0-.119-.43.546.546,0,0,0-.307-.233,1.975,1.975,0,0,0-.456-.037h-.944v1.426Zm-.489,2.1V215.04h1.393a3.038,3.038,0,0,1,.559.037,1.1,1.1,0,0,1,.456.185.958.958,0,0,1,.3.385,1.325,1.325,0,0,1,.111.544,1.289,1.289,0,0,1-.3.863,1.377,1.377,0,0,1-1.081.352h-.948v1.622h-.485Z" transform="translate(-95.574 -132.787)" fill="#107ba8"/>
    <path id="Path_19707" data-name="Path 19707" d="M164.049,216.8H165.1a1.5,1.5,0,0,0,.522-.074.58.58,0,0,0,.289-.241.679.679,0,0,0,.1-.359.622.622,0,0,0-.189-.467.837.837,0,0,0-.6-.181h-1.167V216.8Zm-.489,2.23V215.04H165.2a2.037,2.037,0,0,1,.748.107.842.842,0,0,1,.411.378,1.189,1.189,0,0,1,.152.6,1.038,1.038,0,0,1-.256.715,1.256,1.256,0,0,1-.785.37,1.278,1.278,0,0,1,.3.2,2.728,2.728,0,0,1,.407.53l.641,1.085H166.2l-.489-.83a6.451,6.451,0,0,0-.352-.548,1.183,1.183,0,0,0-.248-.267.765.765,0,0,0-.222-.107,1.5,1.5,0,0,0-.274-.019h-.567v1.77h-.485Z" transform="translate(-101.43 -132.787)" fill="#107ba8"/>
    <path id="Path_19708" data-name="Path 19708" d="M173.7,216.976a1.675,1.675,0,0,0,.359,1.137,1.188,1.188,0,0,0,1.807,0,1.793,1.793,0,0,0,.356-1.189,2.228,2.228,0,0,0-.152-.852,1.257,1.257,0,0,0-.444-.563,1.144,1.144,0,0,0-.659-.2,1.206,1.206,0,0,0-.893.385,1.8,1.8,0,0,0-.374,1.285m-.5-.007a2.272,2.272,0,0,1,.493-1.555,1.624,1.624,0,0,1,1.274-.563,1.659,1.659,0,0,1,1.548,1,2.534,2.534,0,0,1,.215,1.07,2.5,2.5,0,0,1-.226,1.085,1.641,1.641,0,0,1-.641.726,1.735,1.735,0,0,1-.9.244,1.651,1.651,0,0,1-.933-.27,1.705,1.705,0,0,1-.622-.744A2.388,2.388,0,0,1,173.2,216.968Z" transform="translate(-107.5 -132.667)" fill="#107ba8"/>
    <path id="Path_19709" data-name="Path 19709" d="M183.749,217.893l.441-.067a1.056,1.056,0,0,0,.159.626.488.488,0,0,0,.389.167.538.538,0,0,0,.318-.093.463.463,0,0,0,.185-.248,1.774,1.774,0,0,0,.052-.5V215.03h.489v2.718a2.164,2.164,0,0,1-.111.778.841.841,0,0,1-.356.419,1.1,1.1,0,0,1-.57.144.924.924,0,0,1-.744-.3,1.279,1.279,0,0,1-.252-.893" transform="translate(-114.142 -132.78)" fill="#107ba8"/>
    <path id="Path_19710" data-name="Path 19710" d="M191.41,219.032V215.04h2.67v.47H191.9v1.222h2.044v.467H191.9v1.359h2.267v.474Z" transform="translate(-118.966 -132.787)" fill="#107ba8"/>
    <path id="Path_19711" data-name="Path 19711" d="M203.058,217.513l.489.133a1.842,1.842,0,0,1-.552.993,1.463,1.463,0,0,1-.978.341,1.66,1.66,0,0,1-.97-.263,1.622,1.622,0,0,1-.57-.763,2.923,2.923,0,0,1-.2-1.07,2.562,2.562,0,0,1,.218-1.089,1.573,1.573,0,0,1,.626-.7,1.738,1.738,0,0,1,.9-.241,1.435,1.435,0,0,1,.933.3,1.6,1.6,0,0,1,.526.859l-.481.122a1.235,1.235,0,0,0-.374-.633.937.937,0,0,0-.615-.2,1.1,1.1,0,0,0-1.111.811,2.547,2.547,0,0,0-.115.767,2.577,2.577,0,0,0,.137.889,1.1,1.1,0,0,0,.426.567,1.128,1.128,0,0,0,.626.189,1.01,1.01,0,0,0,.7-.256,1.306,1.306,0,0,0,.389-.756" transform="translate(-124.551 -132.667)" fill="#107ba8"/>
    <path id="Path_19712" data-name="Path 19712" d="M211.195,219.032V215.51H209.98v-.47h2.926v.47h-1.222v3.522Z" transform="translate(-130.659 -132.787)" fill="#107ba8"/>
    <path id="Path_19713" data-name="Path 19713" d="M222.87,219.032V215.04h2.67v.47h-2.181v1.222H225.4v.467h-2.044v1.359h2.267v.474Z" transform="translate(-138.775 -132.787)" fill="#107ba8"/>
    <path id="Path_19714" data-name="Path 19714" d="M231.12,219.032l1.43-2.081-1.259-1.911h.581l.67,1.026a5.363,5.363,0,0,1,.3.489c.081-.144.181-.3.293-.456l.744-1.059h.53l-1.3,1.881,1.4,2.111h-.6l-.93-1.422c-.052-.081-.107-.17-.163-.267q-.122.217-.178.3l-.926,1.393h-.585Z" transform="translate(-143.969 -132.787)" fill="#107ba8"/>
    <path id="Path_19715" data-name="Path 19715" d="M243.808,217.513l.489.133a1.842,1.842,0,0,1-.552.993,1.462,1.462,0,0,1-.978.341,1.66,1.66,0,0,1-.97-.263,1.622,1.622,0,0,1-.57-.763,2.923,2.923,0,0,1-.2-1.07,2.562,2.562,0,0,1,.218-1.089,1.573,1.573,0,0,1,.626-.7,1.735,1.735,0,0,1,.893-.241,1.435,1.435,0,0,1,.933.3,1.6,1.6,0,0,1,.526.859l-.481.122a1.235,1.235,0,0,0-.374-.633.937.937,0,0,0-.615-.2,1.145,1.145,0,0,0-.711.219,1.134,1.134,0,0,0-.4.593,2.546,2.546,0,0,0-.115.767,2.577,2.577,0,0,0,.137.889,1.1,1.1,0,0,0,.426.567,1.128,1.128,0,0,0,.626.189,1.01,1.01,0,0,0,.7-.256,1.288,1.288,0,0,0,.393-.756" transform="translate(-150.209 -132.667)" fill="#107ba8"/>
    <path id="Path_19716" data-name="Path 19716" d="M251.5,219.032V215.04h2.667v.47h-2.178v1.222h2.041v.467h-2.041v1.359h2.267v.474Z" transform="translate(-156.802 -132.787)" fill="#107ba8"/>
    <path id="Path_19717" data-name="Path 19717" d="M260.7,219.032V215.04h.489v3.518h1.818v.474Z" transform="translate(-162.594 -132.787)" fill="#107ba8"/>
    <path id="Path_19718" data-name="Path 19718" d="M268.44,219.032V215.04h.489v3.518h1.818v.474Z" transform="translate(-167.468 -132.787)" fill="#107ba8"/>
    <path id="Path_19719" data-name="Path 19719" d="M276.27,219.032V215.04h2.667v.47h-2.178v1.222H278.8v.467h-2.041v1.359h2.267v.474Z" transform="translate(-172.398 -132.787)" fill="#107ba8"/>
    <path id="Path_19720" data-name="Path 19720" d="M285.51,219.032V215.04h.5l1.937,3.133V215.04h.47v3.992h-.5L285.98,215.9v3.137Z" transform="translate(-178.216 -132.787)" fill="#107ba8"/>
    <path id="Path_19721" data-name="Path 19721" d="M297.968,217.513l.489.133a1.842,1.842,0,0,1-.552.993,1.463,1.463,0,0,1-.978.341,1.66,1.66,0,0,1-.97-.263,1.622,1.622,0,0,1-.57-.763,2.923,2.923,0,0,1-.2-1.07,2.562,2.562,0,0,1,.219-1.089,1.573,1.573,0,0,1,.626-.7,1.735,1.735,0,0,1,.893-.241,1.435,1.435,0,0,1,.933.3,1.6,1.6,0,0,1,.526.859l-.481.122a1.235,1.235,0,0,0-.374-.633.937.937,0,0,0-.615-.2,1.145,1.145,0,0,0-.711.219,1.133,1.133,0,0,0-.4.593,2.545,2.545,0,0,0-.115.767,2.578,2.578,0,0,0,.137.889,1.1,1.1,0,0,0,.426.567,1.128,1.128,0,0,0,.626.189,1.01,1.01,0,0,0,.7-.256,1.288,1.288,0,0,0,.393-.756" transform="translate(-184.311 -132.667)" fill="#107ba8"/>
    <path id="Path_19722" data-name="Path 19722" d="M305.66,219.032V215.04h2.67v.47h-2.181v1.222h2.041v.467h-2.041v1.359h2.267v.474Z" transform="translate(-190.903 -132.787)" fill="#107ba8"/>
    <path id="Path_19723" data-name="Path 19723" d="M318.34,217.634l.459-.044a1.207,1.207,0,0,0,.152.493.866.866,0,0,0,.37.311,1.325,1.325,0,0,0,.567.118,1.271,1.271,0,0,0,.493-.089.683.683,0,0,0,.318-.248.6.6,0,0,0,.1-.341.56.56,0,0,0-.1-.33.74.74,0,0,0-.333-.233,6.643,6.643,0,0,0-.656-.2,3.224,3.224,0,0,1-.711-.248,1.039,1.039,0,0,1-.4-.37.982.982,0,0,1-.13-.5,1.054,1.054,0,0,1,.159-.563,1.024,1.024,0,0,1,.463-.4,1.678,1.678,0,0,1,.678-.137,1.728,1.728,0,0,1,.726.144,1.088,1.088,0,0,1,.481.419,1.288,1.288,0,0,1,.181.63l-.467.037a.841.841,0,0,0-.256-.57.937.937,0,0,0-.644-.193.979.979,0,0,0-.644.174.551.551,0,0,0-.2.422.472.472,0,0,0,.144.356,1.841,1.841,0,0,0,.737.285,4.448,4.448,0,0,1,.818.256,1.167,1.167,0,0,1,.478.407,1.039,1.039,0,0,1,.152.567,1.165,1.165,0,0,1-.167.6,1.146,1.146,0,0,1-.485.441,1.591,1.591,0,0,1-.711.156,1.957,1.957,0,0,1-.841-.159,1.2,1.2,0,0,1-.533-.474,1.45,1.45,0,0,1-.2-.722" transform="translate(-198.887 -132.673)" fill="#107ba8"/>
    <rect id="Rectangle_9447" data-name="Rectangle 9447" width="0.489" height="3.992" transform="translate(123.141 82.253)" fill="#107ba8"/>
    <path id="Path_19724" data-name="Path 19724" d="M331.93,219.032V215.04h.5l1.941,3.133V215.04h.467v3.992h-.5L332.4,215.9v3.137Z" transform="translate(-207.444 -132.787)" fill="#107ba8"/>
    <path id="Path_19725" data-name="Path 19725" d="M344.378,217.513l.489.133a1.842,1.842,0,0,1-.552.993,1.462,1.462,0,0,1-.978.341,1.66,1.66,0,0,1-.97-.263,1.622,1.622,0,0,1-.57-.763,2.923,2.923,0,0,1-.2-1.07,2.562,2.562,0,0,1,.219-1.089,1.573,1.573,0,0,1,.626-.7,1.738,1.738,0,0,1,.9-.241,1.435,1.435,0,0,1,.933.3,1.6,1.6,0,0,1,.526.859l-.481.122a1.235,1.235,0,0,0-.374-.633.937.937,0,0,0-.615-.2,1.1,1.1,0,0,0-1.111.811,2.547,2.547,0,0,0-.115.767,2.577,2.577,0,0,0,.137.889,1.1,1.1,0,0,0,.426.567,1.128,1.128,0,0,0,.626.189,1.01,1.01,0,0,0,.7-.256,1.285,1.285,0,0,0,.389-.756" transform="translate(-213.533 -132.667)" fill="#107ba8"/>
    <path id="Path_19726" data-name="Path 19726" d="M352.08,219.032V215.04h2.667v.47h-2.178v1.222h2.041v.467h-2.041v1.359h2.263v.474Z" transform="translate(-220.132 -132.787)" fill="#107ba8"/>
    <path id="Path_19727" data-name="Path 19727" d="M367,219.007h-.452v-3.122a2.282,2.282,0,0,1-.43.337,3.034,3.034,0,0,1-.478.252V216a2.821,2.821,0,0,0,.667-.467,1.945,1.945,0,0,0,.4-.533H367v4.007Z" transform="translate(-228.67 -132.762)" fill="#107ba8"/>
    <path id="Path_19728" data-name="Path 19728" d="M374.366,216.3a1,1,0,0,0-.207-.67.629.629,0,0,0-.5-.248.67.67,0,0,0-.526.267,1.044,1.044,0,0,0-.222.693.88.88,0,0,0,.215.618.67.67,0,0,0,.526.237.65.65,0,0,0,.518-.237,1.014,1.014,0,0,0,.2-.659m-1.855,1.759.437-.044a.846.846,0,0,0,.211.481.551.551,0,0,0,.4.148.644.644,0,0,0,.367-.1.814.814,0,0,0,.259-.278,1.8,1.8,0,0,0,.17-.467,2.707,2.707,0,0,0,.067-.6c0-.022,0-.056,0-.1a1.1,1.1,0,0,1-.37.378.952.952,0,0,1-.511.144,1,1,0,0,1-.778-.359,1.385,1.385,0,0,1-.318-.948,1.426,1.426,0,0,1,.33-.978,1.063,1.063,0,0,1,.83-.37,1.118,1.118,0,0,1,.659.211,1.279,1.279,0,0,1,.452.6,3.15,3.15,0,0,1,.156,1.122,3.992,3.992,0,0,1-.152,1.218,1.408,1.408,0,0,1-.459.689,1.12,1.12,0,0,1-.711.237.98.98,0,0,1-.707-.259A1.127,1.127,0,0,1,372.51,218.062Z" transform="translate(-232.951 -132.743)" fill="#107ba8"/>
    <path id="Path_19729" data-name="Path 19729" d="M380.19,218.066l.478-.044a.992.992,0,0,0,.244.567.646.646,0,0,0,.467.189.692.692,0,0,0,.552-.267,1.053,1.053,0,0,0,.226-.707.943.943,0,0,0-.219-.663.729.729,0,0,0-.57-.244.78.78,0,0,0-.674.385l-.426-.059.359-2.052h1.837v.467H380.99l-.2,1.074a1.15,1.15,0,0,1,.7-.252,1.067,1.067,0,0,1,.815.363,1.319,1.319,0,0,1,.333.93,1.518,1.518,0,0,1-.293.937,1.235,1.235,0,0,1-1.792.181,1.214,1.214,0,0,1-.359-.8" transform="translate(-237.831 -132.869)" fill="#107ba8"/>
    <path id="Path_19730" data-name="Path 19730" d="M388.01,215.65v-.47H390.4v.381a5.659,5.659,0,0,0-.7,1.078,6.776,6.776,0,0,0-.533,1.381,5.431,5.431,0,0,0-.174,1.1h-.467a5.257,5.257,0,0,1,.17-1.137,6.364,6.364,0,0,1,.47-1.285,5.455,5.455,0,0,1,.652-1.044Z" transform="translate(-242.755 -132.875)" fill="#107ba8"/>
  </g>
</svg>
