<svg xmlns="http://www.w3.org/2000/svg" width="42.712" height="56.948" viewBox="0 0 42.712 56.948">
  <g id="Group_44786" data-name="Group 44786" transform="translate(-191.289 -71.052)">
    <path id="Subtraction_3" data-name="Subtraction 3" d="M40.043,56.948H2.669A2.672,2.672,0,0,1,0,54.279V2.669A2.672,2.672,0,0,1,2.669,0H24.916V15.126a2.673,2.673,0,0,0,2.669,2.67H42.712V54.279A2.672,2.672,0,0,1,40.043,56.948ZM32.789,45.631v6.318h1.539V49.393h1.926V48.2H34.328V46.864H36.9V45.631Zm-6.723,0v6.318h2.367a3.7,3.7,0,0,0,1.741-.4,2.829,2.829,0,0,0,1.161-1.116,3.526,3.526,0,0,0,0-3.3,2.838,2.838,0,0,0-1.156-1.111,3.684,3.684,0,0,0-1.746-.4Zm-5.8,0v6.318h1.539V49.681h.954a2.745,2.745,0,0,0,1.3-.279,1.867,1.867,0,0,0,.774-.734,2.043,2.043,0,0,0,.252-1,2.1,2.1,0,0,0-.261-1.053,1.8,1.8,0,0,0-.783-.72,2.845,2.845,0,0,0-1.278-.261Zm-.407-24.28a2.536,2.536,0,0,0-2.544,1.673c-.56,2.049-.045,4.906.9,8.564a104.127,104.127,0,0,1-4.538,9.544h0a.014.014,0,0,0-.01.005.014.014,0,0,1-.011.005c-2.87,1.472-6.088,3.764-6.511,5.779A2.049,2.049,0,0,0,7.6,48.706a3.445,3.445,0,0,0,2.391,1.112c2,0,3.966-1.991,6.8-6.873.543-.179,1.107-.37,1.653-.555a47.743,47.743,0,0,1,7.134-2.026,16.726,16.726,0,0,0,7.119,2.169A2.666,2.666,0,0,0,35.377,40.9a3.109,3.109,0,0,0-.5-3.194c-.732-.716-2.209-1.08-4.391-1.08a29.67,29.67,0,0,0-3.8.279,11.114,11.114,0,0,1-4.749-5.984l.04-.166c.492-2.019,1.234-5.069.649-6.975A2.7,2.7,0,0,0,19.863,21.351Zm8.471,29.266H27.6V46.945h.729a1.687,1.687,0,0,1,1.845,1.845,1.816,1.816,0,0,1-.486,1.35A1.867,1.867,0,0,1,28.334,50.617Zm-5.688-2.16h-.837V46.873h.837a.92.92,0,0,1,.657.207.9.9,0,0,1,0,1.17A.923.923,0,0,1,22.646,48.457ZM9.589,47.624c-.01,0-.012,0-.012-.007.55-1.488,2.436-3.174,3.449-4.079.173-.155.323-.288.433-.392C11.187,46.789,9.73,47.624,9.589,47.624Zm7.3-6.915v0a49.826,49.826,0,0,0,3.158-6.971,14.426,14.426,0,0,0,3.837,4.538,28.953,28.953,0,0,0-5.45,1.814c-.537.221-1.045.43-1.543.621ZM33,40.237a11.413,11.413,0,0,1-4.071-1.163c.583-.042,1.123-.062,1.6-.062,2.233,0,3.154.43,3.264.8a.227.227,0,0,1-.107.265C33.686,40.082,33.545,40.237,33,40.237ZM20.233,28.485v0a11.993,11.993,0,0,1-.276-5.179.07.07,0,0,1,.054-.035.43.43,0,0,1,.357.259c.542.925.377,4.041-.133,4.955ZM42.712,14.237H28.475V0h.667a2.654,2.654,0,0,1,1.891.778l10.9,10.9a2.677,2.677,0,0,1,.778,1.88v.678Z" transform="translate(191.289 71.052)" fill="#ec1f1f"/>
  </g>
</svg>
