<svg xmlns="http://www.w3.org/2000/svg" width="154.27" height="75.86" viewBox="0 0 154.27 75.86">
  <g id="Layer_2" data-name="Layer 2" transform="translate(-0.004)">
    <g id="Layer_1" data-name="Layer 1" transform="translate(0.004 0)">
      <path id="Path_19731" data-name="Path 19731" d="M103.939,0A8.039,8.039,0,1,1,95.9,8.042,8.039,8.039,0,0,1,103.939,0" transform="translate(-64.563 0)" fill="#ef8922"/>
      <path id="Path_19732" data-name="Path 19732" d="M55.36,82.941h-23.2a1.225,1.225,0,0,1-1.219-1.212L30.757,48.4a1.232,1.232,0,0,1,.327-.833l3.461-3.794c-.546-.693-1.1-1.379-1.66-2.052A83.824,83.824,0,0,0,.751,17.839a1.217,1.217,0,1,1,.941-2.245A86.2,86.2,0,0,1,34.74,40.158c.5.591.98,1.19,1.467,1.8L64.585,10.911a1.225,1.225,0,0,1,1.725-.072L89.869,32.4A1.218,1.218,0,0,1,88.235,34.2L65.566,13.467,37.714,43.916c7.712,10.222,14.009,22.806,18.8,37.427a1.222,1.222,0,0,1-1.157,1.6m-22-2.438H53.677c-4.575-13.516-10.5-25.162-17.63-34.757l-2.853,3.108Z" transform="translate(-0.004 -7.081)" fill="#3e61ad"/>
      <path id="Path_19733" data-name="Path 19733" d="M419.8,141.564a1.468,1.468,0,0,0-.235-.582l-.693-1.052a3.054,3.054,0,0,0-2.323-1.49,1.941,1.941,0,0,0-.654.127,1.552,1.552,0,0,0-.529.327,2.487,2.487,0,0,0-.327.464,1.454,1.454,0,0,0-.111.575,1.493,1.493,0,0,0,.144.595,2.181,2.181,0,0,0,.376.595l.327.392a.6.6,0,0,0,.052.042h-13.4l.327.608v.225h1.026v6.392l1.059.654v-7.059h5.088v.925h-2.892l-.255.121-.137.19a.775.775,0,0,0-.029.281v.232l.072.281.275.572.15.225.15.2-.2.137-.16.131-.327.428a.863.863,0,0,0-.085.386,2.313,2.313,0,0,0,.235.957,3,3,0,0,0,.755.9,5.858,5.858,0,0,0,1.333.761l.373.137.592.19a1.285,1.285,0,0,0,.366.062l.676-.441a4.5,4.5,0,0,1-1.245-.193,3.428,3.428,0,0,1-1.869-1.255,1.906,1.906,0,0,1-.225-.886,2.087,2.087,0,0,1,.121-.435,1.408,1.408,0,0,1,.8-.5,3.958,3.958,0,0,1,.98-.134h.709l.493.072a.392.392,0,0,1,.327.4c0,.356-.281.624-.84.8l-.366.121a1.254,1.254,0,0,1-.343.078c-.124,0-.235.029-.327.036l.912.716.5-.147.373-.15c.6-.307.892-.67.892-1.082a1.549,1.549,0,0,0-.183-.7c-.307-.556-.98-.84-2.042-.84a2.779,2.779,0,0,0-.451.02,4.171,4.171,0,0,0-.451.059l-.748.206-.141-.059-.118-.147-.085-.2v-.444l.085-.163.154-.111.183-.052h2.974v-1.683h4.376v1.935h-1.35c-.268,0-.4.114-.4.327l.082.4.235.425.369.569.774,1.033.4.529.542.654.474.562.572.6.85-.425a6.144,6.144,0,0,1-.882-.595l-.745-.719-.624-.761a3.918,3.918,0,0,1-.451-.719,3.811,3.811,0,0,0,1.333-2.752l-.065-.556-.124-.533h2.631v6.392l1.065.654v-7.059h1.124v-.085h.088v-.693Zm-1.124,0h-2.2a1.392,1.392,0,0,1-.2-.163l-.242-.271-.134-.356-.046-.379.1-.5a1.307,1.307,0,0,1,.471-.533,1.1,1.1,0,0,1,.422-.072,2.248,2.248,0,0,1,1.667,1.069,3.772,3.772,0,0,1,.507.778l.15.425Z" transform="translate(-270.924 -93.2)" fill="#3e61ad"/>
      <path id="Path_19734" data-name="Path 19734" d="M201.021,148H184.316l.542.833H186.6v2.405l-.327.173-.382.124-.2.059-.167.026h-.781l-.353-.085-.327-.124-.252-.157.154-.121.252-.239a1.1,1.1,0,0,0,.167-.448v-.327a1.51,1.51,0,0,0-.216-.755,2.774,2.774,0,0,0-1.35-1.2,1.271,1.271,0,0,0-.693-.163h-.252l-.405.075-.278.078a1.574,1.574,0,0,0-.327.118l-.219.108-.307.15.588.846a1.307,1.307,0,0,1,.725-.405l.373-.1.35-.036a1.307,1.307,0,0,1,.83.284.654.654,0,0,1,.274.327,1.372,1.372,0,0,1,.059.448.6.6,0,0,1-.2.438,2.271,2.271,0,0,1-1.634.5h-.373l.654.827.441.072.477-.065.4-.167a1.163,1.163,0,0,1,.376.48,1.533,1.533,0,0,1,.111.631l-.016.268a1.8,1.8,0,0,1-.327.578,1.307,1.307,0,0,1-.98.327,2.066,2.066,0,0,1-1.15-.346,3.118,3.118,0,0,1-.964-1.1,3.706,3.706,0,0,1-.627-1.81l-.591.268.072.454a3.618,3.618,0,0,0,.435,1.046,8.751,8.751,0,0,0,1.163,1.634,2.614,2.614,0,0,0,1.869.853l.536-.059a2.1,2.1,0,0,0,1.046-.542,1.673,1.673,0,0,0,.474-1.17l-.118-.4-.356-.595-.2-.268.307.193.435.235a2.164,2.164,0,0,0,.471.183,2.49,2.49,0,0,0,.49.049h.3l.271-.088.212-.085.056-.029v2.977l1.029.683v-7.059H189.5v6.392l1.059.654V148.8h5.474v3.183l-.147.176a1.849,1.849,0,0,1-.431.327,3.19,3.19,0,0,1-.716.369,2.088,2.088,0,0,1-.631.1,2.709,2.709,0,0,1-.6-.075,1.365,1.365,0,0,1-.346-.222,1.163,1.163,0,0,1-.307-.8.869.869,0,0,1,.108-.408,1.072,1.072,0,0,1,.111-.2,2.082,2.082,0,0,1,1.382-.582,1.408,1.408,0,0,1,.451-.078h.359l.569.033-.634-.892h-.572a8.055,8.055,0,0,0-1.422.232,1.528,1.528,0,0,0-1.209,1.461,2.615,2.615,0,0,0,.154.892l.248.4a1.86,1.86,0,0,0,.252.327,2.382,2.382,0,0,0,1.7.676l.523-.056.654-.235.438-.193.078-.042v1.98l1.062.654v-7.059h1.892v6.392l1.062.654v-7.059h3.222v1.935h-1.216c-.157.065-.239.121-.252.167l-.065.137-.016.141a4.928,4.928,0,0,0,.908,1.961l.373.5.7.879.477.654.533.735.817-.369-.4-.294-.327-.327-.654-.827-.572-.758-.507-.7.356-.219.373-.327.255-.382a.6.6,0,0,0,.127-.252l.235.284.441.288a3.347,3.347,0,0,0,.824.235h.258a2.536,2.536,0,0,0,.67-.088l.5-.216v3.32l1.062.68v-7.075h1.127v-.069h.092V148Zm3.235.833H207.1v2.013a2.444,2.444,0,0,1-.725.392,2.4,2.4,0,0,1-.827.15h-.405l-.3-.075-.327-.1-.252-.167Z" transform="translate(-120.595 -99.636)" fill="#3e61ad"/>
      <path id="Path_19735" data-name="Path 19735" d="M308.993,141.335H292.441v-.075l-.268-.359-.219-.31-.235-.3-.2-.274-.242-.278-.654-.84-.578-.683a.19.19,0,0,0-.147-.046l-.1-.026-.327-.046H287.19l.6,1.052H289.4l.359.062a.654.654,0,0,1,.235.16l1.634,1.794.124.167H283.7v.833h1.987l.134.183c.026.02.043.078.065.176a.4.4,0,0,1,.039.219l.016.363-.036.31a.948.948,0,0,1-.539.624l-.438.118h-.68a2.994,2.994,0,0,0,.225,1.118,4.507,4.507,0,0,0,.654.843,2.615,2.615,0,0,0,.889.539,3.421,3.421,0,0,0,1.049.157l.258-.02a.682.682,0,0,1,.229-.029l.226-.059.252-.1a2.09,2.09,0,0,0,.435-.235l.235-.19v2.337l1.026.683v-7.059h1.8v6.392l1.062.654v-7.059h7.349v1.248H296.02a6.48,6.48,0,0,1,.595.418l.278.235a3.129,3.129,0,0,1,.52.716,1.761,1.761,0,0,1,.157.745.96.96,0,0,1-.327.654l-.255.124-.258.042a1.6,1.6,0,0,1-.98-.327,2.121,2.121,0,0,1-.719-1.029l-.206-.569a1.605,1.605,0,0,1-.127-.412,2.939,2.939,0,0,1-.036-.529l-.788.363.425,1.029.369.676a3.82,3.82,0,0,0,1.082,1.261,1.859,1.859,0,0,0,1.16.422,3.792,3.792,0,0,0,.654-.118,1.219,1.219,0,0,0,.507-.392,1.8,1.8,0,0,0,.369-1.088l-.049-.408-.141-.408-.232-.327-.15-.176h2.091v4.278l1.026.654v-7.059h6.081v1.791h-4.314a.4.4,0,0,0-.271.353v.137l.454.591.2.278.373.428.608.654.131.088h.141c.2,0,.3-.095.3-.284v-1.415h2.379v3.745l1.026.686v-7.059h1.941v6.392l1.062.654v-7.059h1.291v-.069h.085v-.735ZM288.7,144.962l-.2.2-.369.294-.353.206-.327.131-.327.088a1.221,1.221,0,0,1-.327.033,1.973,1.973,0,0,1-1.48-.471l-.1-.1-.2-.327.484-.046.255-.088.271-.092a1.111,1.111,0,0,0,.435-.327,1.634,1.634,0,0,0,.389-1.082l-.065-.4-.2-.438-.2-.35-.016-.049H288.7Z" transform="translate(-190.993 -92.971)" fill="#3e61ad"/>
      <path id="Path_19736" data-name="Path 19736" d="M372.06,158.829h4.892v-.075h.078v-.644h-4.97Z" transform="translate(-250.478 -106.442)" fill="#3e61ad"/>
      <path id="Path_19737" data-name="Path 19737" d="M394.656,150.665a3.574,3.574,0,0,0-.239-1.337,1.993,1.993,0,0,0-1.353-1.242,2.144,2.144,0,0,0-.735-.118,2.941,2.941,0,0,0-.758.1l-.418.147a1.173,1.173,0,0,0-.686,1.085,1.766,1.766,0,0,0,1.062,1.585,4.337,4.337,0,0,0,2.062.572l-.095.248-.118.16a2.547,2.547,0,0,1-.582.513l-.3.144a1.5,1.5,0,0,0-1.029-.379l-.441.062-.353.173a.764.764,0,0,0-.327.654l.088.4a1.412,1.412,0,0,0,.523.408,2.366,2.366,0,0,0,.408.147h.3l.49-.072.327-.17.327.614.2.376.359.559.379.516.774-.409-.513-.562-.327-.425-.376-.477-.3-.418a4.249,4.249,0,0,0,.637-.477,2.614,2.614,0,0,0,.51-.621,2.426,2.426,0,0,0,.376-.83c.046-.19.088-.327.1-.428a3.767,3.767,0,0,0,.026-.484h0Zm-.843-.18-.056.294-.029.078-.618-.078-.5-.114a2.245,2.245,0,0,1-.872-.493.931.931,0,0,1-.271-.673l.052-.327a.879.879,0,0,1,.248-.255.905.905,0,0,1,.654-.291,1.781,1.781,0,0,1,.654.131,1.471,1.471,0,0,1,.716,1.441Z" transform="translate(-262.79 -99.615)" fill="#3e61ad"/>
      <path id="Path_19738" data-name="Path 19738" d="M276.965,101.591a1.49,1.49,0,0,0-.242-.588l-.686-1.033a3.084,3.084,0,0,0-2.323-1.49,1.82,1.82,0,0,0-.67.127,1.634,1.634,0,0,0-.533.327,2.425,2.425,0,0,0-.327.467,1.359,1.359,0,0,0-.121.572,1.582,1.582,0,0,0,.147.591,2.288,2.288,0,0,0,.386.569l.327.4a.681.681,0,0,1,.056.046H260.75v.83h1.516v2.539h-.621c-.225.039-.327.147-.327.327a.677.677,0,0,0,.157.386,2.514,2.514,0,0,0,.216.288,2.794,2.794,0,0,0,.219.245,1.817,1.817,0,0,0,1.111.575.327.327,0,0,0,.327-.379V105.8h2.595v2.984l1.013.68V102.4h6.16v2.876l-1.582-1.5-.088-.059-.085-.078h-.366l-.631.029-2.15.291.6,1,2.144-.438h.255l.163.085.876.631.386.3-3.814,1.343.621.944,3.666-1.588v2.585l1.062.67v-7.1h1.889v6.376l1.065.67V102.4h1.124v-.085h.082v-.729Zm-13.633.83h2.595v2.539h-2.595Zm12.062-.83h-1.758a2.182,2.182,0,0,1-.2-.16l-.232-.281-.141-.353-.049-.376.1-.5a1.35,1.35,0,0,1,.477-.529,1.2,1.2,0,0,1,.422-.072,2.228,2.228,0,0,1,1.663,1.069,3.405,3.405,0,0,1,.5.774l.157.431Z" transform="translate(-175.542 -66.298)" fill="#3e61ad"/>
      <path id="Path_19739" data-name="Path 19739" d="M277.974,100.8l-.069-.042.052-.059-.948-.774-.99.833,1.013.879Z" transform="translate(-185.822 -67.268)" fill="#3e61ad"/>
      <path id="Path_19740" data-name="Path 19740" d="M209.559,107.987h-6.372l.392.8h.016v.026h1.029v3.562a1.673,1.673,0,0,1-.722.444l-.359.141a2.81,2.81,0,0,1-.908.134l-.477-.042-.379-.147a.745.745,0,0,1-.373-.588c.046-.346.327-.595.82-.742a2.33,2.33,0,0,1,.591-.167,2.288,2.288,0,0,1,.386-.056h.274l.474.056-.98-.9h-.523l-.2.033-.206.046-.15.046-.183-.092-.268-.232-.157-.163a1.614,1.614,0,0,1-.3-.634l.065-.288a.739.739,0,0,1,.206-.242,1.091,1.091,0,0,1,.588-.2c.353,0,.526.131.526.4v.163l-.072.085-.069.042h-.418l.81.654.284-.147.147-.131c.052-.033.072-.118.072-.268V109.2a1.235,1.235,0,0,0-1-1.137,2.615,2.615,0,0,0-.654-.085,1.429,1.429,0,0,0-1.415,1.232,1.412,1.412,0,0,0,.154.654,3.92,3.92,0,0,0,.487.582l.422.307.167.091-.248.114-.327.222-.2.281-.059.35a2.072,2.072,0,0,0,.2.853,2.421,2.421,0,0,0,1.441,1.056,2.12,2.12,0,0,0,.425.108h.559a3.081,3.081,0,0,0,1.013-.157,3.028,3.028,0,0,0,.52-.229v1.732l1.059.67V108.8h1.833v6.376l1.065.67V108.8h6.052v1.778h-4.271c-.186.088-.274.2-.274.327l-.016.147.458.585.2.281.376.422.6.654.137.088h.134c.206,0,.3-.095.3-.274v-1.425h2.379v3.794l1.026.683V108.8h1.307v-.072h.059v-.742Z" transform="translate(-134.678 -72.694)" fill="#3e61ad"/>
      <path id="Path_19741" data-name="Path 19741" d="M178.456,108.814h.729v2.572a.607.607,0,0,0,.1.19c.059.095.1.16.137.209l.673.706a5.1,5.1,0,0,0,.892.748l.059.029-2.614,1.212.582.765,3.9-2.016v2.039l1.013.676v-7.13h1.18v-.075h.082V108h-6.725Zm1.784,0h2.667v3.307l-.134.095a1.248,1.248,0,0,1-.366.176l-.327.118a1.961,1.961,0,0,1-.654.134l-.3-.059-.327-.209-.359-.327a.552.552,0,0,1-.206-.274Z" transform="translate(-120.123 -72.707)" fill="#3e61ad"/>
      <path id="Path_19742" data-name="Path 19742" d="M178.77,187.8h.98V184.75h.529c.925,0,1.546-.716,1.546-2.287,0-1.15-.343-2.287-1.333-2.287H178.77Zm.98-6.516h.4c.49,0,.68.435.68,1.18s-.268,1.144-.654,1.144h-.438Zm2.526,6.516h.948v-3.457c0-.774.369-1.042.693-1.042a2.222,2.222,0,0,1,.291.023V181.91a.725.725,0,0,0-.167-.02c-.392,0-.654.356-.846.918h0v-.774h-.918Zm3.1-4v-.163c0-.451.147-.752.438-.752s.438.271.438.709c0,.382-.095.556-.376.673l-.529.225c-.654.281-.931.719-.931,1.8,0,.771.235,1.654.889,1.654.451,0,.712-.154.931-.752h0a3.943,3.943,0,0,0,.111.6h.9a3.705,3.705,0,0,1-.111-1.114v-3.026c0-1.042-.216-1.771-1.333-1.771-.706,0-1.288.448-1.288,1.778v.137Zm.876,2.252c0,.631-.327.889-.582.889s-.353-.363-.353-.8c0-.516.147-.807.529-.935a1.14,1.14,0,0,0,.405-.291Zm2.415-1.137c0-1.252.085-1.9.493-1.9s.5.654.5,1.9-.085,1.9-.5,1.9-.493-.654-.493-1.9M189.7,187.8h.905v-7.653h-.941v2.418h0c-.2-.454-.435-.676-.794-.676-.765,0-1.124.889-1.124,3.029s.359,3.036,1.124,3.036c.369,0,.627-.225.837-.761h0Zm1.523,0h.941v-3.833c0-.654.18-.957.5-.957s.4.225.4.81v3.97H194v-4.265c0-1.134-.327-1.634-.928-1.634a.954.954,0,0,0-.9.735h0v-2.477h-.941Zm4.248-4v-.163c0-.451.15-.752.435-.752s.438.271.438.709c0,.382-.092.556-.373.673l-.533.225c-.654.281-.925.719-.925,1.8,0,.771.225,1.654.892,1.654.441,0,.709-.154.925-.752h0a3.268,3.268,0,0,0,.114.6h.9a3.6,3.6,0,0,1-.114-1.114v-3.026c0-1.042-.212-1.771-1.333-1.771-.706,0-1.288.448-1.288,1.778v.137Zm.873,2.252c0,.631-.327.889-.578.889s-.353-.363-.353-.8c0-.516.15-.807.529-.935a1.1,1.1,0,0,0,.4-.291Zm1.565,1.745h.948v-3.833c0-.654.17-.957.49-.957s.4.225.4.81v3.97h.941v-4.265c0-1.134-.346-1.634-.931-1.634-.4,0-.732.255-.935.82h0v-.676h-.9Zm5.1,0h.9v-6.121h0l.863,6.108h.765l.882-6.108h0v6.108h.9v-7.64H205.87l-.706,5.4h0l-.7-5.4h-1.441Zm5.833-4v-.163c0-.451.15-.752.435-.752s.441.271.441.709c0,.382-.1.556-.376.673l-.529.225c-.654.281-.931.719-.931,1.8,0,.771.229,1.654.882,1.654.454,0,.719-.154.935-.752h.02a3.019,3.019,0,0,0,.111.6h.9a3.6,3.6,0,0,1-.111-1.114v-3.026c0-1.042-.212-1.771-1.33-1.771-.709,0-1.291.448-1.291,1.778v.137Zm.876,2.252c0,.631-.327.889-.582.889s-.356-.363-.356-.8c0-.516.144-.807.533-.935a1.265,1.265,0,0,0,.405-.291Zm1.559,1.745h.941v-3.833c0-.654.183-.957.5-.957s.4.225.4.81v3.97h.941v-4.265c0-1.134-.346-1.634-.935-1.634-.4,0-.739.255-.938.82h0v-.676h-.9Zm3.614-5.768h-.484v1.01h.484v3.3c0,1.163.137,1.52.873,1.52a3.841,3.841,0,0,0,.614-.065v-1.026a1.511,1.511,0,0,1-.209.02c-.275,0-.327-.18-.327-.631v-3.121h.546v-1.01h-.546V180.4H214.9Zm1.81,5.768h.935v-3.457c0-.774.376-1.042.7-1.042a2.289,2.289,0,0,1,.294.023V181.91a.768.768,0,0,0-.176-.02c-.382,0-.654.356-.84.918h0v-.774h-.9Zm2.287,0h.941v-5.768h-.925Zm0-6.474h.941V180.07h-.925Zm2.941,6.474h1.029l.225-1.634h1.307l.229,1.634h1.016l-1.288-7.653h-1.209Zm1.886-6.323h.02l.464,3.441h-.954Zm2.614,6.323h1.1L228,183.71h.016l.484,4.091h1.065l.784-5.768h-.892l-.444,4.1h0l-.493-4.1H227.5l-.461,4.1h0l-.431-4.1h-.941Zm5.3-4v-.163c0-.451.154-.752.441-.752s.435.271.435.709c0,.382-.095.556-.373.673l-.536.225c-.654.281-.925.719-.925,1.8,0,.771.235,1.654.886,1.654.454,0,.712-.154.935-.752h0a3.025,3.025,0,0,0,.114.6h.9a3.6,3.6,0,0,1-.111-1.114v-3.026c0-1.042-.216-1.771-1.33-1.771-.712,0-1.288.448-1.288,1.778v.137Zm.876,2.252c0,.631-.327.889-.575.889s-.359-.363-.359-.8c0-.516.15-.807.529-.935a1.062,1.062,0,0,0,.405-.291Zm1.408-.144v.206c0,1.1.3,1.837,1.356,1.837.784,0,1.356-.6,1.356-1.81,0-.869-.212-1.343-.814-1.654l-.562-.3a.689.689,0,0,1-.408-.67c0-.415.2-.627.438-.627.327,0,.422.291.422.866h.846v-.232c0-1.039-.405-1.634-1.261-1.634-.961,0-1.337.781-1.337,1.735a1.657,1.657,0,0,0,.774,1.6l.654.376a.676.676,0,0,1,.327.654c0,.457-.193.683-.477.683s-.49-.327-.49-.837v-.18Zm4.529-5.764,1.255,4.64V187.8h.98v-3.013l1.261-4.64h-1.065l-.673,2.957h-.02l-.654-2.957Zm3.17,4.771c0,2.006.31,3.065,1.441,3.036,1.078,0,1.444-1.065,1.444-3.036s-.31-3.065-1.444-3.029c-1.075,0-1.441,1.056-1.441,3.029m.935,0c0-1.176.042-2.026.507-2.026.379,0,.5.588.5,2.026s-.124,2.026-.5,2.026c-.464,0-.507-.846-.507-2.026m2.49,2.778c0,.627-.033.925-.373.925a.327.327,0,0,1-.144-.023v1.072c.127,0,.268.023.379.023.846,0,1.078-.529,1.078-1.5v-6.163h-.928Zm0-6.369h.941V180.07h-.928Zm2.441,2.477v-.163c0-.451.144-.752.438-.752s.431.271.431.709c0,.382-.1.556-.376.673l-.526.225c-.654.281-.931.719-.931,1.8,0,.771.235,1.654.882,1.654.454,0,.722-.154.938-.752h0a3.592,3.592,0,0,0,.114.6h.9a3.489,3.489,0,0,1-.114-1.114v-3.026c0-1.042-.206-1.771-1.327-1.771-.706,0-1.288.448-1.288,1.778v.137Zm.869,2.252c0,.631-.327.889-.582.889s-.353-.363-.353-.8c0-.516.15-.807.533-.935a1.1,1.1,0,0,0,.4-.291Zm1.569,1.745h.938v-3.833c0-.654.176-.957.493-.957s.405.225.405.81v3.97h.941v-4.265c0-1.134-.346-1.634-.935-1.634-.392,0-.735.255-.931.82h0v-.676h-.9Zm4.248-4v-.163c0-.451.147-.752.435-.752s.441.271.441.709c0,.382-.1.556-.379.673l-.529.225c-.654.281-.931.719-.931,1.8,0,.771.235,1.654.889,1.654.448,0,.716-.154.931-.752h.02a3.021,3.021,0,0,0,.111.6h.9a3.677,3.677,0,0,1-.118-1.114v-3.026c0-1.042-.209-1.771-1.327-1.771-.709,0-1.307.448-1.307,1.778v.137Zm.876,2.252c0,.631-.327.889-.582.889s-.359-.363-.359-.8c0-.516.154-.807.536-.935a1.2,1.2,0,0,0,.405-.291Zm1.546-.719h1.925V184.07h-1.925Zm2.506-5.189v5.34c0,2.046.755,2.467,1.549,2.467s1.549-.516,1.549-2.467v-5.34h-.98v5.34c0,.761-.118,1.333-.575,1.333s-.572-.572-.572-1.333v-5.34Zm3.7,7.653h.931v-3.457c0-.774.373-1.042.7-1.042a2.288,2.288,0,0,1,.294.023V181.91a.749.749,0,0,0-.167-.02c-.4,0-.654.356-.853.918h0v-.774h-.9Zm3.206-2.882c0-1.252.088-1.9.5-1.9s.49.654.49,1.9-.082,1.9-.49,1.9-.5-.654-.5-1.9m-.938,2.882h.9v-.608h0c.2.536.457.761.823.761.778,0,1.131-.892,1.131-3.036s-.353-3.029-1.131-3.029c-.35,0-.588.222-.784.676h0v-2.418h-.938Zm4.248-4v-.163c0-.451.157-.752.435-.752s.438.271.438.709c0,.382-.091.556-.373.673l-.533.225c-.654.281-.925.719-.925,1.8,0,.771.232,1.654.886,1.654.444,0,.716-.154.928-.752h.016a3.951,3.951,0,0,0,.118.6h.9a3.557,3.557,0,0,1-.121-1.114v-3.026c0-1.042-.206-1.771-1.327-1.771-.709,0-1.288.448-1.288,1.778v.137Zm.873,2.252c0,.631-.327.889-.575.889s-.34-.363-.34-.8c0-.516.157-.807.536-.935a1.154,1.154,0,0,0,.4-.291Zm1.569,1.745h.941v-3.833c0-.654.176-.957.493-.957s.4.225.4.81v3.97h.938v-4.265c0-1.134-.327-1.634-.925-1.634-.392,0-.739.255-.935.82h0v-.676h-.9Z" transform="translate(-120.352 -121.226)" fill="#ef8922"/>
    </g>
  </g>
</svg>
