<svg version="1.2" xmlns="http://www.w3.org/2000/svg" viewBox="0 0 29 19" width="29" height="19">
	<title>read-more-svg</title>
	<style>
		.s0 { fill: #da0000 } 
	</style>
	<g id="next-2">
		<g id="Group_37288">
			<g id="Group_37287">
				<path id="Path_41752" class="s0" d="m0.1 9.6q0.1-0.2 0.2-0.4 0.1-0.1 0.3-0.2 0.2-0.1 0.4-0.1h24.3l-6.4-6.3c-0.2-0.2-0.3-0.5-0.3-0.7 0-0.3 0.1-0.6 0.3-0.8 0.2-0.2 0.5-0.3 0.7-0.3 0.3 0 0.6 0.2 0.7 0.4l8.1 8q0.2 0.2 0.2 0.4 0.1 0.1 0.1 0.3 0 0.2-0.1 0.4 0 0.2-0.2 0.3l-8 8.1q-0.3 0.3-0.7 0.3-0.5 0-0.7-0.3-0.3-0.3-0.3-0.7 0-0.4 0.2-0.7l6.4-6.4h-24.3q-0.2 0-0.4 0-0.2-0.1-0.3-0.2-0.1-0.2-0.2-0.4-0.1-0.2-0.1-0.4 0-0.2 0.1-0.3z"/>
			</g>
		</g>
	</g>
</svg>