<svg xmlns="http://www.w3.org/2000/svg" width="80" height="80" viewBox="0 0 80 80">
  <g id="Group_44697" data-name="Group 44697" transform="translate(-448 -1914)">
    <rect id="Rectangle_9405" data-name="Rectangle 9405" width="80" height="80" transform="translate(448 1914)" fill="#fff"/>
    <g id="Group_44710" data-name="Group 44710" transform="translate(740.411 1678.67)">
      <path id="Path_16013" data-name="Path 16013" d="M-287.888,265.463a26.075,26.075,0,0,1,26.126-26.133,26.029,26.029,0,0,1,26.146,26.259,26.076,26.076,0,0,1-26.16,26.022A26.126,26.126,0,0,1-287.888,265.463Zm26.132,21.255a25.732,25.732,0,0,0,4.894-.466,24.06,24.06,0,0,0,7.327-3.362,20.064,20.064,0,0,0,3.758-3.419,19.982,19.982,0,0,0,1.417-1.745,21.977,21.977,0,0,0,2.54-4.846,22.067,22.067,0,0,0,.921-3,19.773,19.773,0,0,0,.329-2.818,22.517,22.517,0,0,0-.411-6.437,18.453,18.453,0,0,0-.945-2.819,20.743,20.743,0,0,0-4.314-6.861,20.959,20.959,0,0,0-5.685-4.317,21.912,21.912,0,0,0-5-1.931,22.641,22.641,0,0,0-3.176-.4,21.1,21.1,0,0,0-6.52.406,21.951,21.951,0,0,0-7.145,3.214,21.965,21.965,0,0,0-2.312,1.873,19.575,19.575,0,0,0-3.19,3.588,20.067,20.067,0,0,0-2.125,3.959,24.1,24.1,0,0,0-1.173,3.453,19.938,19.938,0,0,0-.414,5.654,21.77,21.77,0,0,0,.488,4.012,21.764,21.764,0,0,0,3.793,7.88,21.109,21.109,0,0,0,4.376,4.311,22.42,22.42,0,0,0,7.592,3.574A20.078,20.078,0,0,0-261.757,286.718Z" fill="#f7a325"/>
      <path id="Path_16014" data-name="Path 16014" d="M-206.152,328.328a26.6,26.6,0,0,0,7.565-7.545c.126.116.237.21.34.312l12.4,12.408q3.608,3.609,7.218,7.216a5.339,5.339,0,0,1-.149,7.786,5.2,5.2,0,0,1-4.418,1.323,5.37,5.37,0,0,1-3.1-1.626q-4.279-4.289-8.568-8.569l-9.225-9.224-1.888-1.889C-206.028,328.467-206.076,328.411-206.152,328.328Z" transform="translate(-39.919 -39.781)" fill="#f7a325"/>
      <path id="Path_16015" data-name="Path 16015" d="M-246.117,281.452c.59,0,1.18,0,1.769,0a7.218,7.218,0,0,1,6.258,3.327,9.805,9.805,0,0,1,1.7,4.943c.011.13,0,.261,0,.413h-20.378c.046-.407.076-.813.138-1.215a9.286,9.286,0,0,1,2.77-5.5,6.96,6.96,0,0,1,4.917-1.967c.526,0,1.051,0,1.577,0a2.292,2.292,0,0,0,.349-.028,5.592,5.592,0,0,1-4.7-5.006,6.163,6.163,0,0,1,1.506-5.147,4.773,4.773,0,0,1,7.409.116,6.492,6.492,0,0,1-.2,8.43A5.317,5.317,0,0,1-246.117,281.452Z" transform="translate(-15.2 -14.766)" fill="#f7a325"/>
    </g>
  </g>
</svg>
