<svg xmlns="http://www.w3.org/2000/svg" width="80" height="80" viewBox="0 0 80 80">
  <g id="Group_44697" data-name="Group 44697" transform="translate(-448 -1914)">
    <rect id="Rectangle_9405" data-name="Rectangle 9405" width="80" height="80" transform="translate(448 1914)" fill="#fff"/>
    <g id="Group_44711" data-name="Group 44711" transform="translate(1322.817 1984.141)">
      <path id="Path_16016" data-name="Path 16016" d="M-860.166,16.656v-.911q0-17.636,0-35.273c0-.294,0-.589.025-.881a2.676,2.676,0,0,1,2.887-2.779c2.137-.008,4.274,0,6.411,0,.19,0,.379.021.65.037,0,.453,0,.875,0,1.3A33.033,33.033,0,0,0-847.666-8.4a28.343,28.343,0,0,0,10.61,12.38,42.518,42.518,0,0,0,7.864,4.09,1.264,1.264,0,0,0,.856.066,36.985,36.985,0,0,0,13.4-8.63,27.148,27.148,0,0,0,7.354-15.484c.316-2.341.391-4.718.584-7.18.085-.006.289-.032.493-.032q3.173,0,6.347,0c1.843,0,2.843.99,2.965,2.912.013.2.015.407.015.61q0,17.806,0,35.612v.711Z" transform="translate(-6.582 -27.587)" fill="#f7a325"/>
      <path id="Path_16017" data-name="Path 16017" d="M-812.162-70.141a24.631,24.631,0,0,0,18.073,10.4v.7c-.005,4.047.04,8.095-.028,12.14-.1,6.128-1.562,11.783-5.253,16.588a31.842,31.842,0,0,1-10.305,8.315,4.589,4.589,0,0,1-4.941,0c-4.4-2.406-8.383-5.315-11.293-9.717a25.383,25.383,0,0,1-4.021-11.677c-.533-5.386-.184-10.8-.253-16.194a.835.835,0,0,1,.063-.187,23.344,23.344,0,0,0,9.994-3.085A25.047,25.047,0,0,0-812.162-70.141Zm5.661,23.087c0-1.54.051-3.008-.011-4.469a5.511,5.511,0,0,0-3.444-5.236,5.534,5.534,0,0,0-7.4,3.176,10.394,10.394,0,0,0-.431,2.846c-.071,1.209-.017,2.426-.017,3.675l-1.134.075a2.52,2.52,0,0,0-.055.353c0,2.08-.036,4.16,0,6.238a6.14,6.14,0,0,0,1.583,4.3,7.091,7.091,0,0,0,7.078,1.987,6.129,6.129,0,0,0,5.01-6.118c.116-2.185.018-4.383.012-6.575,0-.058-.051-.115-.086-.189Z" transform="translate(-23.111)" fill="#f7a325"/>
      <path id="Path_16018" data-name="Path 16018" d="M-835.258,87.581q-16.78,0-33.561-.015a4.452,4.452,0,0,1-1.7-.355,2.636,2.636,0,0,1-1.362-3.5c.969-2.729,2.032-5.423,3.065-8.128.256-.671.513-1.346.83-1.986a1.283,1.283,0,0,1,.612-.437,1.13,1.13,0,0,1,.451-.011q31.7,0,63.408-.016a1.06,1.06,0,0,1,1.177.828c1.18,3.154,2.463,6.267,3.608,9.434.868,2.4-.417,4.186-2.9,4.187Q-818.444,87.585-835.258,87.581Zm.013-7.063c2.562,0,5.123.005,7.685,0a1.45,1.45,0,0,0,1.594-1.419c.095-1.112-.568-1.79-1.777-1.792q-5.959-.007-11.918,0c-1.085,0-2.171-.014-3.256,0a1.49,1.49,0,0,0-1.594,1.205,1.539,1.539,0,0,0,1.517,2C-840.411,80.527-837.828,80.517-835.244,80.518Z" transform="translate(0 -82.178)" fill="#f7a325"/>
      <path id="Path_16019" data-name="Path 16019" d="M-789.558-31.113l1.2.059c.038.074.094.131.094.189.007,2.192.113,4.39-.013,6.575a6.279,6.279,0,0,1-5.424,6.118,8.1,8.1,0,0,1-7.663-1.987,5.873,5.873,0,0,1-1.713-4.3c-.044-2.078-.009-4.159,0-6.238a2.344,2.344,0,0,1,.06-.353l1.227-.075c0-1.249-.058-2.466.019-3.675a9.666,9.666,0,0,1,.467-2.846,6.158,6.158,0,0,1,8.013-3.176,5.523,5.523,0,0,1,3.728,5.236C-789.5-34.121-789.558-32.654-789.558-31.113Zm-9.629-.017h7.039c0-1.6.091-3.161-.024-4.706a3.269,3.269,0,0,0-3.461-2.863,3.275,3.275,0,0,0-3.528,2.864C-799.282-34.292-799.187-32.731-799.187-31.13Zm4.5,10.137c0-.4.016-.737,0-1.069a1.75,1.75,0,0,1,.616-1.644,2.111,2.111,0,0,0-.012-3.033,2.207,2.207,0,0,0-3.059-.1,2.081,2.081,0,0,0-.2,3.018,2.309,2.309,0,0,1,.7,2.086c-.013.237,0,.476,0,.74Z" transform="translate(-39.588 -16.658)" fill="#fff"/>
      <path id="Path_16020" data-name="Path 16020" d="M-794.4-27.956c0-1.6-.1-3.162.025-4.705a3.275,3.275,0,0,1,3.528-2.864,3.269,3.269,0,0,1,3.461,2.863c.115,1.545.024,3.1.024,4.706Z" transform="translate(-44.37 -19.783)" fill="#f7a325"/>
      <path id="Path_16021" data-name="Path 16021" d="M-788.282-3.892h-1.961c0-.263-.01-.5,0-.74a2.309,2.309,0,0,0-.7-2.086,2.081,2.081,0,0,1,.2-3.018,2.207,2.207,0,0,1,3.059.1,2.111,2.111,0,0,1,.012,3.033,1.751,1.751,0,0,0-.616,1.644C-788.266-4.629-788.282-4.3-788.282-3.892Z" transform="translate(-45.993 -34.179)" fill="#f7a325"/>
    </g>
  </g>
</svg>
