<svg xmlns="http://www.w3.org/2000/svg" width="147.812" height="41.876" viewBox="0 0 147.812 41.876">
  <g id="Group_44772" data-name="Group 44772" transform="translate(-4828 -6233.4)">
    <path id="Path_19743" data-name="Path 19743" d="M18.8,251.654l1.829-2.595a6.868,6.868,0,0,0,4.977,2.127c1.85,0,2.722-.829,2.722-1.723,0-2.722-9-.808-9-6.721,0-2.595,2.254-4.743,5.934-4.743a8.686,8.686,0,0,1,6.083,2.169l-1.872,2.488a6.69,6.69,0,0,0-4.53-1.7c-1.4,0-2.191.6-2.191,1.553,0,2.446,8.954.787,8.954,6.614,0,2.871-2.063,5.019-6.253,5.019a9.092,9.092,0,0,1-6.657-2.488Z" transform="translate(4855.777 6002.164)" fill="#333e7e" fill-rule="evenodd"/>
    <path id="Path_19744" data-name="Path 19744" d="M97.016,254.711l-2.978-4.339-1.361,1.446v2.892H89.7V239.1h2.978v9.337l4.275-5.019h3.658l-4.488,5.126,4.615,6.168Z" transform="translate(4799.956 6001.297)" fill="#333e7e" fill-rule="evenodd"/>
    <path id="Path_19745" data-name="Path 19745" d="M261,239.1h3.318v15.611H261Z" transform="translate(4665.087 6001.297)" fill="#333e7e" fill-rule="evenodd"/>
    <path id="Path_19746" data-name="Path 19746" d="M298.335,269.67v-6.827c0-1.553-.808-2.127-2.063-2.127a3.437,3.437,0,0,0-2.595,1.319v7.635H290.7V258.376h2.978v1.446a5.259,5.259,0,0,1,3.977-1.723c2.488,0,3.7,1.4,3.7,3.594v8h-3.02Z" transform="translate(4641.704 5986.338)" fill="#333e7e" fill-rule="evenodd"/>
    <path id="Path_19747" data-name="Path 19747" d="M359.607,254.711v-1.446a4.3,4.3,0,0,1-3.488,1.744c-2.829,0-5.019-2.148-5.019-5.934,0-3.679,2.148-5.934,5.019-5.934a4.279,4.279,0,0,1,3.488,1.723V239.1h2.978v15.611Zm0-3.637v-4.02a3.3,3.3,0,0,0-2.552-1.319c-1.723,0-2.871,1.361-2.871,3.3,0,1.957,1.17,3.318,2.871,3.318a3.2,3.2,0,0,0,2.552-1.276Z" transform="translate(4594.15 6001.297)" fill="#333e7e" fill-rule="evenodd"/>
    <path id="Path_19748" data-name="Path 19748" d="M417.7,238.665a1.776,1.776,0,1,1,1.765,1.787,1.775,1.775,0,0,1-1.765-1.787Zm.3,3.02h2.978v11.293H418V241.685Zm0,11.293v0Z" transform="translate(4541.714 6003.03)" fill="#333e7e" fill-rule="evenodd"/>
    <path id="Path_19749" data-name="Path 19749" d="M451.186,269.591V268.4a4.623,4.623,0,0,1-3.573,1.467,3.744,3.744,0,0,1-3.913-3.743c0-2.68,2.105-3.658,3.913-3.658a4.473,4.473,0,0,1,3.573,1.4v-1.425c0-1.148-1-1.914-2.467-1.914a4.772,4.772,0,0,0-3.254,1.319l-1.17-2.063A7.214,7.214,0,0,1,449.23,258c2.595,0,4.955,1.042,4.955,4.3v7.295Zm0-2.7v-1.4a2.961,2.961,0,0,0-2.382-1c-1.17,0-2.127.617-2.127,1.7s.957,1.68,2.127,1.68a3.014,3.014,0,0,0,2.382-.978Z" transform="translate(4521.244 5986.417)" fill="#333e7e" fill-rule="evenodd"/>
    <path id="Path_19750" data-name="Path 19750" d="M147.512,246.6l-2.212,2.978h.723v11.038h2.956V249.578h.723Z" transform="translate(4756.181 5995.393)" fill="#f17b29"/>
    <path id="Path_19751" data-name="Path 19751" d="M175.412,227.2l-2.212,3.02h.723v15.121H176.9V230.22h.7Z" transform="translate(4734.214 6010.667)" fill="#3cad54" fill-rule="evenodd"/>
    <path id="Path_19752" data-name="Path 19752" d="M203.291,227.2l-2.191,3.02h.7v15.121h2.978V230.22h.723Z" transform="translate(4712.249 6010.667)" fill="#333e7e" fill-rule="evenodd"/>
    <path id="Path_19753" data-name="Path 19753" d="M25.376,354.141a.86.86,0,0,0-.872.914v2.892H23.079v-1.4h-.043a1.753,1.753,0,0,1-1.106.383,1.883,1.883,0,0,1-1.914-1.978,1.989,1.989,0,0,1,2.361-2l.234,1.234c-.681-.17-1.191.17-1.191.787a.779.779,0,0,0,.829.766.862.862,0,0,0,.851-.936v-2.595H19.4V351.1h8.762v1.106H24.483v1.17h.043a1.662,1.662,0,0,1,1.127-.4,1.865,1.865,0,0,1,1.914,1.957,2.018,2.018,0,0,1-2.339,2.02l-.234-1.234c.681.149,1.17-.213,1.17-.808a.767.767,0,0,0-.787-.766Z" transform="translate(4855.305 5913.118)" fill="#231f20" fill-rule="evenodd"/>
    <path id="Path_19754" data-name="Path 19754" d="M50.183,341.1v5.742H48.737V341.1H47.673V340h.489v-.064a11.188,11.188,0,0,1-3.063-2.084l1.234-.766,2.807,2.935H49.2l-1.744-2.68,1.553-.34,1.127,3.02h1.106v1.106H50.183Z" transform="translate(4835.07 5924.218)" fill="#231f20" fill-rule="evenodd"/>
    <path id="Path_19755" data-name="Path 19755" d="M74.244,353.663a1.354,1.354,0,0,1-1.063-1.4,1.785,1.785,0,0,1,1.914-1.659,2.027,2.027,0,0,1,2.212,2.063,2.431,2.431,0,0,1-2.51,2.467v.043a6.172,6.172,0,0,1,1.319.957l.957.851-1.191.829-2.51-2.3-.872-.638.808-1.063a2.449,2.449,0,0,0,1.042.234,1.332,1.332,0,0,0,1.489-1.361c0-.617-.319-.936-.681-.936a.5.5,0,0,0-.553.489.643.643,0,0,0,.468.617l-.829.808Zm3.871-2.956h2.531v1.106H79.582v5.742H78.136v-6.848Z" transform="translate(4813.498 5913.511)" fill="#231f20" fill-rule="evenodd"/>
    <path id="Path_19756" data-name="Path 19756" d="M113.115,353.269v-1.063H107.5V351.1h8.146v1.106h-1.063v5.742h-1.446v-3.53a1.115,1.115,0,0,0-.51-.149c-.4,0-.6.276-.6.829v.957h-1.319v-1.042c0-.468-.213-.723-.574-.723-.276,0-.617.17-.617.893a2.35,2.35,0,0,0,1.467,2.02l-.915.936a3.416,3.416,0,0,1-2-3.041,1.864,1.864,0,0,1,1.893-2.02,1.256,1.256,0,0,1,1.3.766h.043a1.021,1.021,0,0,1,1-.808,1.044,1.044,0,0,1,.744.234Z" transform="translate(4785.941 5913.118)" fill="#231f20" fill-rule="evenodd"/>
    <path id="Path_19757" data-name="Path 19757" d="M159.967,351.021h3.339v1.106h-1.063v5.742h-1.425v-2.807h-1.723v1.085h-1.319a2.325,2.325,0,0,1-.829-1.744l.787-.6v-1.148c0-.4-.191-.553-.532-.553h-.7V351h.978a1.477,1.477,0,0,1,1.68,1.553v1.212h1.68v-1.68h-.851v-1.063Z" transform="translate(4747.363 5913.196)" fill="#231f20" fill-rule="evenodd"/>
    <path id="Path_19758" data-name="Path 19758" d="M187.631,352.206v5.742h-1.446v-5.742H185.1V351.1h3.573v1.106Z" transform="translate(4724.845 5913.118)" fill="#231f20" fill-rule="evenodd"/>
    <path id="Path_19759" data-name="Path 19759" d="M201.3,355.432a8.2,8.2,0,0,1,.829.914l.936,1.127-1.191.744-2.935-3.637,1.085-.829c.3.447.532.617.829.617.234,0,.425-.128.425-.51v-1.553H198.6V351.2h5.126v1.106H202.7v1.574a1.376,1.376,0,0,1-1.3,1.51.923.923,0,0,1-.106.021v.021Z" transform="translate(4714.216 5913.039)" fill="#231f20" fill-rule="evenodd"/>
    <path id="Path_19760" data-name="Path 19760" d="M221.739,358.1a3.58,3.58,0,0,1-1.616-2.914,1.965,1.965,0,0,1,2.127-2.042h1.276v-.936H219.4V351.1h6.657v1.106h-1.085v5.742h-1.446v-3.594h-1.021a.809.809,0,0,0-.893.872,2.382,2.382,0,0,0,1.17,1.957l-1.042.914Z" transform="translate(4697.84 5913.118)" fill="#231f20" fill-rule="evenodd"/>
    <path id="Path_19761" data-name="Path 19761" d="M284.372,354.141a.86.86,0,0,0-.872.914v2.892h-1.446v-1.4h-.021a1.7,1.7,0,0,1-1.106.383,1.9,1.9,0,0,1-1.935-1.978,1.989,1.989,0,0,1,2.361-2l.213,1.234c-.659-.17-1.17.17-1.17.787a.76.76,0,0,0,.808.766.85.85,0,0,0,.851-.936v-2.595H278.8V351.1h8.337v1.106h-3.658v1.17h.021a1.705,1.705,0,0,1,1.127-.4,1.861,1.861,0,0,1,1.893,1.957,2.026,2.026,0,0,1-2.361,2.02l-.213-1.234a.849.849,0,0,0,1.148-.808.682.682,0,0,0-.723-.766Z" transform="translate(4651.073 5913.118)" fill="#231f20" fill-rule="evenodd"/>
    <path id="Path_19762" data-name="Path 19762" d="M318.165,353.663a1.354,1.354,0,0,1-1.063-1.4,1.778,1.778,0,0,1,1.893-1.659,2,2,0,0,1,2.191,2.063,2.419,2.419,0,0,1-2.51,2.467v.043a6.2,6.2,0,0,1,1.34.957l.936.851-1.191.829-2.51-2.3-.851-.638.808-1.063a2.539,2.539,0,0,0,1.063.234,1.325,1.325,0,0,0,1.467-1.361c0-.617-.3-.936-.681-.936a.5.5,0,0,0-.553.489.665.665,0,0,0,.489.617l-.829.808Zm3.892-2.956h2.51v1.106H323.5v5.742h-1.446v-6.848Z" transform="translate(4621.47 5913.511)" fill="#231f20" fill-rule="evenodd"/>
    <path id="Path_19763" data-name="Path 19763" d="M357.115,353.269v-1.063H351.5V351.1h8.146v1.106h-1.085v5.742h-1.446v-3.53a1.013,1.013,0,0,0-.468-.149c-.425,0-.6.276-.6.829v.957h-1.319v-1.042c0-.468-.234-.723-.574-.723-.276,0-.617.17-.617.893a2.35,2.35,0,0,0,1.468,2.02l-.915.936a3.47,3.47,0,0,1-1.978-3.041,1.869,1.869,0,0,1,1.914-2.02,1.292,1.292,0,0,1,1.3.766h.043a.983.983,0,0,1,.978-.808,1.014,1.014,0,0,1,.744.234Z" transform="translate(4593.835 5913.118)" fill="#231f20" fill-rule="evenodd"/>
    <path id="Path_19764" data-name="Path 19764" d="M403.1,351.021h3.339v1.106h-1.063v5.742h-1.425v-2.807h-1.7v1.085h-1.319a2.227,2.227,0,0,1-.808-1.744l.766-.6v-1.148c0-.4-.191-.553-.553-.553H399.4V351h1.212a1.477,1.477,0,0,1,1.68,1.553v1.212h1.659v-1.68h-.829v-1.063Z" transform="translate(4556.123 5913.196)" fill="#231f20" fill-rule="evenodd"/>
    <path id="Path_19765" data-name="Path 19765" d="M431.71,352.206v5.742h-1.446v-5.742H429.2V351.1h3.573v1.106Z" transform="translate(4532.66 5913.118)" fill="#231f20" fill-rule="evenodd"/>
    <path id="Path_19766" data-name="Path 19766" d="M445.322,355.432a11.106,11.106,0,0,1,.829.914l.936,1.127-1.17.744-2.956-3.637,1.085-.829c.319.447.532.617.808.617.234,0,.425-.128.425-.51v-1.553H442.6V351.2h5.126v1.106h-1v1.574a1.379,1.379,0,0,1-1.319,1.51.924.924,0,0,0-.106.021v.021Z" transform="translate(4522.11 5913.039)" fill="#231f20" fill-rule="evenodd"/>
    <path id="Path_19767" data-name="Path 19767" d="M465.839,358.1a3.634,3.634,0,0,1-1.616-2.914,1.965,1.965,0,0,1,2.127-2.042h1.276v-.936H463.5V351.1h6.657v1.106h-1.085v5.742h-1.446v-3.594h-1.042a.809.809,0,0,0-.893.872,2.433,2.433,0,0,0,1.17,1.957l-1.021.914Z" transform="translate(4505.655 5913.118)" fill="#231f20" fill-rule="evenodd"/>
    <path id="Path_19768" data-name="Path 19768" d="M287.445,390.031A4.415,4.415,0,0,1,284,388.244l1-.936a3,3,0,0,0,2.425,1.574c.468,0,.915-.191.915-.7a.508.508,0,0,0-.553-.532.766.766,0,0,0-.7.425l-.936-.808a2.007,2.007,0,0,1,1.744-.766,1.674,1.674,0,0,1,1.85,1.659c0,.957-.659,1.872-2.3,1.872Z" transform="translate(4646.979 5885.247)" fill="#231f20" fill-rule="evenodd"/>
    <path id="Path_19769" data-name="Path 19769" d="M259.829,366.125H257V364.7h2.829Z" transform="translate(4668.237 5902.41)" fill="#231f20" fill-rule="evenodd"/>
    <path id="Path_19770" data-name="Path 19770" d="M211.849,15.7H181.585a1.089,1.089,0,0,0-1.085,1.085V42.434a1.089,1.089,0,0,0,1.085,1.085h30.264a1.089,1.089,0,0,0,1.085-1.085V16.785a1.089,1.089,0,0,0-1.085-1.085ZM191.006,33.5a.893.893,0,0,1,0-1.787.893.893,0,0,1,0,1.787Z" transform="translate(4649.55 6218.53)" fill="#fff" fill-rule="evenodd"/>
    <path id="Path_19771" data-name="Path 19771" d="M216.776,33.6a10.677,10.677,0,1,0,10.655,10.676A10.683,10.683,0,0,0,216.776,33.6Zm-5.615,13.994a.893.893,0,0,1,0-1.787.893.893,0,0,1,0,1.787Z" transform="translate(4629.395 6204.437)" fill="#333e7e" fill-rule="evenodd"/>
    <path id="Path_19772" data-name="Path 19772" d="M263,33.079l1.3-1.446.383-.425a2.288,2.288,0,0,0,2.744-.659,3.46,3.46,0,0,0,.659-3.211L266.534,29.1l-1.553-.425-.468-1.659,1.553-1.765a2.8,2.8,0,0,0-2.935.872,2.72,2.72,0,0,0-.447,2.978l.064-.064L260.6,31.484l2.4,1.6Z" transform="translate(4586.486 6211.104)" fill="#f17b29" fill-rule="evenodd"/>
    <path id="Path_19773" data-name="Path 19773" d="M262.58,32.649l-.234-.213,1.723-1.978.106.043a2.181,2.181,0,0,0,2.573-.617,3.174,3.174,0,0,0,.7-2.765l-1.425,1.616-1.723-.447-.51-1.85,1.425-1.616a2.657,2.657,0,0,0-2.51.893,2.57,2.57,0,0,0-.425,2.786l-.043.021.085.085-.234.276L260.134,31.1l-.234-.234,2.02-2.3a3.018,3.018,0,0,1,3.616-4l.255.064-1.659,1.893.4,1.467,1.382.362,1.659-1.893.085.255a3.592,3.592,0,0,1-.681,3.382,2.414,2.414,0,0,1-2.807.723l-.3.34-1.3,1.489Z" transform="translate(4587.037 6211.641)" fill="#175a97" fill-rule="evenodd"/>
    <path id="Path_19774" data-name="Path 19774" d="M207.472,98.8l-3.19,3.382-.021.021a1.336,1.336,0,0,0,.043,1.872,1.29,1.29,0,0,0,1.85-.043.021.021,0,0,0,.021-.021l3.169-3.382L207.472,98.8Zm-2.148,4.828a.432.432,0,0,1-.553-.234.456.456,0,0,1,.234-.574.424.424,0,0,1,.553.234.465.465,0,0,1-.234.574Z" transform="translate(4631.127 6153.104)" fill="#f17b29" fill-rule="evenodd"/>
    <path id="Path_19775" data-name="Path 19775" d="M204.713,103.719h0a1.415,1.415,0,0,1-1-.4,1.5,1.5,0,0,1-.064-2.084l.021-.021,3.3-3.509,2.106,2.02-3.275,3.488-.021.021a1.357,1.357,0,0,1-1.063.489Zm-.936-2.169.085-.106,3.084-3.3,1.68,1.638-3.084,3.254a.021.021,0,0,1-.021.021,1.11,1.11,0,0,1-.829.362,1.179,1.179,0,0,1-.808-.319,1.221,1.221,0,0,1-.106-1.553Zm.872,1.382a.58.58,0,0,1-.532-.362.544.544,0,0,1,0-.447.664.664,0,0,1,.319-.319.35.35,0,0,1,.213-.043.549.549,0,0,1,.532.383.586.586,0,0,1-.319.766.656.656,0,0,1-.213.021Zm0-.872a.192.192,0,0,0-.106.021.378.378,0,0,0-.17.149.435.435,0,0,0,0,.234.3.3,0,0,0,.362.17.319.319,0,0,0,.17-.383.255.255,0,0,0-.255-.191Z" transform="translate(4631.632 6153.969)" fill="#175a97" fill-rule="evenodd"/>
    <path id="Path_19776" data-name="Path 19776" d="M215.605,55.1,191.7,64.33l.787,2.106,6.529-2.531a.884.884,0,0,1,1.616-.617l15.781-6.083,1.531-1.808-2.339-.3Z" transform="translate(4640.732 6187.509)" fill="#3cad54" fill-rule="evenodd"/>
    <path id="Path_19777" data-name="Path 19777" d="M226.093,55.154,222.35,52.9l-3.19,1.467-2.425,1.106L213.8,60.45l1.978,2.042L218.2,65l8.8-6.976c.043-2.276-.914-2.871-.914-2.871Zm-8.869,7.635a.893.893,0,0,1,0-1.787.893.893,0,0,1,0,1.787Z" transform="translate(4623.333 6189.242)" fill="#333e7e" fill-rule="evenodd"/>
    <path id="Path_19778" data-name="Path 19778" d="M310.7,55.8l.34.723.489-.659Z" transform="translate(4547.041 6186.958)" fill="#333e7e" fill-rule="evenodd"/>
    <path id="Path_19779" data-name="Path 19779" d="M214.854,54.3,190.8,63.722l1,2.3,6.338-2.4c-.043-.106-.319-.191-.319-.3l-5.827,2.276-.723-1.68L214.9,54.662l1.978.213-1.255,1.467L199.8,62.531c.085.085.191.128.234.234L215.854,56.6l1.723-2.042-2.722-.255Z" transform="translate(4641.441 6188.139)" fill="#175a97" fill-rule="evenodd"/>
    <path id="Path_19780" data-name="Path 19780" d="M305.631,56.149,304.1,56l.744,1.68.957-1.148Z" transform="translate(4552.237 6186.8)" fill="#fff" fill-rule="evenodd"/>
    <path id="Path_19781" data-name="Path 19781" d="M304.1,56l.744,1.68Z" transform="translate(4552.237 6186.8)" fill="#f05f33" fill-rule="evenodd"/>
    <path id="Path_19782" data-name="Path 19782" d="M304.023,57.508l-.723-1.68.362-.128.723,1.68Z" transform="translate(4552.867 6187.037)" fill="#175a97" fill-rule="evenodd"/>
    <path id="Path_19783" data-name="Path 19783" d="M204.791,179.113a.514.514,0,0,0-.4-.213h-30.03a.483.483,0,0,0-.383.191l-3,3.552a.518.518,0,0,0-.064.553.5.5,0,0,0,.447.276h35.517a.489.489,0,0,0,.425-.276.452.452,0,0,0-.043-.51l-2.467-3.573Zm-.957.425.3.489h-1.17l-.234-.489Zm-12.7,0h1.212l.021.489h-1.255l.021-.489Zm-.043,1.3h1.3l.021.489h-1.34l.021-.489Zm-2.276-1.3h1.212l-.021.489h-1.255l.064-.489Zm-.17,1.3h1.319l-.043.489h-1.34l.064-.489Zm-2.127-1.3h1.191l-.085.489h-1.212l.106-.489Zm-.319,1.3h1.3l-.085.489h-1.34l.128-.489Zm-1.978-1.3h1.191l-.149.489h-1.212l.17-.489Zm-.468,1.3h1.276l-.149.489h-1.319l.191-.489Zm-1.829-1.3h1.17l-.191.489h-1.212l.234-.489Zm-.617,1.3h1.276l-.191.489h-1.3l.213-.489Zm-1.68-1.3h1.148l-.234.489h-1.191l.276-.489Zm-2.3,0h1.127l-.3.489h-1.148l.319-.489Zm-2.276,0h1.085l-.34.489h-1.127l.383-.489Zm-1.085,3.041h-1.319l.383-.489h1.276l-.34.489Zm.893-1.255h-1.234l.383-.489h1.191l-.34.489Zm1.765,1.255h-1.361l.34-.489h1.319l-.3.489Zm.744-1.255h-1.255l.34-.489h1.212l-.3.489Zm1.893,1.255h-1.382l.276-.489h1.34l-.234.489Zm.617-1.255h-1.3l.276-.489h1.255l-.234.489Zm.617,1.255.234-.489h11.719l.021.489Zm12.931-3.041.043.489h1.255l-.085-.489Zm.106,1.3h2.446l-.234-1.3h1.191l.468,1.786h-3.849l-.021-.489Zm.106,1.744-.043-.489h1.4l.085.489Zm2.658,0-.085-.489h1.4l.128.489Zm1.765-3.041h1.191l.17.489H198.2l-.128-.489Zm.383,1.3h1.3l.17.489H198.6l-.149-.489Zm.489,1.744-.128-.489H200.2l.17.489Zm1.446-3.041h1.17l.234.489H200.6l-.213-.489Zm.51,1.3h1.255l.234.489h-1.3l-.191-.489Zm.681,1.744-.191-.489h1.361l.234.489Zm1.765-1.744h1.234l.276.489h-1.3l-.213-.489Zm.893,1.744-.255-.489h1.34l.3.489Z" transform="translate(4657.14 6090.039)" fill="#333e7e" fill-rule="evenodd"/>
    <path id="Path_19784" data-name="Path 19784" d="M225.1,154.83c-.489.489.276.744.276.744h12.506s.766-.276.276-.744c-.489-.489-1.786-.829-1.914-2.892-.021-.149,0-.808,0-1.638h-9.209v1.638c-.128,2.063-1.446,2.4-1.935,2.892Z" transform="translate(4614.568 6112.557)" fill="#333e7e" fill-rule="evenodd"/>
    <path id="Path_19785" data-name="Path 19785" d="M208.723,41.277H178.884a2.092,2.092,0,0,1-2.084-2.106V13.884a2.088,2.088,0,0,1,2.084-2.084h29.839a2.088,2.088,0,0,1,2.084,2.084V39.172a2.092,2.092,0,0,1-2.084,2.106ZM178.884,12.821a1.066,1.066,0,0,0-1.063,1.063V39.172a1.085,1.085,0,0,0,1.063,1.085h29.839a1.076,1.076,0,0,0,1.085-1.085V13.884a1.085,1.085,0,0,0-1.085-1.063Z" transform="translate(4652.463 6221.601)" fill="#333e7e" fill-rule="evenodd"/>
    <path id="Path_19786" data-name="Path 19786" d="M208.723,41.277H178.884a2.092,2.092,0,0,1-2.084-2.106V13.884a2.088,2.088,0,0,1,2.084-2.084h29.839a2.088,2.088,0,0,1,2.084,2.084V39.172a2.092,2.092,0,0,1-2.084,2.106ZM178.884,12.821a1.066,1.066,0,0,0-1.063,1.063V39.172a1.085,1.085,0,0,0,1.063,1.085h29.839a1.076,1.076,0,0,0,1.085-1.085V13.884a1.085,1.085,0,0,0-1.085-1.063Z" transform="translate(4652.463 6221.601)" fill="#333e7e" fill-rule="evenodd"/>
    <path id="Path_19787" data-name="Path 19787" d="M229,83.4l.085.106Z" transform="translate(4611.365 6165.228)" fill="#fff" fill-rule="evenodd"/>
    <path id="Path_19788" data-name="Path 19788" d="M248.013,75.02c.128-.106-.213-.128-.085-.255-.106-.106-4.317.255-4.381.191-1.489-1.51.936.957-.553-.574-1.638-1.659-3.254-3.318-4.892-4.955a1.748,1.748,0,0,0-.532-.234,8.842,8.842,0,0,1-1.51-.447,4.97,4.97,0,0,1-1.085-.936c-.447-.4-.851-.829-1.276-1.212.553-.574,1.255-.936,1.382-1.765,0-.064.106-.085.149-.149.255-.191.489-.362.723-.553a1.348,1.348,0,0,0,.6-1.255c-.021-.064.064-.149.128-.213.4-.425.808-.829,1.212-1.255.276-.043.553-.085.851-.128a2.314,2.314,0,0,1-.149.51,1.2,1.2,0,0,0,.064,1.276c.4.787.872,1.531,1.34,2.3.085.128.276.17.425.276-.021-.149.043-.362-.043-.489-.362-.659-.744-1.276-1.127-1.935-.213-.362-.489-.723-.3-1.17.191-.51.425-1,.659-1.489.425-.893.425-.893-.319-1.553-.021-.021-.064-.043-.106-.085a.747.747,0,0,0-.957-.128c-.319.17-.659.319-.978.489a.815.815,0,0,1-1.063-.17c-.149-.149-.319-.276-.468-.425a.408.408,0,0,1,.021-.7l2.169-1.787a.709.709,0,0,1,.915-.043c.936.638,1.85,1.234,2.786,1.829a1.24,1.24,0,0,1,.617,1c.149,1.234.234,2.467.447,3.679a3.875,3.875,0,0,1-.723,3.084,4.555,4.555,0,0,1-.4.553c-.234.234-.149.425.064.638.872.787,1.744,1.574,2.595,2.361,1.255,1.17,2.531,2.318,3.807,3.467a3.88,3.88,0,0,0,.34.276,1.49,1.49,0,0,0-.4-.553c-1.744-1.723-3.509-3.424-5.253-5.147-.255-.234-.659-.468-.681-.766-.043-.255.3-.6.447-.893.17-.3.3-.6.468-.893.043-.085.128-.17.191-.3,3.339,3.02,7.635,6.742,11,9.741l-6.1.787Z" transform="translate(4607.665 6186.794)" fill="#fff" fill-rule="evenodd"/>
    <path id="Path_19789" data-name="Path 19789" d="M226.12,77.977c.425.4.851.829,1.276,1.234.319.3.489.276.766-.043a5.247,5.247,0,0,1,.6-.6.437.437,0,0,0,0-.723c-.872-.851-1.744-1.7-2.637-2.531a.451.451,0,0,0-.7.021c-.213.213-.4.425-.617.638a.468.468,0,0,0,.021.766c.447.383.872.808,1.3,1.234Z" transform="translate(4614.82 6171.714)" fill="#fff" fill-rule="evenodd"/>
    <path id="Path_19790" data-name="Path 19790" d="M232.121,68.585c.425.4.872.829,1.3,1.255a.467.467,0,0,0,.766-.021c.191-.191.4-.4.574-.6a.483.483,0,0,0,.021-.744c-.851-.851-1.723-1.68-2.616-2.51a.5.5,0,0,0-.787.043c-.191.213-.4.425-.617.638a.407.407,0,0,0,.021.681c.468.4.893.829,1.34,1.255Z" transform="translate(4610.116 6179.086)" fill="#fff" fill-rule="evenodd"/>
    <path id="Path_19791" data-name="Path 19791" d="M221.538,86.2c-.043-.043-.085-.106-.128-.149h0c-.34-.34-.681-.681-1.021-1-.425-.383-.617-.383-1.021.021-.149.149-.3.319-.447.468a.468.468,0,0,0-.021.766c.766.744,1.553,1.51,2.339,2.254a.409.409,0,0,0,.659-.021c.234-.213.425-.447.638-.659.276-.276.213-.51-.043-.766-.234-.213-.468-.447-.7-.659l-.255-.255Z" transform="translate(4619.465 6164.156)" fill="#fff" fill-rule="evenodd"/>
    <path id="Path_19792" data-name="Path 19792" d="M248.8,71.187c.34.34.659.638.978.936a.368.368,0,0,0,.617-.021,5.48,5.48,0,0,0,.659-.766.636.636,0,0,0,.043-.553c-.149-.213-.319-.532-.7-.362-.51.276-1.042.51-1.6.766Z" transform="translate(4595.776 6175.484)" fill="#fff" fill-rule="evenodd"/>
    <path id="Path_19793" data-name="Path 19793" d="M239.8,60.64c.51-.425.957-.829,1.425-1.234-.021-.043-.021-.064-.043-.106-.17.043-.425.021-.532.106-.3.383-.851.6-.851,1.234Z" transform="translate(4602.862 6184.203)" fill="#fff" fill-rule="evenodd"/>
  </g>
</svg>
