<svg xmlns="http://www.w3.org/2000/svg" width="14.064" height="16.7" viewBox="0 0 14.064 16.7">
  <path id="Union_10" data-name="Union 10" d="M-160.964-423.006l-.173-.034c-.136-.026-.265-.05-.39-.086a2.439,2.439,0,0,1-1.88-2.339,8.677,8.677,0,0,1,.578-3.733,3.285,3.285,0,0,1,1.492-1.787,2.952,2.952,0,0,1,1.394-.345h.061a1.042,1.042,0,0,1,.416.149c.153.082.3.176.451.276.089.058.181.117.274.174a4.321,4.321,0,0,0,2.257.685,4.32,4.32,0,0,0,2.262-.689l.107-.065c.165-.1.336-.2.5-.323a1.081,1.081,0,0,1,.676-.21,2.045,2.045,0,0,1,.295.023,2.955,2.955,0,0,1,2.272,1.615,6.722,6.722,0,0,1,.755,2.664,13.282,13.282,0,0,1,.064,1.46,2.513,2.513,0,0,1-2.344,2.532.54.54,0,0,0-.12.03Zm5.763-.578,1.284,0c.65,0,1.185,0,1.684-.008a1.981,1.981,0,0,0,2.1-2.123,12.7,12.7,0,0,0-.072-1.339,6.118,6.118,0,0,0-.663-2.332,2.373,2.373,0,0,0-2.023-1.36h-.03a.656.656,0,0,0-.32.085c-.14.081-.277.169-.409.253-.077.049-.154.1-.232.147a4.889,4.889,0,0,1-2.584.795,4.846,4.846,0,0,1-2.121-.519,7.379,7.379,0,0,1-.733-.429c-.123-.079-.251-.16-.38-.237l0,0a.545.545,0,0,0-.279-.1H-160a2.272,2.272,0,0,0-1.556.64,3.392,3.392,0,0,0-.76,1.2,8.52,8.52,0,0,0-.509,3.4,1.844,1.844,0,0,0,.946,1.624,2.514,2.514,0,0,0,1.312.3h4.293v0Zm-5.307-12.045a3.8,3.8,0,0,1,1.136-2.738,3.92,3.92,0,0,1,2.781-1.139,3.919,3.919,0,0,1,2.771,1.127,3.832,3.832,0,0,1,1.148,2.736,3.793,3.793,0,0,1-1.135,2.728,3.969,3.969,0,0,1-2.777,1.143h-.033A3.892,3.892,0,0,1-160.507-435.629Zm.585-.011a3.316,3.316,0,0,0,3.332,3.291,3.318,3.318,0,0,0,3.334-3.29,3.244,3.244,0,0,0-.971-2.329,3.339,3.339,0,0,0-2.361-.961h0A3.315,3.315,0,0,0-159.923-435.64Z" transform="translate(163.517 439.606)" fill="#515151" stroke="#515151" stroke-width="0.2"/>
</svg>
