<svg xmlns="http://www.w3.org/2000/svg" width="80" height="80" viewBox="0 0 80 80">
  <g id="Group_44697" data-name="Group 44697" transform="translate(-448 -1914)">
    <rect id="Rectangle_9405" data-name="Rectangle 9405" width="80" height="80" transform="translate(448 1914)" fill="#fff"/>
    <g id="Group_44696" data-name="Group 44696" transform="translate(694.18 1980.626)">
      <path id="Path_15994" data-name="Path 15994" d="M-186.71,26.975c-.031,11.439-8.829,20.686-19.692,20.7-10.987.011-19.806-9.279-19.778-20.836.027-11.521,8.945-20.795,19.91-20.705C-195.424,6.219-186.679,15.538-186.71,26.975Zm-33.343-4.62-.091.582c1.917,1.7,3.769,3.5,5.776,5.075a3,3,0,0,1,1.1,3.582c-.68,2.574-1.226,5.187-1.985,8.459,2.736-1.771,4.932-3.057,6.978-4.565a2.784,2.784,0,0,1,3.79.039c2.042,1.478,4.21,2.764,6.883,4.493-.719-3.232-1.174-5.812-1.893-8.309a3.042,3.042,0,0,1,1.144-3.761c2.012-1.582,3.846-3.411,6.21-5.545-3.3-.287-5.884-.627-8.472-.693-1.556-.039-2.186-.807-2.675-2.19-.882-2.495-1.913-4.932-3.124-8.01-1.214,3.07-2.244,5.454-3.094,7.906-.51,1.471-1.173,2.284-2.817,2.319C-214.9,21.792-217.476,22.134-220.053,22.355Z" transform="translate(0 -38.632)" fill="#f7a325"/>
      <path id="Path_15995" data-name="Path 15995" d="M-205.883-34.868V-62.626h20.431v27.758Z" transform="translate(-10.8)" fill="#f7a325"/>
      <path id="Path_15996" data-name="Path 15996" d="M-218.908-38.18c-1.75-1.876-3.241-3.428-4.666-5.036a2.411,2.411,0,0,1-.629-1.422c-.043-5.9-.028-11.8-.028-17.882h5.323Z" transform="translate(-1.036 -0.056)" fill="#f7a325"/>
      <path id="Path_15997" data-name="Path 15997" d="M-150.977-38.18c1.75-1.876,3.241-3.428,4.666-5.036a2.411,2.411,0,0,0,.629-1.422c.043-5.9.028-11.8.028-17.882h-5.323Z" transform="translate(-41.894 -0.056)" fill="#f7a325"/>
      <path id="Path_15998" data-name="Path 15998" d="M-183.1,2.972a24.178,24.178,0,0,0-14.971.007V.022H-183.1Z" transform="translate(-15.896 -34.183)" fill="#f7a325"/>
      <path id="Path_15999" data-name="Path 15999" d="M-212.575,28.475c2.526-.22,5.051-.563,7.58-.618,1.612-.036,2.262-.848,2.762-2.319.833-2.452,1.843-4.835,3.034-7.906,1.188,3.078,2.2,5.515,3.063,8.01.48,1.383,1.1,2.151,2.623,2.19,2.537.066,5.068.406,8.306.693-2.318,2.134-4.116,3.963-6.089,5.545a3.075,3.075,0,0,0-1.122,3.761c.706,2.5,1.151,5.077,1.856,8.309-2.621-1.729-4.747-3.015-6.749-4.493a2.691,2.691,0,0,0-3.716-.039c-2.007,1.508-4.16,2.794-6.842,4.565.745-3.272,1.28-5.885,1.947-8.459A3.031,3.031,0,0,0-207,34.132c-1.968-1.578-3.783-3.373-5.663-5.075Z" transform="translate(-7.192 -44.752)" fill="#fff"/>
    </g>
  </g>
</svg>
